<svg width="168" height="30" viewBox="0 0 168 30" fill="none" xmlns="http://www.w3.org/2000/svg">
<g filter="url(#filter0_d_614_2065)">
<rect x="21.7886" y="12.0781" width="13.3097" height="1.20397" rx="0.601985" transform="rotate(-43.0042 21.7886 12.0781)" fill="white" stroke="white" stroke-width="1.2"/>
<rect x="19.8516" y="8.55225" width="5.08615" height="1.20397" rx="0.601985" transform="rotate(45 19.8516 8.55225)" fill="white" stroke="white" stroke-width="1.2"/>
</g>
<g filter="url(#filter1_d_614_2065)">
<path d="M29.6101 20.4873L29.6101 19.2226L29.1778 18.7744C27.2952 20.3975 24.8917 21.2896 22.4059 21.2878C19.6461 21.2878 16.9993 20.1915 15.0478 18.24C13.0963 16.2885 12 13.6417 12 10.8818C12 6.01373 15.3412 1.9303 19.8631 0.803371C20.7883 0.57279 21.6055 1.33665 21.6055 2.29017C21.6055 3.12568 20.9677 3.80826 20.1726 4.06515C17.2871 4.99751 15.2018 7.67753 15.2018 10.8818C15.2018 14.8681 18.4197 18.086 22.4059 18.086C26.3922 18.086 29.6101 14.8681 29.6101 10.8818C29.6101 10.4533 29.9065 10.0814 30.3351 10.0814L31.9615 10.0814C32.419 10.0814 32.8119 10.4243 32.8119 10.8818C32.8119 13.4593 31.8674 15.8287 30.2985 17.6537L30.7467 18.086L32.0114 18.086L38.8085 24.8967C39.4667 25.5562 39.4662 26.6243 38.8073 27.2832C38.1484 27.9421 37.0803 27.9426 36.4208 27.2844L29.6101 20.4873Z" fill="black"/>
<path d="M29.6101 20.4873L29.6101 19.2226L29.1778 18.7744C27.2952 20.3975 24.8917 21.2896 22.4059 21.2878C19.6461 21.2878 16.9993 20.1915 15.0478 18.24C13.0963 16.2885 12 13.6417 12 10.8818C12 6.01373 15.3412 1.9303 19.8631 0.803371C20.7883 0.57279 21.6055 1.33665 21.6055 2.29017C21.6055 3.12568 20.9677 3.80826 20.1726 4.06515C17.2871 4.99751 15.2018 7.67753 15.2018 10.8818C15.2018 14.8681 18.4197 18.086 22.4059 18.086C26.3922 18.086 29.6101 14.8681 29.6101 10.8818C29.6101 10.4533 29.9065 10.0814 30.3351 10.0814L31.9615 10.0814C32.419 10.0814 32.8119 10.4243 32.8119 10.8818C32.8119 13.4593 31.8674 15.8287 30.2985 17.6537L30.7467 18.086L32.0114 18.086L38.8085 24.8967C39.4667 25.5562 39.4662 26.6243 38.8073 27.2832C38.1484 27.9421 37.0803 27.9426 36.4208 27.2844L29.6101 20.4873Z" fill="white"/>
</g>
<g filter="url(#filter2_d_614_2065)">
<path d="M47.784 23L55.272 6.2H59.112L66.624 23H62.544L56.4 8.168H57.936L51.768 23H47.784ZM51.528 19.4L52.56 16.448H61.2L62.256 19.4H51.528ZM73.5298 23.192C72.4258 23.192 71.3618 23.064 70.3378 22.808C69.3298 22.536 68.5298 22.2 67.9378 21.8L69.1858 19.112C69.7778 19.48 70.4738 19.784 71.2738 20.024C72.0898 20.248 72.8898 20.36 73.6738 20.36C74.5378 20.36 75.1458 20.256 75.4978 20.048C75.8658 19.84 76.0498 19.552 76.0498 19.184C76.0498 18.88 75.9058 18.656 75.6178 18.512C75.3458 18.352 74.9778 18.232 74.5138 18.152C74.0498 18.072 73.5378 17.992 72.9778 17.912C72.4338 17.832 71.8818 17.728 71.3218 17.6C70.7618 17.456 70.2498 17.248 69.7858 16.976C69.3218 16.704 68.9458 16.336 68.6578 15.872C68.3858 15.408 68.2498 14.808 68.2498 14.072C68.2498 13.256 68.4818 12.536 68.9458 11.912C69.4258 11.288 70.1138 10.8 71.0098 10.448C71.9058 10.08 72.9778 9.896 74.2258 9.896C75.1058 9.896 76.0018 9.992 76.9138 10.184C77.8258 10.376 78.5858 10.656 79.1938 11.024L77.9458 13.688C77.3218 13.32 76.6898 13.072 76.0498 12.944C75.4258 12.8 74.8178 12.728 74.2258 12.728C73.3938 12.728 72.7858 12.84 72.4018 13.064C72.0178 13.288 71.8258 13.576 71.8258 13.928C71.8258 14.248 71.9618 14.488 72.2338 14.648C72.5218 14.808 72.8978 14.936 73.3618 15.032C73.8258 15.128 74.3298 15.216 74.8738 15.296C75.4338 15.36 75.9938 15.464 76.5538 15.608C77.1138 15.752 77.6178 15.96 78.0658 16.232C78.5298 16.488 78.9058 16.848 79.1938 17.312C79.4818 17.76 79.6258 18.352 79.6258 19.088C79.6258 19.888 79.3858 20.6 78.9058 21.224C78.4258 21.832 77.7298 22.312 76.8178 22.664C75.9218 23.016 74.8258 23.192 73.5298 23.192ZM87.4798 23.192C86.3758 23.192 85.3118 23.064 84.2878 22.808C83.2798 22.536 82.4798 22.2 81.8878 21.8L83.1358 19.112C83.7278 19.48 84.4238 19.784 85.2238 20.024C86.0398 20.248 86.8398 20.36 87.6238 20.36C88.4878 20.36 89.0958 20.256 89.4478 20.048C89.8158 19.84 89.9998 19.552 89.9998 19.184C89.9998 18.88 89.8558 18.656 89.5678 18.512C89.2958 18.352 88.9278 18.232 88.4638 18.152C87.9998 18.072 87.4878 17.992 86.9278 17.912C86.3838 17.832 85.8318 17.728 85.2718 17.6C84.7118 17.456 84.1998 17.248 83.7358 16.976C83.2718 16.704 82.8958 16.336 82.6078 15.872C82.3358 15.408 82.1998 14.808 82.1998 14.072C82.1998 13.256 82.4318 12.536 82.8958 11.912C83.3758 11.288 84.0638 10.8 84.9598 10.448C85.8558 10.08 86.9278 9.896 88.1758 9.896C89.0558 9.896 89.9518 9.992 90.8638 10.184C91.7758 10.376 92.5358 10.656 93.1438 11.024L91.8958 13.688C91.2718 13.32 90.6398 13.072 89.9998 12.944C89.3758 12.8 88.7678 12.728 88.1758 12.728C87.3438 12.728 86.7358 12.84 86.3518 13.064C85.9678 13.288 85.7758 13.576 85.7758 13.928C85.7758 14.248 85.9118 14.488 86.1838 14.648C86.4718 14.808 86.8478 14.936 87.3118 15.032C87.7758 15.128 88.2798 15.216 88.8238 15.296C89.3838 15.36 89.9438 15.464 90.5038 15.608C91.0638 15.752 91.5678 15.96 92.0158 16.232C92.4798 16.488 92.8558 16.848 93.1438 17.312C93.4318 17.76 93.5758 18.352 93.5758 19.088C93.5758 19.888 93.3358 20.6 92.8558 21.224C92.3758 21.832 91.6798 22.312 90.7678 22.664C89.8718 23.016 88.7758 23.192 87.4798 23.192ZM103.494 23.192C102.022 23.192 100.726 22.904 99.6058 22.328C98.5018 21.752 97.6458 20.968 97.0378 19.976C96.4298 18.968 96.1258 17.824 96.1258 16.544C96.1258 15.248 96.4218 14.104 97.0138 13.112C97.6218 12.104 98.4458 11.32 99.4858 10.76C100.526 10.184 101.702 9.896 103.014 9.896C104.278 9.896 105.414 10.168 106.422 10.712C107.446 11.24 108.254 12.008 108.846 13.016C109.438 14.008 109.734 15.2 109.734 16.592C109.734 16.736 109.726 16.904 109.71 17.096C109.694 17.272 109.678 17.44 109.662 17.6H99.1738V15.416H107.694L106.254 16.064C106.254 15.392 106.118 14.808 105.846 14.312C105.574 13.816 105.198 13.432 104.718 13.16C104.238 12.872 103.678 12.728 103.038 12.728C102.398 12.728 101.83 12.872 101.334 13.16C100.854 13.432 100.478 13.824 100.206 14.336C99.9338 14.832 99.7978 15.424 99.7978 16.112V16.688C99.7978 17.392 99.9498 18.016 100.254 18.56C100.574 19.088 101.014 19.496 101.574 19.784C102.15 20.056 102.822 20.192 103.59 20.192C104.278 20.192 104.878 20.088 105.39 19.88C105.918 19.672 106.398 19.36 106.83 18.944L108.822 21.104C108.23 21.776 107.486 22.296 106.59 22.664C105.694 23.016 104.662 23.192 103.494 23.192ZM117.77 23.192C116.666 23.192 115.602 23.064 114.578 22.808C113.57 22.536 112.77 22.2 112.178 21.8L113.426 19.112C114.018 19.48 114.714 19.784 115.514 20.024C116.33 20.248 117.13 20.36 117.914 20.36C118.778 20.36 119.386 20.256 119.738 20.048C120.106 19.84 120.29 19.552 120.29 19.184C120.29 18.88 120.146 18.656 119.858 18.512C119.586 18.352 119.218 18.232 118.754 18.152C118.29 18.072 117.778 17.992 117.218 17.912C116.674 17.832 116.122 17.728 115.562 17.6C115.002 17.456 114.49 17.248 114.026 16.976C113.562 16.704 113.186 16.336 112.898 15.872C112.626 15.408 112.49 14.808 112.49 14.072C112.49 13.256 112.722 12.536 113.186 11.912C113.666 11.288 114.354 10.8 115.25 10.448C116.146 10.08 117.218 9.896 118.466 9.896C119.346 9.896 120.242 9.992 121.154 10.184C122.066 10.376 122.826 10.656 123.434 11.024L122.186 13.688C121.562 13.32 120.93 13.072 120.29 12.944C119.666 12.8 119.058 12.728 118.466 12.728C117.634 12.728 117.026 12.84 116.642 13.064C116.258 13.288 116.066 13.576 116.066 13.928C116.066 14.248 116.202 14.488 116.474 14.648C116.762 14.808 117.138 14.936 117.602 15.032C118.066 15.128 118.57 15.216 119.114 15.296C119.674 15.36 120.234 15.464 120.794 15.608C121.354 15.752 121.858 15.96 122.306 16.232C122.77 16.488 123.146 16.848 123.434 17.312C123.722 17.76 123.866 18.352 123.866 19.088C123.866 19.888 123.626 20.6 123.146 21.224C122.666 21.832 121.97 22.312 121.058 22.664C120.162 23.016 119.066 23.192 117.77 23.192ZM131.72 23.192C130.616 23.192 129.552 23.064 128.528 22.808C127.52 22.536 126.72 22.2 126.128 21.8L127.376 19.112C127.968 19.48 128.664 19.784 129.464 20.024C130.28 20.248 131.08 20.36 131.864 20.36C132.728 20.36 133.336 20.256 133.688 20.048C134.056 19.84 134.24 19.552 134.24 19.184C134.24 18.88 134.096 18.656 133.808 18.512C133.536 18.352 133.168 18.232 132.704 18.152C132.24 18.072 131.728 17.992 131.168 17.912C130.624 17.832 130.072 17.728 129.512 17.6C128.952 17.456 128.44 17.248 127.976 16.976C127.512 16.704 127.136 16.336 126.848 15.872C126.576 15.408 126.44 14.808 126.44 14.072C126.44 13.256 126.672 12.536 127.136 11.912C127.616 11.288 128.304 10.8 129.2 10.448C130.096 10.08 131.168 9.896 132.416 9.896C133.296 9.896 134.192 9.992 135.104 10.184C136.016 10.376 136.776 10.656 137.384 11.024L136.136 13.688C135.512 13.32 134.88 13.072 134.24 12.944C133.616 12.8 133.008 12.728 132.416 12.728C131.584 12.728 130.976 12.84 130.592 13.064C130.208 13.288 130.016 13.576 130.016 13.928C130.016 14.248 130.152 14.488 130.424 14.648C130.712 14.808 131.088 14.936 131.552 15.032C132.016 15.128 132.52 15.216 133.064 15.296C133.624 15.36 134.184 15.464 134.744 15.608C135.304 15.752 135.808 15.96 136.256 16.232C136.72 16.488 137.096 16.848 137.384 17.312C137.672 17.76 137.816 18.352 137.816 19.088C137.816 19.888 137.576 20.6 137.096 21.224C136.616 21.832 135.92 22.312 135.008 22.664C134.112 23.016 133.016 23.192 131.72 23.192ZM141.59 23V6.2H145.478V23H141.59ZM154.145 23V9.368H148.769V6.2H163.409V9.368H158.033V23H154.145Z" fill="white"/>
</g>
<defs>
<filter id="filter0_d_614_2065" x="18.6494" y="2.64893" width="14.0449" height="12.7017" filterUnits="userSpaceOnUse" color-interpolation-filters="sRGB">
<feFlood flood-opacity="0" result="BackgroundImageFix"/>
<feColorMatrix in="SourceAlpha" type="matrix" values="0 0 0 0 0 0 0 0 0 0 0 0 0 0 0 0 0 0 127 0" result="hardAlpha"/>
<feOffset dy="2"/>
<feComposite in2="hardAlpha" operator="out"/>
<feColorMatrix type="matrix" values="0 0 0 0 0.117647 0 0 0 0 0.168627 0 0 0 0 0.592157 0 0 0 1 0"/>
<feBlend mode="normal" in2="BackgroundImageFix" result="effect1_dropShadow_614_2065"/>
<feBlend mode="normal" in="SourceGraphic" in2="effect1_dropShadow_614_2065" result="shape"/>
</filter>
<filter id="filter1_d_614_2065" x="12" y="0.761719" width="28.3018" height="29.0161" filterUnits="userSpaceOnUse" color-interpolation-filters="sRGB">
<feFlood flood-opacity="0" result="BackgroundImageFix"/>
<feColorMatrix in="SourceAlpha" type="matrix" values="0 0 0 0 0 0 0 0 0 0 0 0 0 0 0 0 0 0 127 0" result="hardAlpha"/>
<feOffset dx="1" dy="2"/>
<feComposite in2="hardAlpha" operator="out"/>
<feColorMatrix type="matrix" values="0 0 0 0 0.085625 0 0 0 0 0.136456 0 0 0 0 0.570833 0 0 0 0.8 0"/>
<feBlend mode="normal" in2="BackgroundImageFix" result="effect1_dropShadow_614_2065"/>
<feBlend mode="normal" in="SourceGraphic" in2="effect1_dropShadow_614_2065" result="shape"/>
</filter>
<filter id="filter2_d_614_2065" x="47.7842" y="6.2002" width="119.625" height="20.9917" filterUnits="userSpaceOnUse" color-interpolation-filters="sRGB">
<feFlood flood-opacity="0" result="BackgroundImageFix"/>
<feColorMatrix in="SourceAlpha" type="matrix" values="0 0 0 0 0 0 0 0 0 0 0 0 0 0 0 0 0 0 127 0" result="hardAlpha"/>
<feOffset dx="2" dy="2"/>
<feGaussianBlur stdDeviation="1"/>
<feComposite in2="hardAlpha" operator="out"/>
<feColorMatrix type="matrix" values="0 0 0 0 0.0862745 0 0 0 0 0.137255 0 0 0 0 0.572549 0 0 0 0.8 0"/>
<feBlend mode="normal" in2="BackgroundImageFix" result="effect1_dropShadow_614_2065"/>
<feBlend mode="normal" in="SourceGraphic" in2="effect1_dropShadow_614_2065" result="shape"/>
</filter>
</defs>
</svg>
