<svg width="114" height="110" viewBox="0 0 114 110" fill="none" xmlns="http://www.w3.org/2000/svg">
<path d="M58.0611 31.2736H24.4154C23.9875 31.2736 23.5772 31.1037 23.2746 30.8011C22.9721 30.4986 22.8021 30.0882 22.8021 29.6604C22.8021 29.2325 22.9721 28.8221 23.2746 28.5196C23.5772 28.217 23.9875 28.0471 24.4154 28.0471H58.0611C58.4889 28.0471 58.8993 28.217 59.2018 28.5196C59.5044 28.8221 59.6744 29.2325 59.6744 29.6604C59.6744 30.0882 59.5044 30.4986 59.2018 30.8011C58.8993 31.1037 58.4889 31.2736 58.0611 31.2736ZM50.2427 45.3057H23.9715C23.5437 45.3057 23.1333 45.4757 22.8308 45.7782C22.5282 46.0808 22.3582 46.4911 22.3582 46.919C22.3582 47.3469 22.5282 47.7572 22.8308 48.0598C23.1333 48.3623 23.5437 48.5323 23.9715 48.5323H50.2427C50.6705 48.5323 51.0809 48.3623 51.3834 48.0598C51.686 47.7572 51.8559 47.3469 51.8559 46.919C51.8559 46.4911 51.686 46.0808 51.3834 45.7782C51.0809 45.4757 50.6705 45.3057 50.2427 45.3057ZM50.2427 62.5639H23.9715C23.5437 62.5639 23.1333 62.7339 22.8308 63.0364C22.5282 63.339 22.3582 63.7493 22.3582 64.1772C22.3582 64.6051 22.5282 65.0154 22.8308 65.318C23.1333 65.6205 23.5437 65.7905 23.9715 65.7905H50.2427C50.6705 65.7905 51.0809 65.6205 51.3834 65.318C51.686 65.0154 51.8559 64.6051 51.8559 64.1772C51.8559 63.7493 51.686 63.339 51.3834 63.0364C51.0809 62.7339 50.6705 62.5639 50.2427 62.5639ZM50.2427 79.8223H23.9715C23.5437 79.8223 23.1333 79.9923 22.8308 80.2949C22.5282 80.5974 22.3582 81.0078 22.3582 81.4356C22.3582 81.8635 22.5282 82.2738 22.8308 82.5764C23.1333 82.8789 23.5437 83.0489 23.9715 83.0489H50.2427C50.6705 83.0489 51.0809 82.8789 51.3834 82.5764C51.686 82.2738 51.8559 81.8635 51.8559 81.4356C51.8559 81.0078 51.686 80.5974 51.3834 80.2949C51.0809 79.9923 50.6705 79.8223 50.2427 79.8223ZM112.423 85.5771L112.147 85.8532C111.144 86.8567 109.823 87.3575 108.494 87.3575C107.797 87.3574 107.106 87.2196 106.462 86.952C105.817 86.6843 105.232 86.292 104.74 85.7977L91.2679 72.3257C89.5402 73.3536 87.6789 74.1382 85.7367 74.6573C84.6173 74.9571 83.4759 75.1678 82.3232 75.2874V96.4426C82.3232 96.8705 82.1532 97.2808 81.8507 97.5834C81.5481 97.8859 81.1378 98.0559 80.7099 98.0559H70.3455V108.359C70.3455 108.787 70.1756 109.197 69.873 109.5C69.5705 109.802 69.1601 109.972 68.7322 109.972H1.6875C1.25963 109.972 0.849287 109.802 0.546738 109.5C0.244189 109.197 0.0742188 108.787 0.0742188 108.359V13.5497C0.0742188 13.1218 0.244189 12.7115 0.546738 12.4089C0.849287 12.1064 1.25963 11.9364 1.6875 11.9364H11.9828V1.64111C11.9828 1.21324 12.1527 0.8029 12.4553 0.500351C12.7578 0.197802 13.1682 0.027832 13.5961 0.027832H62.3259C62.7537 0.027832 63.1641 0.197688 63.4665 0.500524L81.851 18.8852C82.1536 19.1877 82.3236 19.598 82.3237 20.0258V31.7074C91.0889 32.6256 98.8139 38.8187 101.228 47.827C102.815 53.7522 101.803 59.7716 98.896 64.6716C101.836 67.5328 104.771 70.5017 107.619 73.3833C109.176 74.9592 110.787 76.5886 112.368 78.1703C114.425 80.2273 114.45 83.5504 112.423 85.5771ZM63.939 18.4123H76.8152L63.939 5.5358V18.4123ZM67.1192 98.0559H13.5961C13.1682 98.0559 12.7578 97.8859 12.4553 97.5834C12.1527 97.2808 11.9828 96.8705 11.9828 96.4426V15.1629H3.30078V106.745H67.1192V98.0559ZM79.0969 94.8293V75.383C69.8085 74.9659 61.4372 68.6137 58.906 59.1668C55.7799 47.4986 62.729 35.4624 74.3969 32.3359C75.9327 31.9241 77.5087 31.6808 79.0971 31.6103V21.6389H62.3259C61.898 21.6389 61.4877 21.4689 61.1851 21.1664C60.8826 20.8638 60.7126 20.4535 60.7126 20.0256V3.25439H15.2093V94.8295H79.0969V94.8293ZM98.1108 48.6618C95.4452 38.7127 85.1817 32.7864 75.2319 35.4527C65.2824 38.1186 59.3568 48.3822 62.0228 58.3318C64.2563 66.6679 71.824 72.1791 80.0713 72.1795C81.6678 72.1795 83.2886 71.973 84.9022 71.5409C94.8513 68.8748 100.777 58.6114 98.1108 48.6618ZM93.9481 70.4434L99.8983 76.3939L102.995 73.2973C101.024 71.3084 99.0234 69.3049 97.0241 67.3524C96.104 68.4824 95.0736 69.5178 93.9481 70.4434ZM110.087 80.4513C108.498 78.8631 106.884 77.23 105.324 75.6511L105.264 75.5907L102.18 78.6751L107.021 83.5168C107.821 84.3163 109.097 84.3411 109.866 83.5723L110.141 83.2964C110.911 82.5267 110.886 81.2508 110.087 80.4513ZM84.0377 68.3171C82.7438 68.6646 81.4099 68.8409 80.0702 68.8414C73.2958 68.8419 67.0809 64.3148 65.2462 57.4676C64.1853 53.509 64.7299 49.3742 66.779 45.825C68.8283 42.2757 72.137 39.7369 76.0957 38.6761C80.0538 37.6157 84.1886 38.1596 87.7383 40.2087C91.2875 42.258 93.8264 45.5666 94.8872 49.5254C97.0769 57.6976 92.2096 66.1274 84.0377 68.3171ZM91.7704 50.3608C90.9326 47.2347 88.9278 44.6217 86.125 43.0033C84.2582 41.9254 82.1861 41.3751 80.087 41.3751C79.0342 41.3751 77.975 41.5134 76.9309 41.7931C73.8049 42.6307 71.1918 44.6357 69.5735 47.4385C67.9551 50.2412 67.5253 53.5065 68.363 56.6328C69.2006 59.7589 71.2056 62.3717 74.0084 63.9901C76.8111 65.6084 80.0768 66.0385 83.2029 65.2005C89.656 63.4713 93.4996 56.8142 91.7704 50.3608ZM86.6079 47.4966L78.3018 56.2613L73.2882 52.7033C72.939 52.4622 72.509 52.3684 72.0912 52.4421C71.6734 52.5158 71.3014 52.7512 71.0558 53.0971C70.8103 53.4431 70.7109 53.8719 70.7793 54.2907C70.8476 54.7094 71.0781 55.0843 71.4209 55.3343L77.576 59.7024C77.8485 59.8963 78.1746 60.0003 78.509 60.0002C78.7283 60.0004 78.9453 59.9558 79.1468 59.8692C79.3483 59.7825 79.5299 59.6557 79.6807 59.4964L88.9499 49.7155C89.0989 49.5624 89.216 49.3812 89.2945 49.1824C89.3729 48.9836 89.4111 48.7713 89.4067 48.5576C89.4024 48.344 89.3557 48.1333 89.2693 47.9379C89.1828 47.7425 89.0585 47.5662 88.9034 47.4192C88.7482 47.2722 88.5655 47.1575 88.3657 47.0818C88.1659 47.006 87.953 46.9707 87.7394 46.9779C87.5259 46.9851 87.3159 47.0347 87.1216 47.1237C86.9274 47.2127 86.7527 47.3395 86.6079 47.4966Z" fill="url(#paint0_linear_600_4908)"/>
<defs>
<linearGradient id="paint0_linear_600_4908" x1="57.0009" y1="0.027832" x2="56" y2="209.5" gradientUnits="userSpaceOnUse">
<stop stop-color="#1221A2"/>
<stop offset="1" stop-color="#172BDC" stop-opacity="0"/>
</linearGradient>
</defs>
</svg>
