<svg width="97" height="38" viewBox="0 0 97 38" fill="none" xmlns="http://www.w3.org/2000/svg">
<rect width="97" height="38" rx="4" fill="#3340B1"/>
<path d="M25 23.1667C25.2361 23.1667 25.4342 23.0867 25.5942 22.9267C25.7542 22.7667 25.8339 22.5689 25.8333 22.3333V19.8333H28.3333C28.5694 19.8333 28.7675 19.7533 28.9275 19.5933C29.0875 19.4333 29.1672 19.2356 29.1667 19C29.1667 18.7639 29.0867 18.5658 28.9267 18.4058C28.7667 18.2458 28.5689 18.1661 28.3333 18.1667H25.8333V15.6667C25.8333 15.4306 25.7533 15.2325 25.5933 15.0725C25.4333 14.9125 25.2356 14.8328 25 14.8333C24.7639 14.8333 24.5658 14.9133 24.4058 15.0733C24.2458 15.2333 24.1661 15.4311 24.1667 15.6667V18.1667H21.6667C21.4306 18.1667 21.2325 18.2467 21.0725 18.4067C20.9125 18.5667 20.8328 18.7644 20.8333 19C20.8333 19.2361 20.9133 19.4342 21.0733 19.5942C21.2333 19.7542 21.4311 19.8339 21.6667 19.8333H24.1667V22.3333C24.1667 22.5694 24.2467 22.7675 24.4067 22.9275C24.5667 23.0875 24.7644 23.1672 25 23.1667ZM19.1667 26.5C18.7083 26.5 18.3158 26.3367 17.9892 26.01C17.6625 25.6833 17.4994 25.2911 17.5 24.8333V13.1667C17.5 12.7083 17.6633 12.3158 17.99 11.9892C18.3167 11.6625 18.7089 11.4994 19.1667 11.5H30.8333C31.2917 11.5 31.6842 11.6633 32.0108 11.99C32.3375 12.3167 32.5006 12.7089 32.5 13.1667V24.8333C32.5 25.2917 32.3367 25.6842 32.01 26.0108C31.6833 26.3375 31.2911 26.5006 30.8333 26.5H19.1667ZM19.1667 24.8333H30.8333V13.1667H19.1667V24.8333Z" fill="white"/>
<path d="M57.6705 12.8636V24.5H56.0568L50.142 15.9659H50.0341V24.5H48.2784V12.8636H49.9034L55.8239 21.4091H55.9318V12.8636H57.6705ZM63.8565 24.6761C62.9967 24.6761 62.2562 24.4924 61.6349 24.125C61.0175 23.7538 60.5402 23.233 60.2031 22.5625C59.8698 21.8883 59.7031 21.0985 59.7031 20.1932C59.7031 19.2992 59.8698 18.5114 60.2031 17.8295C60.5402 17.1477 61.0099 16.6155 61.6122 16.233C62.2183 15.8504 62.9266 15.6591 63.7372 15.6591C64.2296 15.6591 64.7069 15.7405 65.169 15.9034C65.6312 16.0663 66.0459 16.322 66.4134 16.6705C66.7808 17.0189 67.0705 17.4716 67.2827 18.0284C67.4948 18.5814 67.6009 19.2538 67.6009 20.0455V20.6477H60.6634V19.375H65.9361C65.9361 18.928 65.8452 18.5322 65.6634 18.1875C65.4815 17.839 65.2259 17.5644 64.8963 17.3636C64.5705 17.1629 64.188 17.0625 63.7486 17.0625C63.2713 17.0625 62.8546 17.1799 62.4986 17.4148C62.1463 17.6458 61.8736 17.9489 61.6804 18.3239C61.491 18.6951 61.3963 19.0985 61.3963 19.5341V20.5284C61.3963 21.1117 61.4986 21.608 61.7031 22.017C61.9115 22.4261 62.2012 22.7386 62.5724 22.9545C62.9437 23.1667 63.3774 23.2727 63.8736 23.2727C64.1955 23.2727 64.4891 23.2273 64.7543 23.1364C65.0194 23.0417 65.2486 22.9015 65.4418 22.7159C65.6349 22.5303 65.7827 22.3011 65.8849 22.0284L67.4929 22.3182C67.3641 22.7917 67.133 23.2064 66.7997 23.5625C66.4702 23.9148 66.0554 24.1894 65.5554 24.3864C65.0592 24.5795 64.4929 24.6761 63.8565 24.6761ZM71.3622 24.5L68.794 15.7727H70.5497L72.2599 22.1818H72.3452L74.0611 15.7727H75.8168L77.5213 22.1534H77.6065L79.3054 15.7727H81.0611L78.4986 24.5H76.7656L74.9929 18.1989H74.8622L73.0895 24.5H71.3622Z" fill="white"/>
</svg>
