<svg width="22" height="22" viewBox="0 0 22 22" fill="none" xmlns="http://www.w3.org/2000/svg">
<circle cx="11" cy="11" r="10.5" stroke="#C93131" stroke-opacity="0.3"/>
<path d="M15.5996 8.57562C15.5996 8.68315 15.557 8.78693 15.4799 8.86729C15.4028 8.94765 15.2966 8.99899 15.1813 9.01157L15.1259 9.01464H14.7257L14.1426 14.5112C14.1108 14.8095 13.9605 15.0861 13.7209 15.2874C13.4813 15.4886 13.1694 15.6 12.8461 15.6H9.35314C9.02977 15.6 8.71796 15.4886 8.47834 15.2874C8.23871 15.0861 8.08841 14.8095 8.05666 14.5112L7.47356 9.01464H7.07329C6.94766 9.01464 6.82718 8.96839 6.73835 8.88605C6.64952 8.80372 6.59961 8.69205 6.59961 8.57562C6.59961 8.45918 6.64952 8.34751 6.73835 8.26518C6.82718 8.18285 6.94766 8.13659 7.07329 8.13659H9.44171C9.44171 7.9348 9.4846 7.73499 9.56791 7.54857C9.65123 7.36214 9.77335 7.19275 9.9273 7.05006C10.0813 6.90738 10.264 6.79419 10.4652 6.71697C10.6663 6.63975 10.8819 6.60001 11.0996 6.60001C11.3173 6.60001 11.5329 6.63975 11.7341 6.71697C11.9352 6.79419 12.118 6.90738 12.2719 7.05006C12.4259 7.19275 12.548 7.36214 12.6313 7.54857C12.7146 7.73499 12.7575 7.9348 12.7575 8.13659H15.1259C15.2516 8.13659 15.372 8.18285 15.4609 8.26518C15.5497 8.34751 15.5996 8.45918 15.5996 8.57562ZM12.1654 10.0024C12.0795 10.0024 11.9966 10.0313 11.9319 10.0836C11.8672 10.1359 11.8251 10.2081 11.8135 10.2869L11.8101 10.3317V13.4049L11.8135 13.4497C11.8252 13.5285 11.8672 13.6007 11.9319 13.653C11.9966 13.7053 12.0796 13.7341 12.1654 13.7341C12.2512 13.7341 12.3342 13.7053 12.3989 13.653C12.4636 13.6007 12.5056 13.5285 12.5173 13.4497L12.5207 13.4049V10.3317L12.5173 10.2869C12.5057 10.2081 12.4636 10.1359 12.3989 10.0836C12.3342 10.0313 12.2512 10.0024 12.1654 10.0024ZM10.0338 10.0024C9.94797 10.0024 9.86503 10.0313 9.80033 10.0836C9.73563 10.1359 9.69355 10.2081 9.68187 10.2869L9.67856 10.3317V13.4049L9.68187 13.4497C9.69357 13.5285 9.73566 13.6007 9.80036 13.653C9.86506 13.7053 9.94799 13.7341 10.0338 13.7341C10.1197 13.7341 10.2026 13.7053 10.2673 13.653C10.332 13.6007 10.3741 13.5285 10.3858 13.4497L10.3891 13.4049V10.3317L10.3858 10.2869C10.3741 10.2081 10.332 10.1359 10.2673 10.0836C10.2026 10.0313 10.1197 10.0024 10.0338 10.0024ZM11.0996 7.47805C10.9112 7.47805 10.7304 7.54744 10.5972 7.67094C10.4639 7.79444 10.3891 7.96194 10.3891 8.13659H11.8101C11.8101 7.96194 11.7353 7.79444 11.602 7.67094C11.4688 7.54744 11.2881 7.47805 11.0996 7.47805Z" fill="#C93131"/>
</svg>
