<svg width="210" height="205" viewBox="0 0 210 205" fill="none" xmlns="http://www.w3.org/2000/svg">
<g clip-path="url(#clip0_600_5868)">
<path d="M120.675 56.5616C118.763 47.2694 109.68 41.2866 100.387 43.1987C92.4306 44.8361 86.7088 51.8234 86.6723 59.9467C86.6723 60.3337 86.6882 60.73 86.7226 61.1492C81.062 61.7483 76.9589 66.8228 77.5581 72.4834C78.1135 77.7301 82.5413 81.7103 87.8174 81.7051H89.0198C88.9923 81.325 88.9626 80.9471 88.9626 80.5599C88.9626 72.3379 95.6278 65.6726 103.85 65.6726C112.072 65.6726 118.737 72.3379 118.737 80.5599C118.737 80.947 118.707 81.3249 118.68 81.7051H119.882C126.832 81.7241 132.481 76.1059 132.5 69.1563C132.518 62.488 127.331 56.9634 120.675 56.5616Z" fill="#E9EFFF"/>
<path d="M103.85 93.1567C110.807 93.1567 116.447 87.5169 116.447 80.5598C116.447 73.6027 110.807 67.9629 103.85 67.9629C96.8928 67.9629 91.2529 73.6027 91.2529 80.5598C91.2529 87.5169 96.8928 93.1567 103.85 93.1567Z" fill="#4CAF50"/>
<path d="M103.849 88.576C103.217 88.576 102.704 88.0633 102.704 87.4308V73.6887C102.704 73.0562 103.217 72.5435 103.849 72.5435C104.482 72.5435 104.995 73.0562 104.995 73.6887V87.4308C104.994 88.0633 104.482 88.576 103.849 88.576Z" fill="#FAFAFA"/>
<path d="M108.43 79.4147C108.126 79.4152 107.835 79.295 107.619 79.0803L103.849 75.3081L100.08 79.0803C99.6246 79.5197 98.8996 79.507 98.4602 79.0521C98.0315 78.6083 98.0315 77.9048 98.4602 77.461L103.041 72.8802C103.488 72.4332 104.213 72.4332 104.66 72.8802L109.241 77.461C109.688 77.9089 109.686 78.634 109.238 79.0805C109.024 79.2945 108.733 79.4146 108.43 79.4147Z" fill="#FAFAFA"/>
</g>
<path d="M54.7012 110.547H56.4102V117.198C56.4102 117.955 56.2461 118.588 55.918 119.099C55.5898 119.609 55.1432 119.994 54.5781 120.254C54.0176 120.509 53.391 120.637 52.6982 120.637C51.9827 120.637 51.3447 120.509 50.7842 120.254C50.2236 119.994 49.7816 119.609 49.458 119.099C49.139 118.588 48.9795 117.955 48.9795 117.198V110.547H50.6885V117.198C50.6885 117.677 50.7705 118.071 50.9346 118.381C51.0986 118.686 51.3311 118.912 51.6318 119.058C51.9326 119.203 52.2881 119.276 52.6982 119.276C53.1084 119.276 53.4616 119.203 53.7578 119.058C54.0586 118.912 54.291 118.686 54.4551 118.381C54.6191 118.071 54.7012 117.677 54.7012 117.198V110.547ZM59.7666 114.525V123.344H58.1191V113.104H59.6367L59.7666 114.525ZM64.5859 116.733V116.877C64.5859 117.415 64.5221 117.914 64.3945 118.374C64.2715 118.83 64.0869 119.229 63.8408 119.57C63.5993 119.908 63.3008 120.17 62.9453 120.356C62.5898 120.543 62.1797 120.637 61.7148 120.637C61.2546 120.637 60.8512 120.552 60.5049 120.384C60.1631 120.211 59.8737 119.967 59.6367 119.652C59.3997 119.338 59.2083 118.969 59.0625 118.545C58.9212 118.117 58.821 117.647 58.7617 117.137V116.583C58.821 116.041 58.9212 115.549 59.0625 115.106C59.2083 114.664 59.3997 114.284 59.6367 113.965C59.8737 113.646 60.1631 113.4 60.5049 113.227C60.8467 113.053 61.2454 112.967 61.7012 112.967C62.166 112.967 62.5785 113.058 62.9385 113.24C63.2985 113.418 63.6016 113.673 63.8477 114.006C64.0938 114.334 64.2783 114.73 64.4014 115.195C64.5244 115.656 64.5859 116.168 64.5859 116.733ZM62.9385 116.877V116.733C62.9385 116.392 62.9066 116.075 62.8428 115.783C62.779 115.487 62.6787 115.227 62.542 115.004C62.4053 114.781 62.2298 114.607 62.0156 114.484C61.806 114.357 61.5531 114.293 61.2568 114.293C60.9652 114.293 60.7145 114.343 60.5049 114.443C60.2952 114.539 60.1198 114.674 59.9785 114.847C59.8372 115.02 59.7279 115.223 59.6504 115.455C59.5729 115.683 59.5182 115.931 59.4863 116.2V117.526C59.541 117.854 59.6344 118.155 59.7666 118.429C59.8988 118.702 60.0856 118.921 60.3271 119.085C60.5732 119.244 60.8877 119.324 61.2705 119.324C61.5667 119.324 61.8197 119.26 62.0293 119.133C62.2389 119.005 62.4098 118.83 62.542 118.606C62.6787 118.379 62.779 118.117 62.8428 117.82C62.9066 117.524 62.9385 117.21 62.9385 116.877ZM67.751 110V120.5H66.0967V110H67.751ZM69.2412 116.884V116.727C69.2412 116.193 69.3187 115.699 69.4736 115.243C69.6286 114.783 69.8519 114.384 70.1436 114.047C70.4398 113.705 70.7998 113.441 71.2236 113.254C71.652 113.062 72.1351 112.967 72.6729 112.967C73.2152 112.967 73.6982 113.062 74.1221 113.254C74.5505 113.441 74.9128 113.705 75.209 114.047C75.5052 114.384 75.7308 114.783 75.8857 115.243C76.0407 115.699 76.1182 116.193 76.1182 116.727V116.884C76.1182 117.417 76.0407 117.911 75.8857 118.367C75.7308 118.823 75.5052 119.222 75.209 119.563C74.9128 119.901 74.5527 120.165 74.1289 120.356C73.7051 120.543 73.2243 120.637 72.6865 120.637C72.1442 120.637 71.6589 120.543 71.2305 120.356C70.8066 120.165 70.4466 119.901 70.1504 119.563C69.8542 119.222 69.6286 118.823 69.4736 118.367C69.3187 117.911 69.2412 117.417 69.2412 116.884ZM70.8887 116.727V116.884C70.8887 117.216 70.9229 117.531 70.9912 117.827C71.0596 118.123 71.1667 118.383 71.3125 118.606C71.4583 118.83 71.6452 119.005 71.873 119.133C72.1009 119.26 72.3721 119.324 72.6865 119.324C72.9919 119.324 73.2562 119.26 73.4795 119.133C73.7074 119.005 73.8942 118.83 74.04 118.606C74.1859 118.383 74.293 118.123 74.3613 117.827C74.4342 117.531 74.4707 117.216 74.4707 116.884V116.727C74.4707 116.398 74.4342 116.089 74.3613 115.797C74.293 115.501 74.1836 115.239 74.0332 115.011C73.8874 114.783 73.7005 114.605 73.4727 114.478C73.2493 114.345 72.9827 114.279 72.6729 114.279C72.363 114.279 72.0941 114.345 71.8662 114.478C71.6429 114.605 71.4583 114.783 71.3125 115.011C71.1667 115.239 71.0596 115.501 70.9912 115.797C70.9229 116.089 70.8887 116.398 70.8887 116.727ZM81.6689 119.017V115.489C81.6689 115.225 81.6211 114.997 81.5254 114.806C81.4297 114.614 81.2839 114.466 81.0879 114.361C80.8965 114.257 80.6549 114.204 80.3633 114.204C80.0944 114.204 79.862 114.25 79.666 114.341C79.4701 114.432 79.3174 114.555 79.208 114.71C79.0986 114.865 79.0439 115.04 79.0439 115.236H77.4033C77.4033 114.945 77.474 114.662 77.6152 114.389C77.7565 114.115 77.9616 113.871 78.2305 113.657C78.4993 113.443 78.8206 113.274 79.1943 113.151C79.568 113.028 79.9873 112.967 80.4521 112.967C81.0081 112.967 81.5003 113.06 81.9287 113.247C82.3617 113.434 82.7012 113.716 82.9473 114.095C83.1979 114.468 83.3232 114.938 83.3232 115.503V118.791C83.3232 119.128 83.346 119.431 83.3916 119.7C83.4417 119.965 83.5124 120.195 83.6035 120.391V120.5H81.915C81.8376 120.322 81.776 120.097 81.7305 119.823C81.6895 119.545 81.6689 119.276 81.6689 119.017ZM81.9082 116.002L81.9219 117.021H80.7393C80.4339 117.021 80.165 117.05 79.9326 117.109C79.7002 117.164 79.5065 117.246 79.3516 117.355C79.1966 117.465 79.0804 117.597 79.0029 117.752C78.9255 117.907 78.8867 118.082 78.8867 118.278C78.8867 118.474 78.9323 118.654 79.0234 118.818C79.1146 118.978 79.2467 119.103 79.4199 119.194C79.5977 119.285 79.8118 119.331 80.0625 119.331C80.3997 119.331 80.6937 119.263 80.9443 119.126C81.1995 118.985 81.4001 118.814 81.5459 118.613C81.6917 118.408 81.7692 118.215 81.7783 118.032L82.3115 118.764C82.2568 118.951 82.1634 119.151 82.0312 119.365C81.8991 119.579 81.7259 119.785 81.5117 119.98C81.3021 120.172 81.0492 120.329 80.7529 120.452C80.4613 120.575 80.124 120.637 79.7412 120.637C79.2581 120.637 78.8275 120.541 78.4492 120.35C78.071 120.154 77.7747 119.892 77.5605 119.563C77.3464 119.231 77.2393 118.855 77.2393 118.436C77.2393 118.044 77.3122 117.697 77.458 117.396C77.6084 117.091 77.8271 116.836 78.1143 116.631C78.4059 116.426 78.7614 116.271 79.1807 116.166C79.5999 116.057 80.0785 116.002 80.6162 116.002H81.9082ZM89.5576 118.969V110H91.2119V120.5H89.7148L89.5576 118.969ZM84.7451 116.884V116.74C84.7451 116.18 84.8112 115.669 84.9434 115.209C85.0755 114.744 85.2669 114.345 85.5176 114.013C85.7682 113.675 86.0736 113.418 86.4336 113.24C86.7936 113.058 87.1992 112.967 87.6504 112.967C88.097 112.967 88.4889 113.053 88.8262 113.227C89.1634 113.4 89.4505 113.648 89.6875 113.972C89.9245 114.291 90.1136 114.674 90.2549 115.12C90.3962 115.562 90.4964 116.054 90.5557 116.597V117.055C90.4964 117.583 90.3962 118.066 90.2549 118.504C90.1136 118.941 89.9245 119.32 89.6875 119.639C89.4505 119.958 89.1611 120.204 88.8193 120.377C88.4821 120.55 88.0879 120.637 87.6367 120.637C87.1901 120.637 86.7868 120.543 86.4268 120.356C86.0713 120.17 85.7682 119.908 85.5176 119.57C85.2669 119.233 85.0755 118.837 84.9434 118.381C84.8112 117.921 84.7451 117.422 84.7451 116.884ZM86.3926 116.74V116.884C86.3926 117.221 86.4222 117.535 86.4814 117.827C86.5452 118.119 86.6432 118.376 86.7754 118.6C86.9076 118.818 87.0785 118.992 87.2881 119.119C87.5023 119.242 87.7575 119.304 88.0537 119.304C88.4274 119.304 88.735 119.222 88.9766 119.058C89.2181 118.894 89.4072 118.673 89.5439 118.395C89.6852 118.112 89.7809 117.798 89.8311 117.451V116.214C89.8037 115.945 89.7467 115.694 89.6602 115.462C89.5781 115.229 89.4665 115.027 89.3252 114.854C89.1839 114.676 89.0085 114.539 88.7988 114.443C88.5938 114.343 88.3499 114.293 88.0674 114.293C87.7666 114.293 87.5114 114.357 87.3018 114.484C87.0921 114.612 86.9189 114.787 86.7822 115.011C86.6501 115.234 86.5521 115.494 86.4883 115.79C86.4245 116.086 86.3926 116.403 86.3926 116.74ZM100.352 110.547V120.5H98.6494V110.547H100.352ZM103.476 110.547V111.914H95.5527V110.547H103.476ZM106.251 110V120.5H104.61V110H106.251ZM105.964 116.528L105.431 116.521C105.435 116.011 105.506 115.539 105.643 115.106C105.784 114.674 105.98 114.298 106.23 113.979C106.486 113.655 106.791 113.407 107.146 113.233C107.502 113.056 107.896 112.967 108.329 112.967C108.694 112.967 109.022 113.017 109.313 113.117C109.61 113.217 109.865 113.379 110.079 113.603C110.293 113.821 110.455 114.108 110.564 114.464C110.678 114.815 110.735 115.243 110.735 115.749V120.5H109.081V115.735C109.081 115.38 109.029 115.097 108.924 114.888C108.824 114.678 108.675 114.528 108.479 114.437C108.284 114.341 108.044 114.293 107.762 114.293C107.465 114.293 107.203 114.352 106.976 114.471C106.752 114.589 106.565 114.751 106.415 114.956C106.265 115.161 106.151 115.398 106.073 115.667C106 115.936 105.964 116.223 105.964 116.528ZM116.854 118.757V113.104H118.508V120.5H116.949L116.854 118.757ZM117.086 117.219L117.64 117.205C117.64 117.702 117.585 118.16 117.476 118.579C117.366 118.994 117.198 119.356 116.97 119.666C116.742 119.971 116.45 120.211 116.095 120.384C115.739 120.552 115.313 120.637 114.816 120.637C114.456 120.637 114.126 120.584 113.825 120.479C113.524 120.375 113.265 120.213 113.046 119.994C112.832 119.775 112.665 119.491 112.547 119.14C112.428 118.789 112.369 118.369 112.369 117.882V113.104H114.017V117.896C114.017 118.164 114.049 118.39 114.112 118.572C114.176 118.75 114.263 118.894 114.372 119.003C114.481 119.112 114.609 119.19 114.755 119.235C114.901 119.281 115.056 119.304 115.22 119.304C115.689 119.304 116.058 119.213 116.327 119.03C116.601 118.843 116.794 118.593 116.908 118.278C117.027 117.964 117.086 117.611 117.086 117.219ZM121.844 114.607V120.5H120.196V113.104H121.748L121.844 114.607ZM121.577 116.528L121.017 116.521C121.017 116.011 121.08 115.539 121.208 115.106C121.336 114.674 121.522 114.298 121.769 113.979C122.015 113.655 122.32 113.407 122.685 113.233C123.054 113.056 123.48 112.967 123.963 112.967C124.3 112.967 124.608 113.017 124.886 113.117C125.168 113.213 125.412 113.366 125.617 113.575C125.827 113.785 125.986 114.054 126.096 114.382C126.21 114.71 126.267 115.106 126.267 115.571V120.5H124.619V115.715C124.619 115.355 124.564 115.072 124.455 114.867C124.35 114.662 124.198 114.516 123.997 114.43C123.801 114.339 123.566 114.293 123.293 114.293C122.983 114.293 122.719 114.352 122.5 114.471C122.286 114.589 122.11 114.751 121.974 114.956C121.837 115.161 121.737 115.398 121.673 115.667C121.609 115.936 121.577 116.223 121.577 116.528ZM126.164 116.091L125.392 116.262C125.392 115.815 125.453 115.394 125.576 114.997C125.704 114.596 125.888 114.245 126.13 113.944C126.376 113.639 126.679 113.4 127.039 113.227C127.399 113.053 127.812 112.967 128.276 112.967C128.655 112.967 128.992 113.019 129.288 113.124C129.589 113.224 129.844 113.384 130.054 113.603C130.263 113.821 130.423 114.106 130.532 114.457C130.642 114.803 130.696 115.223 130.696 115.715V120.5H129.042V115.708C129.042 115.334 128.987 115.045 128.878 114.84C128.773 114.635 128.623 114.493 128.427 114.416C128.231 114.334 127.996 114.293 127.723 114.293C127.467 114.293 127.242 114.341 127.046 114.437C126.854 114.528 126.693 114.658 126.561 114.826C126.428 114.99 126.328 115.179 126.26 115.394C126.196 115.608 126.164 115.84 126.164 116.091ZM132.398 110H134.046V118.921L133.889 120.5H132.398V110ZM138.872 116.733V116.877C138.872 117.424 138.811 117.927 138.688 118.388C138.569 118.843 138.387 119.24 138.141 119.577C137.899 119.914 137.598 120.176 137.238 120.363C136.883 120.546 136.47 120.637 136.001 120.637C135.541 120.637 135.14 120.55 134.798 120.377C134.456 120.204 134.169 119.958 133.937 119.639C133.709 119.32 133.524 118.939 133.383 118.497C133.242 118.055 133.141 117.567 133.082 117.034V116.576C133.141 116.038 133.242 115.551 133.383 115.113C133.524 114.671 133.709 114.291 133.937 113.972C134.169 113.648 134.454 113.4 134.791 113.227C135.133 113.053 135.532 112.967 135.987 112.967C136.461 112.967 136.878 113.058 137.238 113.24C137.603 113.423 137.906 113.682 138.147 114.02C138.389 114.352 138.569 114.749 138.688 115.209C138.811 115.669 138.872 116.177 138.872 116.733ZM137.225 116.877V116.733C137.225 116.401 137.197 116.089 137.143 115.797C137.088 115.501 136.997 115.241 136.869 115.018C136.746 114.794 136.577 114.619 136.363 114.491C136.154 114.359 135.892 114.293 135.577 114.293C135.285 114.293 135.035 114.343 134.825 114.443C134.616 114.544 134.44 114.68 134.299 114.854C134.158 115.027 134.046 115.227 133.964 115.455C133.886 115.683 133.834 115.929 133.807 116.193V117.431C133.848 117.772 133.934 118.087 134.066 118.374C134.203 118.657 134.395 118.884 134.641 119.058C134.887 119.226 135.203 119.311 135.591 119.311C135.896 119.311 136.154 119.249 136.363 119.126C136.573 119.003 136.739 118.832 136.862 118.613C136.99 118.39 137.081 118.13 137.136 117.834C137.195 117.538 137.225 117.219 137.225 116.877ZM141.9 114.683V120.5H140.253V113.104H141.805L141.9 114.683ZM141.606 116.528L141.073 116.521C141.078 115.997 141.151 115.517 141.292 115.079C141.438 114.642 141.638 114.266 141.894 113.951C142.153 113.637 142.463 113.395 142.823 113.227C143.183 113.053 143.584 112.967 144.026 112.967C144.382 112.967 144.703 113.017 144.99 113.117C145.282 113.213 145.53 113.37 145.735 113.589C145.945 113.808 146.104 114.092 146.214 114.443C146.323 114.79 146.378 115.216 146.378 115.722V120.5H144.724V115.715C144.724 115.359 144.671 115.079 144.566 114.874C144.466 114.664 144.318 114.516 144.122 114.43C143.931 114.339 143.691 114.293 143.404 114.293C143.122 114.293 142.869 114.352 142.646 114.471C142.422 114.589 142.233 114.751 142.078 114.956C141.928 115.161 141.812 115.398 141.729 115.667C141.647 115.936 141.606 116.223 141.606 116.528ZM152.229 119.017V115.489C152.229 115.225 152.182 114.997 152.086 114.806C151.99 114.614 151.844 114.466 151.648 114.361C151.457 114.257 151.215 114.204 150.924 114.204C150.655 114.204 150.423 114.25 150.227 114.341C150.031 114.432 149.878 114.555 149.769 114.71C149.659 114.865 149.604 115.04 149.604 115.236H147.964C147.964 114.945 148.035 114.662 148.176 114.389C148.317 114.115 148.522 113.871 148.791 113.657C149.06 113.443 149.381 113.274 149.755 113.151C150.129 113.028 150.548 112.967 151.013 112.967C151.569 112.967 152.061 113.06 152.489 113.247C152.922 113.434 153.262 113.716 153.508 114.095C153.758 114.468 153.884 114.938 153.884 115.503V118.791C153.884 119.128 153.907 119.431 153.952 119.7C154.002 119.965 154.073 120.195 154.164 120.391V120.5H152.476C152.398 120.322 152.337 120.097 152.291 119.823C152.25 119.545 152.229 119.276 152.229 119.017ZM152.469 116.002L152.482 117.021H151.3C150.994 117.021 150.726 117.05 150.493 117.109C150.261 117.164 150.067 117.246 149.912 117.355C149.757 117.465 149.641 117.597 149.563 117.752C149.486 117.907 149.447 118.082 149.447 118.278C149.447 118.474 149.493 118.654 149.584 118.818C149.675 118.978 149.807 119.103 149.98 119.194C150.158 119.285 150.372 119.331 150.623 119.331C150.96 119.331 151.254 119.263 151.505 119.126C151.76 118.985 151.961 118.814 152.106 118.613C152.252 118.408 152.33 118.215 152.339 118.032L152.872 118.764C152.817 118.951 152.724 119.151 152.592 119.365C152.46 119.579 152.286 119.785 152.072 119.98C151.863 120.172 151.61 120.329 151.313 120.452C151.022 120.575 150.685 120.637 150.302 120.637C149.819 120.637 149.388 120.541 149.01 120.35C148.632 120.154 148.335 119.892 148.121 119.563C147.907 119.231 147.8 118.855 147.8 118.436C147.8 118.044 147.873 117.697 148.019 117.396C148.169 117.091 148.388 116.836 148.675 116.631C148.966 116.426 149.322 116.271 149.741 116.166C150.16 116.057 150.639 116.002 151.177 116.002H152.469ZM157.37 113.104V120.5H155.716V113.104H157.37ZM155.606 111.162C155.606 110.911 155.688 110.704 155.853 110.54C156.021 110.371 156.254 110.287 156.55 110.287C156.841 110.287 157.072 110.371 157.24 110.54C157.409 110.704 157.493 110.911 157.493 111.162C157.493 111.408 157.409 111.613 157.24 111.777C157.072 111.941 156.841 112.023 156.55 112.023C156.254 112.023 156.021 111.941 155.853 111.777C155.688 111.613 155.606 111.408 155.606 111.162ZM160.938 110V120.5H159.284V110H160.938Z" fill="#474747"/>
<path d="M24.627 147.344C24.627 147.145 24.5957 146.969 24.5332 146.816C24.4746 146.66 24.3691 146.52 24.2168 146.395C24.0684 146.27 23.8613 146.15 23.5957 146.037C23.334 145.924 23.002 145.809 22.5996 145.691C22.1777 145.566 21.7969 145.428 21.457 145.275C21.1172 145.119 20.8262 144.941 20.584 144.742C20.3418 144.543 20.1562 144.314 20.0273 144.057C19.8984 143.799 19.834 143.504 19.834 143.172C19.834 142.84 19.9023 142.533 20.0391 142.252C20.1758 141.971 20.3711 141.727 20.625 141.52C20.8828 141.309 21.1895 141.145 21.5449 141.027C21.9004 140.91 22.2969 140.852 22.7344 140.852C23.375 140.852 23.918 140.975 24.3633 141.221C24.8125 141.463 25.1543 141.781 25.3887 142.176C25.623 142.566 25.7402 142.984 25.7402 143.43H24.6152C24.6152 143.109 24.5469 142.826 24.4102 142.58C24.2734 142.33 24.0664 142.135 23.7891 141.994C23.5117 141.85 23.1602 141.777 22.7344 141.777C22.332 141.777 22 141.838 21.7383 141.959C21.4766 142.08 21.2812 142.244 21.1523 142.451C21.0273 142.658 20.9648 142.895 20.9648 143.16C20.9648 143.34 21.002 143.504 21.0762 143.652C21.1543 143.797 21.2734 143.932 21.4336 144.057C21.5977 144.182 21.8047 144.297 22.0547 144.402C22.3086 144.508 22.6113 144.609 22.9629 144.707C23.4473 144.844 23.8652 144.996 24.2168 145.164C24.5684 145.332 24.8574 145.521 25.084 145.732C25.3145 145.939 25.4844 146.176 25.5938 146.441C25.707 146.703 25.7637 147 25.7637 147.332C25.7637 147.68 25.6934 147.994 25.5527 148.275C25.4121 148.557 25.2109 148.797 24.9492 148.996C24.6875 149.195 24.373 149.35 24.0059 149.459C23.6426 149.564 23.2363 149.617 22.7871 149.617C22.3926 149.617 22.0039 149.562 21.6211 149.453C21.2422 149.344 20.8965 149.18 20.584 148.961C20.2754 148.742 20.0273 148.473 19.8398 148.152C19.6562 147.828 19.5645 147.453 19.5645 147.027H20.6895C20.6895 147.32 20.7461 147.572 20.8594 147.783C20.9727 147.99 21.127 148.162 21.3223 148.299C21.5215 148.436 21.7461 148.537 21.9961 148.604C22.25 148.666 22.5137 148.697 22.7871 148.697C23.1816 148.697 23.5156 148.643 23.7891 148.533C24.0625 148.424 24.2695 148.268 24.4102 148.064C24.5547 147.861 24.627 147.621 24.627 147.344ZM30.9199 148.035V143.16H32.0098V149.5H30.9727L30.9199 148.035ZM31.125 146.699L31.5762 146.688C31.5762 147.109 31.5312 147.5 31.4414 147.859C31.3555 148.215 31.2148 148.523 31.0195 148.785C30.8242 149.047 30.5684 149.252 30.252 149.4C29.9355 149.545 29.5508 149.617 29.0977 149.617C28.7891 149.617 28.5059 149.572 28.248 149.482C27.9941 149.393 27.7754 149.254 27.5918 149.066C27.4082 148.879 27.2656 148.635 27.1641 148.334C27.0664 148.033 27.0176 147.672 27.0176 147.25V143.16H28.1016V147.262C28.1016 147.547 28.1328 147.783 28.1953 147.971C28.2617 148.154 28.3496 148.301 28.459 148.41C28.5723 148.516 28.6973 148.59 28.834 148.633C28.9746 148.676 29.1191 148.697 29.2676 148.697C29.7285 148.697 30.0938 148.609 30.3633 148.434C30.6328 148.254 30.8262 148.014 30.9434 147.713C31.0645 147.408 31.125 147.07 31.125 146.699ZM34.7461 144.379V151.938H33.6562V143.16H34.6523L34.7461 144.379ZM39.0176 146.277V146.4C39.0176 146.861 38.9629 147.289 38.8535 147.684C38.7441 148.074 38.584 148.414 38.373 148.703C38.166 148.992 37.9102 149.217 37.6055 149.377C37.3008 149.537 36.9512 149.617 36.5566 149.617C36.1543 149.617 35.7988 149.551 35.4902 149.418C35.1816 149.285 34.9199 149.092 34.7051 148.838C34.4902 148.584 34.3184 148.279 34.1895 147.924C34.0645 147.568 33.9785 147.168 33.9316 146.723V146.066C33.9785 145.598 34.0664 145.178 34.1953 144.807C34.3242 144.436 34.4941 144.119 34.7051 143.857C34.9199 143.592 35.1797 143.391 35.4844 143.254C35.7891 143.113 36.1406 143.043 36.5391 143.043C36.9375 143.043 37.291 143.121 37.5996 143.277C37.9082 143.43 38.168 143.648 38.3789 143.934C38.5898 144.219 38.748 144.561 38.8535 144.959C38.9629 145.354 39.0176 145.793 39.0176 146.277ZM37.9277 146.4V146.277C37.9277 145.961 37.8945 145.664 37.8281 145.387C37.7617 145.105 37.6582 144.859 37.5176 144.648C37.3809 144.434 37.2051 144.266 36.9902 144.145C36.7754 144.02 36.5195 143.957 36.2227 143.957C35.9492 143.957 35.7109 144.004 35.5078 144.098C35.3086 144.191 35.1387 144.318 34.998 144.479C34.8574 144.635 34.7422 144.814 34.6523 145.018C34.5664 145.217 34.502 145.424 34.459 145.639V147.156C34.5371 147.43 34.6465 147.688 34.7871 147.93C34.9277 148.168 35.1152 148.361 35.3496 148.51C35.584 148.654 35.8789 148.727 36.2344 148.727C36.5273 148.727 36.7793 148.666 36.9902 148.545C37.2051 148.42 37.3809 148.25 37.5176 148.035C37.6582 147.82 37.7617 147.574 37.8281 147.297C37.8945 147.016 37.9277 146.717 37.9277 146.4ZM41.4844 144.379V151.938H40.3945V143.16H41.3906L41.4844 144.379ZM45.7559 146.277V146.4C45.7559 146.861 45.7012 147.289 45.5918 147.684C45.4824 148.074 45.3223 148.414 45.1113 148.703C44.9043 148.992 44.6484 149.217 44.3438 149.377C44.0391 149.537 43.6895 149.617 43.2949 149.617C42.8926 149.617 42.5371 149.551 42.2285 149.418C41.9199 149.285 41.6582 149.092 41.4434 148.838C41.2285 148.584 41.0566 148.279 40.9277 147.924C40.8027 147.568 40.7168 147.168 40.6699 146.723V146.066C40.7168 145.598 40.8047 145.178 40.9336 144.807C41.0625 144.436 41.2324 144.119 41.4434 143.857C41.6582 143.592 41.918 143.391 42.2227 143.254C42.5273 143.113 42.8789 143.043 43.2773 143.043C43.6758 143.043 44.0293 143.121 44.3379 143.277C44.6465 143.43 44.9062 143.648 45.1172 143.934C45.3281 144.219 45.4863 144.561 45.5918 144.959C45.7012 145.354 45.7559 145.793 45.7559 146.277ZM44.666 146.4V146.277C44.666 145.961 44.6328 145.664 44.5664 145.387C44.5 145.105 44.3965 144.859 44.2559 144.648C44.1191 144.434 43.9434 144.266 43.7285 144.145C43.5137 144.02 43.2578 143.957 42.9609 143.957C42.6875 143.957 42.4492 144.004 42.2461 144.098C42.0469 144.191 41.877 144.318 41.7363 144.479C41.5957 144.635 41.4805 144.814 41.3906 145.018C41.3047 145.217 41.2402 145.424 41.1973 145.639V147.156C41.2754 147.43 41.3848 147.688 41.5254 147.93C41.666 148.168 41.8535 148.361 42.0879 148.51C42.3223 148.654 42.6172 148.727 42.9727 148.727C43.2656 148.727 43.5176 148.666 43.7285 148.545C43.9434 148.42 44.1191 148.25 44.2559 148.035C44.3965 147.82 44.5 147.574 44.5664 147.297C44.6328 147.016 44.666 146.717 44.666 146.4ZM46.8516 146.4V146.266C46.8516 145.809 46.918 145.385 47.0508 144.994C47.1836 144.6 47.375 144.258 47.625 143.969C47.875 143.676 48.1777 143.449 48.5332 143.289C48.8887 143.125 49.2871 143.043 49.7285 143.043C50.1738 143.043 50.5742 143.125 50.9297 143.289C51.2891 143.449 51.5938 143.676 51.8438 143.969C52.0977 144.258 52.291 144.6 52.4238 144.994C52.5566 145.385 52.623 145.809 52.623 146.266V146.4C52.623 146.857 52.5566 147.281 52.4238 147.672C52.291 148.062 52.0977 148.404 51.8438 148.697C51.5938 148.986 51.291 149.213 50.9355 149.377C50.584 149.537 50.1855 149.617 49.7402 149.617C49.2949 149.617 48.8945 149.537 48.5391 149.377C48.1836 149.213 47.8789 148.986 47.625 148.697C47.375 148.404 47.1836 148.062 47.0508 147.672C46.918 147.281 46.8516 146.857 46.8516 146.4ZM47.9355 146.266V146.4C47.9355 146.717 47.9727 147.016 48.0469 147.297C48.1211 147.574 48.2324 147.82 48.3809 148.035C48.5332 148.25 48.7227 148.42 48.9492 148.545C49.1758 148.666 49.4395 148.727 49.7402 148.727C50.0371 148.727 50.2969 148.666 50.5195 148.545C50.7461 148.42 50.9336 148.25 51.082 148.035C51.2305 147.82 51.3418 147.574 51.416 147.297C51.4941 147.016 51.5332 146.717 51.5332 146.4V146.266C51.5332 145.953 51.4941 145.658 51.416 145.381C51.3418 145.1 51.2285 144.852 51.0762 144.637C50.9277 144.418 50.7402 144.246 50.5137 144.121C50.291 143.996 50.0293 143.934 49.7285 143.934C49.4316 143.934 49.1699 143.996 48.9434 144.121C48.7207 144.246 48.5332 144.418 48.3809 144.637C48.2324 144.852 48.1211 145.1 48.0469 145.381C47.9727 145.658 47.9355 145.953 47.9355 146.266ZM55.0664 144.156V149.5H53.9824V143.16H55.0371L55.0664 144.156ZM57.0469 143.125L57.041 144.133C56.9512 144.113 56.8652 144.102 56.7832 144.098C56.7051 144.09 56.6152 144.086 56.5137 144.086C56.2637 144.086 56.043 144.125 55.8516 144.203C55.6602 144.281 55.498 144.391 55.3652 144.531C55.2324 144.672 55.127 144.84 55.0488 145.035C54.9746 145.227 54.9258 145.438 54.9023 145.668L54.5977 145.844C54.5977 145.461 54.6348 145.102 54.709 144.766C54.7871 144.43 54.9062 144.133 55.0664 143.875C55.2266 143.613 55.4297 143.41 55.6758 143.266C55.9258 143.117 56.2227 143.043 56.5664 143.043C56.6445 143.043 56.7344 143.053 56.8359 143.072C56.9375 143.088 57.0078 143.105 57.0469 143.125ZM60.9961 143.16V143.992H57.5684V143.16H60.9961ZM58.7285 141.619H59.8125V147.93C59.8125 148.145 59.8457 148.307 59.9121 148.416C59.9785 148.525 60.0645 148.598 60.1699 148.633C60.2754 148.668 60.3887 148.686 60.5098 148.686C60.5996 148.686 60.6934 148.678 60.791 148.662C60.8926 148.643 60.9688 148.627 61.0195 148.615L61.0254 149.5C60.9395 149.527 60.8262 149.553 60.6855 149.576C60.5488 149.604 60.3828 149.617 60.1875 149.617C59.9219 149.617 59.6777 149.564 59.4551 149.459C59.2324 149.354 59.0547 149.178 58.9219 148.932C58.793 148.682 58.7285 148.346 58.7285 147.924V141.619ZM64.8984 149.617C64.457 149.617 64.0566 149.543 63.6973 149.395C63.3418 149.242 63.0352 149.029 62.7773 148.756C62.5234 148.482 62.3281 148.158 62.1914 147.783C62.0547 147.408 61.9863 146.998 61.9863 146.553V146.307C61.9863 145.791 62.0625 145.332 62.2148 144.93C62.3672 144.523 62.5742 144.18 62.8359 143.898C63.0977 143.617 63.3945 143.404 63.7266 143.26C64.0586 143.115 64.4023 143.043 64.7578 143.043C65.2109 143.043 65.6016 143.121 65.9297 143.277C66.2617 143.434 66.5332 143.652 66.7441 143.934C66.9551 144.211 67.1113 144.539 67.2129 144.918C67.3145 145.293 67.3652 145.703 67.3652 146.148V146.635H62.6309V145.75H66.2812V145.668C66.2656 145.387 66.207 145.113 66.1055 144.848C66.0078 144.582 65.8516 144.363 65.6367 144.191C65.4219 144.02 65.1289 143.934 64.7578 143.934C64.5117 143.934 64.2852 143.986 64.0781 144.092C63.8711 144.193 63.6934 144.346 63.5449 144.549C63.3965 144.752 63.2812 145 63.1992 145.293C63.1172 145.586 63.0762 145.924 63.0762 146.307V146.553C63.0762 146.854 63.1172 147.137 63.1992 147.402C63.2852 147.664 63.4082 147.895 63.5684 148.094C63.7324 148.293 63.9297 148.449 64.1602 148.562C64.3945 148.676 64.6602 148.732 64.957 148.732C65.3398 148.732 65.6641 148.654 65.9297 148.498C66.1953 148.342 66.4277 148.133 66.627 147.871L67.2832 148.393C67.1465 148.6 66.9727 148.797 66.7617 148.984C66.5508 149.172 66.291 149.324 65.9824 149.441C65.6777 149.559 65.3164 149.617 64.8984 149.617ZM72.627 148.27V140.5H73.7168V149.5H72.7207L72.627 148.27ZM68.3613 146.4V146.277C68.3613 145.793 68.4199 145.354 68.5371 144.959C68.6582 144.561 68.8281 144.219 69.0469 143.934C69.2695 143.648 69.5332 143.43 69.8379 143.277C70.1465 143.121 70.4902 143.043 70.8691 143.043C71.2676 143.043 71.6152 143.113 71.9121 143.254C72.2129 143.391 72.4668 143.592 72.6738 143.857C72.8848 144.119 73.0508 144.436 73.1719 144.807C73.293 145.178 73.377 145.598 73.4238 146.066V146.605C73.3809 147.07 73.2969 147.488 73.1719 147.859C73.0508 148.23 72.8848 148.547 72.6738 148.809C72.4668 149.07 72.2129 149.271 71.9121 149.412C71.6113 149.549 71.2598 149.617 70.8574 149.617C70.4863 149.617 70.1465 149.537 69.8379 149.377C69.5332 149.217 69.2695 148.992 69.0469 148.703C68.8281 148.414 68.6582 148.074 68.5371 147.684C68.4199 147.289 68.3613 146.861 68.3613 146.4ZM69.4512 146.277V146.4C69.4512 146.717 69.4824 147.014 69.5449 147.291C69.6113 147.568 69.7129 147.812 69.8496 148.023C69.9863 148.234 70.1602 148.4 70.3711 148.521C70.582 148.639 70.834 148.697 71.127 148.697C71.4863 148.697 71.7812 148.621 72.0117 148.469C72.2461 148.316 72.4336 148.115 72.5742 147.865C72.7148 147.615 72.8242 147.344 72.9023 147.051V145.639C72.8555 145.424 72.7871 145.217 72.6973 145.018C72.6113 144.814 72.498 144.635 72.3574 144.479C72.2207 144.318 72.0508 144.191 71.8477 144.098C71.6484 144.004 71.4121 143.957 71.1387 143.957C70.8418 143.957 70.5859 144.02 70.3711 144.145C70.1602 144.266 69.9863 144.434 69.8496 144.648C69.7129 144.859 69.6113 145.105 69.5449 145.387C69.4824 145.664 69.4512 145.961 69.4512 146.277ZM79.998 149.5H78.9141V142.492C78.9141 142.035 78.9961 141.65 79.1602 141.338C79.3281 141.021 79.5684 140.783 79.8809 140.623C80.1934 140.459 80.5645 140.377 80.9941 140.377C81.1191 140.377 81.2441 140.385 81.3691 140.4C81.498 140.416 81.623 140.439 81.7441 140.471L81.6855 141.355C81.6035 141.336 81.5098 141.322 81.4043 141.314C81.3027 141.307 81.2012 141.303 81.0996 141.303C80.8691 141.303 80.6699 141.35 80.502 141.443C80.3379 141.533 80.2129 141.666 80.127 141.842C80.041 142.018 79.998 142.234 79.998 142.492V149.5ZM81.3457 143.16V143.992H77.9121V143.16H81.3457ZM82.2656 146.4V146.266C82.2656 145.809 82.332 145.385 82.4648 144.994C82.5977 144.6 82.7891 144.258 83.0391 143.969C83.2891 143.676 83.5918 143.449 83.9473 143.289C84.3027 143.125 84.7012 143.043 85.1426 143.043C85.5879 143.043 85.9883 143.125 86.3438 143.289C86.7031 143.449 87.0078 143.676 87.2578 143.969C87.5117 144.258 87.7051 144.6 87.8379 144.994C87.9707 145.385 88.0371 145.809 88.0371 146.266V146.4C88.0371 146.857 87.9707 147.281 87.8379 147.672C87.7051 148.062 87.5117 148.404 87.2578 148.697C87.0078 148.986 86.7051 149.213 86.3496 149.377C85.998 149.537 85.5996 149.617 85.1543 149.617C84.709 149.617 84.3086 149.537 83.9531 149.377C83.5977 149.213 83.293 148.986 83.0391 148.697C82.7891 148.404 82.5977 148.062 82.4648 147.672C82.332 147.281 82.2656 146.857 82.2656 146.4ZM83.3496 146.266V146.4C83.3496 146.717 83.3867 147.016 83.4609 147.297C83.5352 147.574 83.6465 147.82 83.7949 148.035C83.9473 148.25 84.1367 148.42 84.3633 148.545C84.5898 148.666 84.8535 148.727 85.1543 148.727C85.4512 148.727 85.7109 148.666 85.9336 148.545C86.1602 148.42 86.3477 148.25 86.4961 148.035C86.6445 147.82 86.7559 147.574 86.8301 147.297C86.9082 147.016 86.9473 146.717 86.9473 146.4V146.266C86.9473 145.953 86.9082 145.658 86.8301 145.381C86.7559 145.1 86.6426 144.852 86.4902 144.637C86.3418 144.418 86.1543 144.246 85.9277 144.121C85.7051 143.996 85.4434 143.934 85.1426 143.934C84.8457 143.934 84.584 143.996 84.3574 144.121C84.1348 144.246 83.9473 144.418 83.7949 144.637C83.6465 144.852 83.5352 145.1 83.4609 145.381C83.3867 145.658 83.3496 145.953 83.3496 146.266ZM90.4805 144.156V149.5H89.3965V143.16H90.4512L90.4805 144.156ZM92.4609 143.125L92.4551 144.133C92.3652 144.113 92.2793 144.102 92.1973 144.098C92.1191 144.09 92.0293 144.086 91.9277 144.086C91.6777 144.086 91.457 144.125 91.2656 144.203C91.0742 144.281 90.9121 144.391 90.7793 144.531C90.6465 144.672 90.541 144.84 90.4629 145.035C90.3887 145.227 90.3398 145.438 90.3164 145.668L90.0117 145.844C90.0117 145.461 90.0488 145.102 90.123 144.766C90.2012 144.43 90.3203 144.133 90.4805 143.875C90.6406 143.613 90.8438 143.41 91.0898 143.266C91.3398 143.117 91.6367 143.043 91.9805 143.043C92.0586 143.043 92.1484 143.053 92.25 143.072C92.3516 143.088 92.4219 143.105 92.4609 143.125ZM94.541 144.42V149.5H93.4512V143.16H94.4824L94.541 144.42ZM94.3184 146.09L93.8145 146.072C93.8184 145.639 93.875 145.238 93.9844 144.871C94.0938 144.5 94.2559 144.178 94.4707 143.904C94.6855 143.631 94.9531 143.42 95.2734 143.271C95.5938 143.119 95.9648 143.043 96.3867 143.043C96.6836 143.043 96.957 143.086 97.207 143.172C97.457 143.254 97.6738 143.385 97.8574 143.564C98.041 143.744 98.1836 143.975 98.2852 144.256C98.3867 144.537 98.4375 144.877 98.4375 145.275V149.5H97.3535V145.328C97.3535 144.996 97.2969 144.73 97.1836 144.531C97.0742 144.332 96.918 144.188 96.7148 144.098C96.5117 144.004 96.2734 143.957 96 143.957C95.6797 143.957 95.4121 144.014 95.1973 144.127C94.9824 144.24 94.8105 144.396 94.6816 144.596C94.5527 144.795 94.459 145.023 94.4004 145.281C94.3457 145.535 94.3184 145.805 94.3184 146.09ZM98.4258 145.492L97.6992 145.715C97.7031 145.367 97.7598 145.033 97.8691 144.713C97.9824 144.393 98.1445 144.107 98.3555 143.857C98.5703 143.607 98.834 143.41 99.1465 143.266C99.459 143.117 99.8164 143.043 100.219 143.043C100.559 143.043 100.859 143.088 101.121 143.178C101.387 143.268 101.609 143.406 101.789 143.594C101.973 143.777 102.111 144.014 102.205 144.303C102.299 144.592 102.346 144.936 102.346 145.334V149.5H101.256V145.322C101.256 144.967 101.199 144.691 101.086 144.496C100.977 144.297 100.82 144.158 100.617 144.08C100.418 143.998 100.18 143.957 99.9023 143.957C99.6641 143.957 99.4531 143.998 99.2695 144.08C99.0859 144.162 98.9316 144.275 98.8066 144.42C98.6816 144.561 98.5859 144.723 98.5195 144.906C98.457 145.09 98.4258 145.285 98.4258 145.492ZM107.725 148.416V145.152C107.725 144.902 107.674 144.686 107.572 144.502C107.475 144.314 107.326 144.17 107.127 144.068C106.928 143.967 106.682 143.916 106.389 143.916C106.115 143.916 105.875 143.963 105.668 144.057C105.465 144.15 105.305 144.273 105.188 144.426C105.074 144.578 105.018 144.742 105.018 144.918H103.934C103.934 144.691 103.992 144.467 104.109 144.244C104.227 144.021 104.395 143.82 104.613 143.641C104.836 143.457 105.102 143.312 105.41 143.207C105.723 143.098 106.07 143.043 106.453 143.043C106.914 143.043 107.32 143.121 107.672 143.277C108.027 143.434 108.305 143.67 108.504 143.986C108.707 144.299 108.809 144.691 108.809 145.164V148.117C108.809 148.328 108.826 148.553 108.861 148.791C108.9 149.029 108.957 149.234 109.031 149.406V149.5H107.9C107.846 149.375 107.803 149.209 107.771 149.002C107.74 148.791 107.725 148.596 107.725 148.416ZM107.912 145.656L107.924 146.418H106.828C106.52 146.418 106.244 146.443 106.002 146.494C105.76 146.541 105.557 146.613 105.393 146.711C105.229 146.809 105.104 146.932 105.018 147.08C104.932 147.225 104.889 147.395 104.889 147.59C104.889 147.789 104.934 147.971 105.023 148.135C105.113 148.299 105.248 148.43 105.428 148.527C105.611 148.621 105.836 148.668 106.102 148.668C106.434 148.668 106.727 148.598 106.98 148.457C107.234 148.316 107.436 148.145 107.584 147.941C107.736 147.738 107.818 147.541 107.83 147.35L108.293 147.871C108.266 148.035 108.191 148.217 108.07 148.416C107.949 148.615 107.787 148.807 107.584 148.99C107.385 149.17 107.146 149.32 106.869 149.441C106.596 149.559 106.287 149.617 105.943 149.617C105.514 149.617 105.137 149.533 104.812 149.365C104.492 149.197 104.242 148.973 104.062 148.691C103.887 148.406 103.799 148.088 103.799 147.736C103.799 147.396 103.865 147.098 103.998 146.84C104.131 146.578 104.322 146.361 104.572 146.189C104.822 146.014 105.123 145.881 105.475 145.791C105.826 145.701 106.219 145.656 106.652 145.656H107.912ZM113.168 143.16V143.992H109.74V143.16H113.168ZM110.9 141.619H111.984V147.93C111.984 148.145 112.018 148.307 112.084 148.416C112.15 148.525 112.236 148.598 112.342 148.633C112.447 148.668 112.561 148.686 112.682 148.686C112.771 148.686 112.865 148.678 112.963 148.662C113.064 148.643 113.141 148.627 113.191 148.615L113.197 149.5C113.111 149.527 112.998 149.553 112.857 149.576C112.721 149.604 112.555 149.617 112.359 149.617C112.094 149.617 111.85 149.564 111.627 149.459C111.404 149.354 111.227 149.178 111.094 148.932C110.965 148.682 110.9 148.346 110.9 147.924V141.619ZM117.07 149.617C116.629 149.617 116.229 149.543 115.869 149.395C115.514 149.242 115.207 149.029 114.949 148.756C114.695 148.482 114.5 148.158 114.363 147.783C114.227 147.408 114.158 146.998 114.158 146.553V146.307C114.158 145.791 114.234 145.332 114.387 144.93C114.539 144.523 114.746 144.18 115.008 143.898C115.27 143.617 115.566 143.404 115.898 143.26C116.23 143.115 116.574 143.043 116.93 143.043C117.383 143.043 117.773 143.121 118.102 143.277C118.434 143.434 118.705 143.652 118.916 143.934C119.127 144.211 119.283 144.539 119.385 144.918C119.486 145.293 119.537 145.703 119.537 146.148V146.635H114.803V145.75H118.453V145.668C118.438 145.387 118.379 145.113 118.277 144.848C118.18 144.582 118.023 144.363 117.809 144.191C117.594 144.02 117.301 143.934 116.93 143.934C116.684 143.934 116.457 143.986 116.25 144.092C116.043 144.193 115.865 144.346 115.717 144.549C115.568 144.752 115.453 145 115.371 145.293C115.289 145.586 115.248 145.924 115.248 146.307V146.553C115.248 146.854 115.289 147.137 115.371 147.402C115.457 147.664 115.58 147.895 115.74 148.094C115.904 148.293 116.102 148.449 116.332 148.562C116.566 148.676 116.832 148.732 117.129 148.732C117.512 148.732 117.836 148.654 118.102 148.498C118.367 148.342 118.6 148.133 118.799 147.871L119.455 148.393C119.318 148.6 119.145 148.797 118.934 148.984C118.723 149.172 118.463 149.324 118.154 149.441C117.85 149.559 117.488 149.617 117.07 149.617ZM124.494 147.818C124.494 147.662 124.459 147.518 124.389 147.385C124.322 147.248 124.184 147.125 123.973 147.016C123.766 146.902 123.453 146.805 123.035 146.723C122.684 146.648 122.365 146.561 122.08 146.459C121.799 146.357 121.559 146.234 121.359 146.09C121.164 145.945 121.014 145.775 120.908 145.58C120.803 145.385 120.75 145.156 120.75 144.895C120.75 144.645 120.805 144.408 120.914 144.186C121.027 143.963 121.186 143.766 121.389 143.594C121.596 143.422 121.844 143.287 122.133 143.189C122.422 143.092 122.744 143.043 123.1 143.043C123.607 143.043 124.041 143.133 124.4 143.312C124.76 143.492 125.035 143.732 125.227 144.033C125.418 144.33 125.514 144.66 125.514 145.023H124.43C124.43 144.848 124.377 144.678 124.271 144.514C124.17 144.346 124.02 144.207 123.82 144.098C123.625 143.988 123.385 143.934 123.1 143.934C122.799 143.934 122.555 143.98 122.367 144.074C122.184 144.164 122.049 144.279 121.963 144.42C121.881 144.561 121.84 144.709 121.84 144.865C121.84 144.982 121.859 145.088 121.898 145.182C121.941 145.271 122.016 145.355 122.121 145.434C122.227 145.508 122.375 145.578 122.566 145.645C122.758 145.711 123.002 145.777 123.299 145.844C123.818 145.961 124.246 146.102 124.582 146.266C124.918 146.43 125.168 146.631 125.332 146.869C125.496 147.107 125.578 147.396 125.578 147.736C125.578 148.014 125.52 148.268 125.402 148.498C125.289 148.729 125.123 148.928 124.904 149.096C124.689 149.26 124.432 149.389 124.131 149.482C123.834 149.572 123.5 149.617 123.129 149.617C122.57 149.617 122.098 149.518 121.711 149.318C121.324 149.119 121.031 148.861 120.832 148.545C120.633 148.229 120.533 147.895 120.533 147.543H121.623C121.639 147.84 121.725 148.076 121.881 148.252C122.037 148.424 122.229 148.547 122.455 148.621C122.682 148.691 122.906 148.727 123.129 148.727C123.426 148.727 123.674 148.688 123.873 148.609C124.076 148.531 124.23 148.424 124.336 148.287C124.441 148.15 124.494 147.994 124.494 147.818ZM126.955 148.926C126.955 148.742 127.012 148.588 127.125 148.463C127.242 148.334 127.41 148.27 127.629 148.27C127.848 148.27 128.014 148.334 128.127 148.463C128.244 148.588 128.303 148.742 128.303 148.926C128.303 149.105 128.244 149.258 128.127 149.383C128.014 149.508 127.848 149.57 127.629 149.57C127.41 149.57 127.242 149.508 127.125 149.383C127.012 149.258 126.955 149.105 126.955 148.926ZM126.961 143.752C126.961 143.568 127.018 143.414 127.131 143.289C127.248 143.16 127.416 143.096 127.635 143.096C127.854 143.096 128.02 143.16 128.133 143.289C128.25 143.414 128.309 143.568 128.309 143.752C128.309 143.932 128.25 144.084 128.133 144.209C128.02 144.334 127.854 144.396 127.635 144.396C127.416 144.396 127.248 144.334 127.131 144.209C127.018 144.084 126.961 143.932 126.961 143.752ZM136.629 147.01V140.969H137.754V147.01C137.754 147.572 137.639 148.047 137.408 148.434C137.178 148.82 136.859 149.115 136.453 149.318C136.051 149.518 135.588 149.617 135.064 149.617C134.541 149.617 134.076 149.527 133.67 149.348C133.264 149.168 132.945 148.895 132.715 148.527C132.484 148.16 132.369 147.697 132.369 147.139H133.5C133.5 147.498 133.566 147.793 133.699 148.023C133.832 148.254 134.016 148.424 134.25 148.533C134.488 148.643 134.76 148.697 135.064 148.697C135.361 148.697 135.627 148.635 135.861 148.51C136.1 148.381 136.287 148.191 136.424 147.941C136.561 147.688 136.629 147.377 136.629 147.01ZM142.816 146.154H140.537V145.234H142.816C143.258 145.234 143.615 145.164 143.889 145.023C144.162 144.883 144.361 144.688 144.486 144.438C144.615 144.188 144.68 143.902 144.68 143.582C144.68 143.289 144.615 143.014 144.486 142.756C144.361 142.498 144.162 142.291 143.889 142.135C143.615 141.975 143.258 141.895 142.816 141.895H140.801V149.5H139.67V140.969H142.816C143.461 140.969 144.006 141.08 144.451 141.303C144.896 141.525 145.234 141.834 145.465 142.229C145.695 142.619 145.811 143.066 145.811 143.57C145.811 144.117 145.695 144.584 145.465 144.971C145.234 145.357 144.896 145.652 144.451 145.855C144.006 146.055 143.461 146.154 142.816 146.154ZM152.66 148.58V149.5H148.143V148.58H152.66ZM148.371 140.969V149.5H147.24V140.969H148.371ZM152.062 144.637V145.557H148.143V144.637H152.062ZM152.602 140.969V141.895H148.143V140.969H152.602ZM160.365 145.252V148.375C160.26 148.531 160.092 148.707 159.861 148.902C159.631 149.094 159.312 149.262 158.906 149.406C158.504 149.547 157.984 149.617 157.348 149.617C156.828 149.617 156.35 149.527 155.912 149.348C155.479 149.164 155.102 148.898 154.781 148.551C154.465 148.199 154.219 147.773 154.043 147.273C153.871 146.77 153.785 146.199 153.785 145.562V144.9C153.785 144.264 153.859 143.695 154.008 143.195C154.16 142.695 154.383 142.271 154.676 141.924C154.969 141.572 155.328 141.307 155.754 141.127C156.18 140.943 156.668 140.852 157.219 140.852C157.871 140.852 158.416 140.965 158.854 141.191C159.295 141.414 159.639 141.723 159.885 142.117C160.135 142.512 160.295 142.961 160.365 143.465H159.234C159.184 143.156 159.082 142.875 158.93 142.621C158.781 142.367 158.568 142.164 158.291 142.012C158.014 141.855 157.656 141.777 157.219 141.777C156.824 141.777 156.482 141.85 156.193 141.994C155.904 142.139 155.666 142.346 155.479 142.615C155.291 142.885 155.15 143.211 155.057 143.594C154.967 143.977 154.922 144.408 154.922 144.889V145.562C154.922 146.055 154.979 146.494 155.092 146.881C155.209 147.268 155.375 147.598 155.59 147.871C155.805 148.141 156.061 148.346 156.357 148.486C156.658 148.627 156.99 148.697 157.354 148.697C157.756 148.697 158.082 148.664 158.332 148.598C158.582 148.527 158.777 148.445 158.918 148.352C159.059 148.254 159.166 148.162 159.24 148.076V146.166H157.266V145.252H160.365ZM163.061 148.211V149.084C163.061 149.439 162.971 149.814 162.791 150.209C162.611 150.607 162.359 150.939 162.035 151.205L161.42 150.777C161.545 150.605 161.65 150.43 161.736 150.25C161.822 150.074 161.887 149.891 161.93 149.699C161.977 149.512 162 149.312 162 149.102V148.211H163.061ZM170.73 146.154H168.451V145.234H170.73C171.172 145.234 171.529 145.164 171.803 145.023C172.076 144.883 172.275 144.688 172.4 144.438C172.529 144.188 172.594 143.902 172.594 143.582C172.594 143.289 172.529 143.014 172.4 142.756C172.275 142.498 172.076 142.291 171.803 142.135C171.529 141.975 171.172 141.895 170.73 141.895H168.715V149.5H167.584V140.969H170.73C171.375 140.969 171.92 141.08 172.365 141.303C172.811 141.525 173.148 141.834 173.379 142.229C173.609 142.619 173.725 143.066 173.725 143.57C173.725 144.117 173.609 144.584 173.379 144.971C173.148 145.357 172.811 145.652 172.365 145.855C171.92 146.055 171.375 146.154 170.73 146.154ZM181.717 140.969V149.5H180.58L176.285 142.92V149.5H175.154V140.969H176.285L180.598 147.566V140.969H181.717ZM190.025 145.252V148.375C189.92 148.531 189.752 148.707 189.521 148.902C189.291 149.094 188.973 149.262 188.566 149.406C188.164 149.547 187.645 149.617 187.008 149.617C186.488 149.617 186.01 149.527 185.572 149.348C185.139 149.164 184.762 148.898 184.441 148.551C184.125 148.199 183.879 147.773 183.703 147.273C183.531 146.77 183.445 146.199 183.445 145.562V144.9C183.445 144.264 183.52 143.695 183.668 143.195C183.82 142.695 184.043 142.271 184.336 141.924C184.629 141.572 184.988 141.307 185.414 141.127C185.84 140.943 186.328 140.852 186.879 140.852C187.531 140.852 188.076 140.965 188.514 141.191C188.955 141.414 189.299 141.723 189.545 142.117C189.795 142.512 189.955 142.961 190.025 143.465H188.895C188.844 143.156 188.742 142.875 188.59 142.621C188.441 142.367 188.229 142.164 187.951 142.012C187.674 141.855 187.316 141.777 186.879 141.777C186.484 141.777 186.143 141.85 185.854 141.994C185.564 142.139 185.326 142.346 185.139 142.615C184.951 142.885 184.811 143.211 184.717 143.594C184.627 143.977 184.582 144.408 184.582 144.889V145.562C184.582 146.055 184.639 146.494 184.752 146.881C184.869 147.268 185.035 147.598 185.25 147.871C185.465 148.141 185.721 148.346 186.018 148.486C186.318 148.627 186.65 148.697 187.014 148.697C187.416 148.697 187.742 148.664 187.992 148.598C188.242 148.527 188.438 148.445 188.578 148.352C188.719 148.254 188.826 148.162 188.9 148.076V146.166H186.926V145.252H190.025Z" fill="#8F8F8F"/>
<rect x="0.5" y="0.5" width="209" height="204" rx="3.5" stroke="#8F8F8F" stroke-dasharray="5 5"/>
<defs>
<clipPath id="clip0_600_5868">
<rect width="55" height="55" fill="white" transform="translate(77.5 40.5)"/>
</clipPath>
</defs>
</svg>
