<svg width="390" height="125" viewBox="0 0 390 125" fill="none" xmlns="http://www.w3.org/2000/svg">
<rect x="0.5" y="0.5" width="389" height="124" rx="6.5" fill="white"/>
<line y1="84.5" x2="390" y2="84.5" stroke="#E2E2E2"/>
<path d="M141.583 109.583V111.417H154.416V109.583H141.583ZM145.708 105.733H150.291L151.116 107.75H153.041L148.687 97.6665H147.312L142.958 107.75H144.883L145.708 105.733ZM148 99.4815L149.714 104.083H146.286L148 99.4815Z" fill="black" fill-opacity="0.54"/>
<g clip-path="url(#clip0_600_5980)">
<path d="M183.125 99.4998V110.042C183.125 112.067 181.484 113.708 179.459 113.708C177.433 113.708 175.792 112.067 175.792 110.042V98.5832C175.792 97.3182 176.819 96.2915 178.084 96.2915C179.349 96.2915 180.375 97.3182 180.375 98.5832V108.208C180.375 108.712 179.963 109.125 179.459 109.125C178.954 109.125 178.542 108.712 178.542 108.208V99.4998H177.167V108.208C177.167 109.473 178.194 110.5 179.459 110.5C180.724 110.5 181.75 109.473 181.75 108.208V98.5832C181.75 96.5573 180.109 94.9165 178.084 94.9165C176.058 94.9165 174.417 96.5573 174.417 98.5832V110.042C174.417 112.828 176.672 115.083 179.459 115.083C182.245 115.083 184.5 112.828 184.5 110.042V99.4998H183.125Z" fill="black" fill-opacity="0.54"/>
</g>
<path d="M202.575 105C202.575 103.432 203.849 102.158 205.416 102.158H209.083V100.417H205.416C202.886 100.417 200.833 102.47 200.833 105C200.833 107.53 202.886 109.583 205.416 109.583H209.083V107.842H205.416C203.849 107.842 202.575 106.567 202.575 105ZM206.333 105.917H213.666V104.083H206.333V105.917ZM214.583 100.417H210.916V102.158H214.583C216.151 102.158 217.425 103.432 217.425 105C217.425 106.567 216.151 107.842 214.583 107.842H210.916V109.583H214.583C217.113 109.583 219.166 107.53 219.166 105C219.166 102.47 217.113 100.417 214.583 100.417Z" fill="black" fill-opacity="0.54"/>
<g clip-path="url(#clip1_600_5980)">
<path d="M240.991 95.8335C235.931 95.8335 231.833 99.9402 231.833 105C231.833 110.06 235.931 114.167 240.991 114.167C246.06 114.167 250.166 110.06 250.166 105C250.166 99.9402 246.06 95.8335 240.991 95.8335ZM241 112.333C236.948 112.333 233.666 109.052 233.666 105C233.666 100.948 236.948 97.6668 241 97.6668C245.051 97.6668 248.333 100.948 248.333 105C248.333 109.052 245.051 112.333 241 112.333ZM244.208 104.083C244.969 104.083 245.583 103.469 245.583 102.708C245.583 101.948 244.969 101.333 244.208 101.333C243.447 101.333 242.833 101.948 242.833 102.708C242.833 103.469 243.447 104.083 244.208 104.083ZM237.791 104.083C238.552 104.083 239.166 103.469 239.166 102.708C239.166 101.948 238.552 101.333 237.791 101.333C237.031 101.333 236.416 101.948 236.416 102.708C236.416 103.469 237.031 104.083 237.791 104.083ZM241 110.042C243.136 110.042 244.951 108.703 245.684 106.833H236.316C237.049 108.703 238.864 110.042 241 110.042Z" fill="black" fill-opacity="0.54"/>
</g>
<path fill-rule="evenodd" clip-rule="evenodd" d="M266.188 113.708C265.528 113.708 264.923 113.36 264.603 112.792L262.439 109.033C262.109 108.465 262.118 107.768 262.448 107.2L268.26 97.199C268.59 96.6398 269.195 96.2915 269.846 96.2915H271.5H271.991H274.145C274.796 96.2915 275.401 96.6398 275.731 97.199L281.543 107.2C281.873 107.768 281.882 108.465 281.552 109.033L279.389 112.792C279.068 113.36 278.463 113.708 277.803 113.708H272L271.991 113.674V113.708H266.188ZM271.5 111.875H271.991H277.803L279.957 108.126L274.145 98.1248H272L271.991 98.0905V98.1248H269.846L264.034 108.126L266.188 111.875H271.5ZM267.646 109.583L266.977 108.419L271.175 101.104H271.5H271.991H272.816L277.014 108.419L276.345 109.583H271.991H271.5H267.646ZM271.5 107.75H271.991H274.512L272 103.341L271.991 103.299V103.341L269.479 107.75H271.5Z" fill="black" fill-opacity="0.54"/>
<path d="M311.25 111.417V98.5833C311.25 97.575 310.425 96.75 309.417 96.75H296.583C295.575 96.75 294.75 97.575 294.75 98.5833V111.417C294.75 112.425 295.575 113.25 296.583 113.25H309.417C310.425 113.25 311.25 112.425 311.25 111.417ZM299.792 106.375L302.083 109.134L305.292 105L309.417 110.5H296.583L299.792 106.375Z" fill="black" fill-opacity="0.54"/>
<g clip-path="url(#clip2_600_5980)">
<path d="M336.291 107.017L338.95 108.575L338.216 109.767L334.916 107.75V103.167H336.291V107.017ZM343.166 106.833C343.166 110.876 339.876 114.167 335.833 114.167C333.981 114.167 332.295 113.47 331.002 112.333H326.666C325.612 112.333 324.833 111.554 324.833 110.5V102.25C324.833 101.223 325.649 100.453 326.666 100.417V99.9585C326.666 97.676 328.509 95.8335 330.791 95.8335C332.936 95.8335 334.678 97.4743 334.88 99.5735C335.191 99.5277 335.512 99.5002 335.833 99.5002C339.876 99.5002 343.166 102.791 343.166 106.833ZM328.5 100.417H333.083V99.7385C332.973 98.5743 331.983 97.6668 330.791 97.6668C329.526 97.6668 328.5 98.6935 328.5 99.9585V100.417ZM341.333 106.833C341.333 103.799 338.867 101.333 335.833 101.333C332.799 101.333 330.333 103.799 330.333 106.833C330.333 109.868 332.799 112.333 335.833 112.333C338.867 112.333 341.333 109.868 341.333 106.833Z" fill="black" fill-opacity="0.54"/>
</g>
<path fill-rule="evenodd" clip-rule="evenodd" d="M366.53 96.9697C366.237 96.6768 365.763 96.6768 365.47 96.9697L360.47 101.97C360.177 102.263 360.177 102.737 360.47 103.03C360.763 103.323 361.237 103.323 361.53 103.03L366 98.5607L367.268 99.8287L365.043 102.082L368.481 105.519L373.234 100.706C373.592 100.348 373.592 99.7706 373.234 99.4131L371.089 97.2681C370.732 96.9106 370.154 96.9106 369.797 97.2681L368.322 98.7614L366.53 96.9697ZM357 113.502V110.065L364.063 103.062L367.5 106.5L360.438 113.502H357Z" fill="black" fill-opacity="0.54"/>
<rect x="0.5" y="0.5" width="389" height="124" rx="6.5" stroke="#E2E2E2"/>
<defs>
<clipPath id="clip0_600_5980">
<rect x="169" y="95" width="20" height="20" rx="2" fill="white"/>
</clipPath>
<clipPath id="clip1_600_5980">
<rect x="231" y="95" width="20" height="20" rx="2" fill="white"/>
</clipPath>
<clipPath id="clip2_600_5980">
<rect x="324" y="95" width="20" height="20" rx="2" fill="white"/>
</clipPath>
</defs>
</svg>
