<svg width="100" height="100" viewBox="0 0 100 100" fill="none" xmlns="http://www.w3.org/2000/svg">
<path d="M88.5413 45.8335H19.7913C18.41 45.8335 17.0852 46.3822 16.1085 47.359C15.1317 48.3357 14.583 49.6605 14.583 51.0418V78.1251C14.583 79.5065 15.1317 80.8312 16.1085 81.808C17.0852 82.7847 18.41 83.3335 19.7913 83.3335H61.458C63.1984 85.6448 65.3104 87.6512 67.708 89.271C70.7693 91.3818 74.2522 92.8034 77.9163 93.4376C78.1589 93.4589 78.4029 93.4589 78.6454 93.4376C79.2672 93.4287 79.8791 93.2807 80.4363 93.0045C80.9934 92.7284 81.4817 92.331 81.8653 91.8415C82.2489 91.352 82.518 90.7829 82.653 90.1759C82.788 89.5689 82.7854 88.9394 82.6454 88.3335L82.3746 87.0835C82.0829 85.7918 81.8746 84.5626 81.6871 83.3543H88.5413C89.227 83.3543 89.906 83.2189 90.5392 82.9559C91.1725 82.6928 91.7476 82.3073 92.2315 81.8215C92.7154 81.3356 93.0986 80.759 93.3591 80.1247C93.6196 79.4904 93.7523 78.8109 93.7496 78.1251V51.0418C93.7496 49.6605 93.2009 48.3357 92.2241 47.359C91.2474 46.3822 89.9226 45.8335 88.5413 45.8335Z" fill="#4DAC62"/>
<path d="M80.2083 6.25H11.4583C10.077 6.25 8.75224 6.79873 7.77548 7.77549C6.79873 8.75224 6.25 10.077 6.25 11.4583V38.5417C6.25 39.923 6.79873 41.2478 7.77548 42.2245C8.75224 43.2013 10.077 43.75 11.4583 43.75H26.7708C26.5833 44.9375 26.375 46.1667 26.0833 47.4583C26.0833 47.875 25.8958 48.2917 25.8125 48.7083C25.6725 49.3142 25.6699 49.9438 25.8049 50.5508C25.9399 51.1578 26.2091 51.7269 26.5926 52.2164C26.9762 52.7058 27.4645 53.1032 28.0216 53.3794C28.5788 53.6556 29.1907 53.8036 29.8125 53.8125C30.0551 53.8338 30.2991 53.8338 30.5416 53.8125C37.0842 52.6862 42.9413 49.0824 46.8958 43.75H80.2291C81.6068 43.7445 82.9262 43.1933 83.8985 42.2172C84.8707 41.241 85.4166 39.9194 85.4166 38.5417V11.4583C85.4166 10.7744 85.2819 10.0971 85.0201 9.46519C84.7584 8.83329 84.3748 8.25912 83.8911 7.77549C83.4075 7.29185 82.8333 6.9082 82.2014 6.64646C81.5695 6.38472 80.8922 6.25 80.2083 6.25Z" fill="#75B2E6"/>
<path d="M66.6667 20.8332H39.5833C39.0308 20.8332 38.5009 20.6138 38.1102 20.223C37.7195 19.8323 37.5 19.3024 37.5 18.7499C37.5 18.1974 37.7195 17.6675 38.1102 17.2768C38.5009 16.8861 39.0308 16.6666 39.5833 16.6666H66.6667C67.2192 16.6666 67.7491 16.8861 68.1398 17.2768C68.5305 17.6675 68.75 18.1974 68.75 18.7499C68.75 19.3024 68.5305 19.8323 68.1398 20.223C67.7491 20.6138 67.2192 20.8332 66.6667 20.8332ZM54.1667 31.2499H39.5833C39.0308 31.2499 38.5009 31.0304 38.1102 30.6397C37.7195 30.249 37.5 29.7191 37.5 29.1666C37.5 28.614 37.7195 28.0841 38.1102 27.6934C38.5009 27.3027 39.0308 27.0832 39.5833 27.0832H54.1667C54.7192 27.0832 55.2491 27.3027 55.6398 27.6934C56.0305 28.0841 56.25 28.614 56.25 29.1666C56.25 29.7191 56.0305 30.249 55.6398 30.6397C55.2491 31.0304 54.7192 31.2499 54.1667 31.2499ZM60.4167 72.9166H31.25C30.6975 72.9166 30.1676 72.6971 29.7769 72.3064C29.3862 71.9157 29.1667 71.3858 29.1667 70.8332C29.1667 70.2807 29.3862 69.7508 29.7769 69.3601C30.1676 68.9694 30.6975 68.7499 31.25 68.7499H60.4167C60.9692 68.7499 61.4991 68.9694 61.8898 69.3601C62.2805 69.7508 62.5 70.2807 62.5 70.8332C62.5 71.3858 62.2805 71.9157 61.8898 72.3064C61.4991 72.6971 60.9692 72.9166 60.4167 72.9166ZM60.4167 62.4999H41.6667C41.1141 62.4999 40.5842 62.2804 40.1935 61.8897C39.8028 61.499 39.5833 60.9691 39.5833 60.4166C39.5833 59.864 39.8028 59.3341 40.1935 58.9434C40.5842 58.5527 41.1141 58.3332 41.6667 58.3332H60.4167C60.9692 58.3332 61.4991 58.5527 61.8898 58.9434C62.2805 59.3341 62.5 59.864 62.5 60.4166C62.5 60.9691 62.2805 61.499 61.8898 61.8897C61.4991 62.2804 60.9692 62.4999 60.4167 62.4999ZM26.0417 30.9999C25.4891 30.9999 24.9592 30.7804 24.5685 30.3897C24.1778 29.999 23.9583 29.4691 23.9583 28.9166V27.6874C23.9411 26.7649 24.2215 25.8614 24.7582 25.1109C25.2948 24.3604 26.059 23.8028 26.9375 23.5207C27.7208 23.2798 28.378 22.7408 28.7677 22.0199C29.1574 21.299 29.2483 20.4539 29.0208 19.6666C28.875 19.173 28.608 18.7239 28.2441 18.36C27.8802 17.9961 27.431 17.7291 26.9375 17.5832C26.4617 17.4545 25.9627 17.4363 25.4788 17.5302C24.9949 17.6241 24.539 17.8275 24.1458 18.1249C23.7648 18.4117 23.4555 18.783 23.2422 19.2095C23.0289 19.6361 22.9175 20.1063 22.9167 20.5832C22.9167 21.1358 22.6972 21.6657 22.3065 22.0564C21.9158 22.4471 21.3859 22.6666 20.8333 22.6666C20.2808 22.6666 19.7509 22.4471 19.3602 22.0564C18.9695 21.6657 18.75 21.1358 18.75 20.5832C18.7473 19.2294 19.1215 17.9015 19.8308 16.7483C20.5401 15.5952 21.5565 14.6622 22.766 14.054C23.9756 13.4458 25.3306 13.1864 26.6792 13.3048C28.0279 13.4232 29.317 13.9147 30.4021 14.7243C31.4872 15.5339 32.3255 16.6296 32.823 17.8887C33.3206 19.1478 33.4578 20.5206 33.2193 21.8532C32.9807 23.1859 32.3759 24.4259 31.4725 25.4342C30.569 26.4425 29.4027 27.1795 28.1042 27.5624V28.9166C28.1042 29.4655 27.8876 29.9923 27.5014 30.3824C27.1152 30.7725 26.5906 30.9944 26.0417 30.9999Z" fill="#F9F6F6"/>
<path d="M26.0413 36.7082C27.1919 36.7082 28.1247 35.7754 28.1247 34.6248C28.1247 33.4742 27.1919 32.5415 26.0413 32.5415C24.8907 32.5415 23.958 33.4742 23.958 34.6248C23.958 35.7754 24.8907 36.7082 26.0413 36.7082Z" fill="#F9F6F6"/>
<path d="M73.958 70.3124C73.4055 70.3124 72.8756 70.0929 72.4849 69.7022C72.0942 69.3115 71.8747 68.7816 71.8747 68.229V67.2707C71.8639 66.4457 72.1196 65.6392 72.6038 64.9711C73.0879 64.303 73.7748 63.8089 74.5622 63.5624C75.0888 63.4033 75.5311 63.0424 75.7926 62.5584C76.0541 62.0744 76.1135 61.5067 75.958 60.979C75.8713 60.6372 75.6939 60.3252 75.4446 60.0758C75.1952 59.8265 74.8831 59.6491 74.5413 59.5624C74.2262 59.4713 73.894 59.4559 73.5718 59.5174C73.2496 59.5789 72.9465 59.7157 72.6872 59.9165C72.4351 60.1106 72.2307 60.3599 72.0899 60.6451C71.9491 60.9304 71.8754 61.2442 71.8747 61.5624C71.8747 62.1149 71.6552 62.6448 71.2645 63.0355C70.8738 63.4262 70.3439 63.6457 69.7913 63.6457C69.2388 63.6457 68.7089 63.4262 68.3182 63.0355C67.9275 62.6448 67.708 62.1149 67.708 61.5624C67.7078 60.6096 67.9255 59.6694 68.3444 58.8137C68.7632 57.9579 69.3722 57.2092 70.1247 56.6249C70.8399 56.0719 71.6666 55.6806 72.5477 55.4781C73.4288 55.2756 74.3434 55.2667 75.2283 55.452C76.1132 55.6372 76.9474 56.0122 77.6733 56.5512C78.3992 57.0901 78.9995 57.7801 79.4328 58.5736C79.8662 59.367 80.1222 60.245 80.1833 61.1471C80.2444 62.0491 80.1091 62.9536 79.7866 63.7982C79.4642 64.6429 78.9624 65.4075 78.3158 66.0394C77.6692 66.6713 76.8932 67.1553 76.0413 67.4582V68.229C76.0413 68.7816 75.8219 69.3115 75.4312 69.7022C75.0404 70.0929 74.5105 70.3124 73.958 70.3124Z" fill="#F9F6F6"/>
<path d="M73.9583 76.0417C75.1089 76.0417 76.0417 75.1089 76.0417 73.9583C76.0417 72.8077 75.1089 71.875 73.9583 71.875C72.8077 71.875 71.875 72.8077 71.875 73.9583C71.875 75.1089 72.8077 76.0417 73.9583 76.0417Z" fill="#F9F6F6"/>
</svg>
