<svg width="416" height="209" viewBox="0 0 416 209" fill="none" xmlns="http://www.w3.org/2000/svg">
<path d="M209.061 35.2736H175.415C174.988 35.2736 174.577 35.1037 174.275 34.8011C173.972 34.4986 173.802 34.0882 173.802 33.6604C173.802 33.2325 173.972 32.8221 174.275 32.5196C174.577 32.217 174.988 32.0471 175.415 32.0471H209.061C209.489 32.0471 209.899 32.217 210.202 32.5196C210.504 32.8221 210.674 33.2325 210.674 33.6604C210.674 34.0882 210.504 34.4986 210.202 34.8011C209.899 35.1037 209.489 35.2736 209.061 35.2736ZM201.243 49.3057H174.972C174.544 49.3057 174.133 49.4757 173.831 49.7782C173.528 50.0808 173.358 50.4911 173.358 50.919C173.358 51.3469 173.528 51.7572 173.831 52.0598C174.133 52.3623 174.544 52.5323 174.972 52.5323H201.243C201.671 52.5323 202.081 52.3623 202.383 52.0598C202.686 51.7572 202.856 51.3469 202.856 50.919C202.856 50.4911 202.686 50.0808 202.383 49.7782C202.081 49.4757 201.671 49.3057 201.243 49.3057ZM201.243 66.5639H174.972C174.544 66.5639 174.133 66.7339 173.831 67.0364C173.528 67.339 173.358 67.7493 173.358 68.1772C173.358 68.6051 173.528 69.0154 173.831 69.318C174.133 69.6205 174.544 69.7905 174.972 69.7905H201.243C201.671 69.7905 202.081 69.6205 202.383 69.318C202.686 69.0154 202.856 68.6051 202.856 68.1772C202.856 67.7493 202.686 67.339 202.383 67.0364C202.081 66.7339 201.671 66.5639 201.243 66.5639ZM201.243 83.8223H174.972C174.544 83.8223 174.133 83.9923 173.831 84.2949C173.528 84.5974 173.358 85.0078 173.358 85.4356C173.358 85.8635 173.528 86.2738 173.831 86.5764C174.133 86.8789 174.544 87.0489 174.972 87.0489H201.243C201.671 87.0489 202.081 86.8789 202.383 86.5764C202.686 86.2738 202.856 85.8635 202.856 85.4356C202.856 85.0078 202.686 84.5974 202.383 84.2949C202.081 83.9923 201.671 83.8223 201.243 83.8223ZM263.423 89.5771L263.147 89.8532C262.144 90.8567 260.823 91.3575 259.494 91.3575C258.797 91.3574 258.106 91.2196 257.462 90.952C256.817 90.6843 256.232 90.292 255.74 89.7977L242.268 76.3257C240.54 77.3536 238.679 78.1382 236.737 78.6573C235.617 78.9571 234.476 79.1678 233.323 79.2874V100.443C233.323 100.87 233.153 101.281 232.851 101.583C232.548 101.886 232.138 102.056 231.71 102.056H221.346V112.359C221.346 112.787 221.176 113.197 220.873 113.5C220.57 113.802 220.16 113.972 219.732 113.972H152.688C152.26 113.972 151.849 113.802 151.547 113.5C151.244 113.197 151.074 112.787 151.074 112.359V17.5497C151.074 17.1218 151.244 16.7115 151.547 16.4089C151.849 16.1064 152.26 15.9364 152.688 15.9364H162.983V5.64111C162.983 5.21324 163.153 4.8029 163.455 4.50035C163.758 4.1978 164.168 4.02783 164.596 4.02783H213.326C213.754 4.02783 214.164 4.19769 214.466 4.50052L232.851 22.8852C233.154 23.1877 233.324 23.598 233.324 24.0258V35.7074C242.089 36.6256 249.814 42.8187 252.228 51.827C253.815 57.7522 252.803 63.7716 249.896 68.6716C252.836 71.5328 255.771 74.5017 258.619 77.3833C260.176 78.9592 261.787 80.5886 263.368 82.1703C265.425 84.2273 265.45 87.5504 263.423 89.5771ZM214.939 22.4123H227.815L214.939 9.5358V22.4123ZM218.119 102.056H164.596C164.168 102.056 163.758 101.886 163.455 101.583C163.153 101.281 162.983 100.87 162.983 100.443V19.1629H154.301V110.745H218.119V102.056ZM230.097 98.8293V79.383C220.809 78.9659 212.437 72.6137 209.906 63.1668C206.78 51.4986 213.729 39.4624 225.397 36.3359C226.933 35.9241 228.509 35.6808 230.097 35.6103V25.6389H213.326C212.898 25.6389 212.488 25.4689 212.185 25.1664C211.883 24.8638 211.713 24.4535 211.713 24.0256V7.25439H166.209V98.8295H230.097V98.8293ZM249.111 52.6618C246.445 42.7127 236.182 36.7864 226.232 39.4527C216.282 42.1186 210.357 52.3822 213.023 62.3318C215.256 70.6679 222.824 76.1791 231.071 76.1795C232.668 76.1795 234.289 75.973 235.902 75.5409C245.851 72.8748 251.777 62.6114 249.111 52.6618ZM244.948 74.4434L250.898 80.3939L253.995 77.2973C252.024 75.3084 250.023 73.3049 248.024 71.3524C247.104 72.4824 246.074 73.5178 244.948 74.4434ZM261.087 84.4513C259.498 82.8631 257.884 81.23 256.324 79.6511L256.264 79.5907L253.18 82.6751L258.021 87.5168C258.821 88.3163 260.097 88.3411 260.866 87.5723L261.141 87.2964C261.911 86.5267 261.886 85.2508 261.087 84.4513ZM235.038 72.3171C233.744 72.6646 232.41 72.8409 231.07 72.8414C224.296 72.8419 218.081 68.3148 216.246 61.4676C215.185 57.509 215.73 53.3742 217.779 49.825C219.828 46.2757 223.137 43.7369 227.096 42.6761C231.054 41.6157 235.189 42.1596 238.738 44.2087C242.288 46.258 244.826 49.5666 245.887 53.5254C248.077 61.6976 243.21 70.1274 235.038 72.3171ZM242.77 54.3608C241.933 51.2347 239.928 48.6217 237.125 47.0033C235.258 45.9254 233.186 45.3751 231.087 45.3751C230.034 45.3751 228.975 45.5134 227.931 45.7931C224.805 46.6307 222.192 48.6357 220.573 51.4385C218.955 54.2412 218.525 57.5065 219.363 60.6328C220.201 63.7589 222.206 66.3717 225.008 67.9901C227.811 69.6084 231.077 70.0385 234.203 69.2005C240.656 67.4713 244.5 60.8142 242.77 54.3608ZM237.608 51.4966L229.302 60.2613L224.288 56.7033C223.939 56.4622 223.509 56.3684 223.091 56.4421C222.673 56.5158 222.301 56.7512 222.056 57.0971C221.81 57.4431 221.711 57.8719 221.779 58.2907C221.848 58.7094 222.078 59.0843 222.421 59.3343L228.576 63.7024C228.848 63.8963 229.175 64.0003 229.509 64.0002C229.728 64.0004 229.945 63.9558 230.147 63.8692C230.348 63.7825 230.53 63.6557 230.681 63.4964L239.95 53.7155C240.099 53.5624 240.216 53.3812 240.294 53.1824C240.373 52.9836 240.411 52.7713 240.407 52.5576C240.402 52.344 240.356 52.1333 240.269 51.9379C240.183 51.7425 240.058 51.5662 239.903 51.4192C239.748 51.2722 239.565 51.1575 239.366 51.0818C239.166 51.006 238.953 50.9707 238.739 50.9779C238.526 50.9851 238.316 51.0347 238.122 51.1237C237.927 51.2127 237.753 51.3395 237.608 51.4966Z" fill="url(#paint0_linear_600_4905)"/>
<path d="M70.0469 159.203H67.6094C67.5156 158.682 67.3411 158.224 67.0859 157.828C66.8307 157.432 66.5182 157.096 66.1484 156.82C65.7786 156.544 65.3646 156.336 64.9063 156.195C64.4531 156.055 63.9714 155.984 63.4609 155.984C62.5391 155.984 61.7135 156.216 60.9844 156.68C60.2604 157.143 59.6875 157.823 59.2656 158.719C58.849 159.615 58.6406 160.708 58.6406 162C58.6406 163.302 58.849 164.401 59.2656 165.297C59.6875 166.193 60.263 166.87 60.9922 167.328C61.7214 167.786 62.5417 168.016 63.4531 168.016C63.9583 168.016 64.4375 167.948 64.8906 167.812C65.349 167.672 65.763 167.466 66.1328 167.195C66.5026 166.924 66.8151 166.594 67.0703 166.203C67.3307 165.807 67.5104 165.354 67.6094 164.844L70.0469 164.852C69.9167 165.638 69.6641 166.362 69.2891 167.023C68.9193 167.68 68.4427 168.247 67.8594 168.727C67.2813 169.201 66.6198 169.568 65.875 169.828C65.1302 170.089 64.3177 170.219 63.4375 170.219C62.0521 170.219 60.8177 169.891 59.7344 169.234C58.651 168.573 57.7969 167.628 57.1719 166.398C56.5521 165.169 56.2422 163.703 56.2422 162C56.2422 160.292 56.5547 158.826 57.1797 157.602C57.8047 156.372 58.6589 155.43 59.7422 154.773C60.8255 154.112 62.0573 153.781 63.4375 153.781C64.2865 153.781 65.0781 153.904 65.8125 154.148C66.5521 154.388 67.2161 154.742 67.8047 155.211C68.3932 155.674 68.8802 156.242 69.2656 156.914C69.651 157.581 69.9115 158.344 70.0469 159.203ZM72.748 170V158H75.0059V159.906H75.1309C75.3496 159.26 75.735 158.753 76.2871 158.383C76.8444 158.008 77.4746 157.82 78.1777 157.82C78.3236 157.82 78.4954 157.826 78.6934 157.836C78.8965 157.846 79.0553 157.859 79.1699 157.875V160.109C79.0762 160.083 78.9095 160.055 78.6699 160.023C78.4303 159.987 78.1908 159.969 77.9512 159.969C77.3991 159.969 76.9069 160.086 76.4746 160.32C76.0475 160.549 75.709 160.87 75.459 161.281C75.209 161.687 75.084 162.151 75.084 162.672V170H72.748ZM85.9336 170.242C84.7513 170.242 83.7331 169.99 82.8789 169.484C82.0299 168.974 81.3737 168.258 80.9102 167.336C80.4518 166.409 80.2227 165.323 80.2227 164.078C80.2227 162.849 80.4518 161.766 80.9102 160.828C81.3737 159.891 82.0195 159.159 82.8477 158.633C83.681 158.107 84.6549 157.844 85.7695 157.844C86.4466 157.844 87.1029 157.956 87.7383 158.18C88.3737 158.404 88.944 158.755 89.4492 159.234C89.9544 159.714 90.3529 160.336 90.6445 161.102C90.9362 161.862 91.082 162.786 91.082 163.875V164.703H81.543V162.953H88.793C88.793 162.339 88.668 161.794 88.418 161.32C88.168 160.841 87.8164 160.464 87.3633 160.187C86.9154 159.911 86.3893 159.773 85.7852 159.773C85.1289 159.773 84.556 159.935 84.0664 160.258C83.582 160.576 83.207 160.992 82.9414 161.508C82.681 162.018 82.5508 162.573 82.5508 163.172V164.539C82.5508 165.341 82.6914 166.023 82.9727 166.586C83.2591 167.148 83.6576 167.578 84.168 167.875C84.6784 168.167 85.2747 168.312 85.957 168.312C86.3997 168.312 86.8034 168.25 87.168 168.125C87.5326 167.995 87.8477 167.802 88.1133 167.547C88.3789 167.292 88.582 166.977 88.7227 166.602L90.9336 167C90.7565 167.651 90.4388 168.221 89.9805 168.711C89.5273 169.195 88.957 169.573 88.2695 169.844C87.5872 170.109 86.8086 170.242 85.9336 170.242ZM97.166 170.266C96.4056 170.266 95.7181 170.125 95.1035 169.844C94.4889 169.557 94.002 169.143 93.6426 168.602C93.2884 168.06 93.1113 167.396 93.1113 166.609C93.1113 165.932 93.2415 165.375 93.502 164.937C93.7624 164.5 94.1139 164.154 94.5566 163.898C94.9993 163.643 95.4941 163.451 96.041 163.32C96.5879 163.19 97.1452 163.091 97.7129 163.023C98.4316 162.94 99.015 162.872 99.4629 162.82C99.9108 162.763 100.236 162.672 100.439 162.547C100.643 162.422 100.744 162.219 100.744 161.937V161.883C100.744 161.201 100.551 160.672 100.166 160.297C99.7858 159.922 99.2181 159.734 98.4629 159.734C97.6764 159.734 97.0566 159.909 96.6035 160.258C96.1556 160.602 95.8457 160.984 95.6738 161.406L93.4785 160.906C93.7389 160.177 94.1191 159.589 94.6191 159.141C95.1243 158.687 95.7051 158.359 96.3613 158.156C97.0176 157.948 97.7077 157.844 98.4316 157.844C98.9108 157.844 99.4186 157.901 99.9551 158.016C100.497 158.125 101.002 158.328 101.471 158.625C101.945 158.922 102.333 159.346 102.635 159.898C102.937 160.445 103.088 161.156 103.088 162.031V170H100.807V168.359H100.713C100.562 168.661 100.335 168.958 100.033 169.25C99.7311 169.542 99.3431 169.784 98.8691 169.977C98.3952 170.169 97.8275 170.266 97.166 170.266ZM97.6738 168.391C98.3197 168.391 98.8717 168.263 99.3301 168.008C99.7936 167.753 100.145 167.419 100.385 167.008C100.63 166.591 100.752 166.146 100.752 165.672V164.125C100.669 164.208 100.507 164.286 100.268 164.359C100.033 164.427 99.765 164.487 99.4629 164.539C99.1608 164.586 98.8665 164.63 98.5801 164.672C98.2936 164.708 98.054 164.74 97.8613 164.766C97.4082 164.823 96.9941 164.919 96.6191 165.055C96.2493 165.19 95.9525 165.385 95.7285 165.641C95.5098 165.891 95.4004 166.224 95.4004 166.641C95.4004 167.219 95.6139 167.656 96.041 167.953C96.4681 168.245 97.0124 168.391 97.6738 168.391ZM111.801 158V159.875H105.246V158H111.801ZM107.004 155.125H109.34V166.477C109.34 166.93 109.408 167.271 109.543 167.5C109.678 167.724 109.853 167.878 110.066 167.961C110.285 168.039 110.522 168.078 110.777 168.078C110.965 168.078 111.129 168.065 111.27 168.039C111.41 168.013 111.52 167.992 111.598 167.977L112.02 169.906C111.884 169.958 111.691 170.01 111.441 170.063C111.191 170.12 110.879 170.151 110.504 170.156C109.889 170.167 109.316 170.057 108.785 169.828C108.254 169.599 107.824 169.245 107.496 168.766C107.168 168.286 107.004 167.685 107.004 166.961V155.125ZM119.428 170.242C118.245 170.242 117.227 169.99 116.373 169.484C115.524 168.974 114.868 168.258 114.404 167.336C113.946 166.409 113.717 165.323 113.717 164.078C113.717 162.849 113.946 161.766 114.404 160.828C114.868 159.891 115.514 159.159 116.342 158.633C117.175 158.107 118.149 157.844 119.264 157.844C119.941 157.844 120.597 157.956 121.232 158.18C121.868 158.404 122.438 158.755 122.943 159.234C123.449 159.714 123.847 160.336 124.139 161.102C124.43 161.862 124.576 162.786 124.576 163.875V164.703H115.037V162.953H122.287C122.287 162.339 122.162 161.794 121.912 161.32C121.662 160.841 121.311 160.464 120.857 160.187C120.41 159.911 119.883 159.773 119.279 159.773C118.623 159.773 118.05 159.935 117.561 160.258C117.076 160.576 116.701 160.992 116.436 161.508C116.175 162.018 116.045 162.573 116.045 163.172V164.539C116.045 165.341 116.186 166.023 116.467 166.586C116.753 167.148 117.152 167.578 117.662 167.875C118.173 168.167 118.769 168.312 119.451 168.312C119.894 168.312 120.298 168.25 120.662 168.125C121.027 167.995 121.342 167.802 121.607 167.547C121.873 167.292 122.076 166.977 122.217 166.602L124.428 167C124.251 167.651 123.933 168.221 123.475 168.711C123.021 169.195 122.451 169.573 121.764 169.844C121.081 170.109 120.303 170.242 119.428 170.242ZM134.467 174.5C134.118 174.5 133.8 174.471 133.514 174.414C133.227 174.362 133.014 174.305 132.873 174.242L133.436 172.328C133.863 172.443 134.243 172.492 134.576 172.477C134.91 172.461 135.204 172.336 135.459 172.102C135.719 171.867 135.949 171.484 136.146 170.953L136.436 170.156L132.045 158H134.545L137.584 167.312H137.709L140.748 158H143.256L138.311 171.602C138.081 172.227 137.79 172.755 137.436 173.188C137.081 173.625 136.66 173.953 136.17 174.172C135.68 174.391 135.113 174.5 134.467 174.5ZM150.098 170.242C148.973 170.242 147.991 169.984 147.152 169.469C146.314 168.953 145.663 168.232 145.199 167.305C144.736 166.378 144.504 165.294 144.504 164.055C144.504 162.81 144.736 161.721 145.199 160.789C145.663 159.857 146.314 159.133 147.152 158.617C147.991 158.102 148.973 157.844 150.098 157.844C151.223 157.844 152.204 158.102 153.043 158.617C153.882 159.133 154.533 159.857 154.996 160.789C155.46 161.721 155.691 162.81 155.691 164.055C155.691 165.294 155.46 166.378 154.996 167.305C154.533 168.232 153.882 168.953 153.043 169.469C152.204 169.984 151.223 170.242 150.098 170.242ZM150.105 168.281C150.835 168.281 151.439 168.089 151.918 167.703C152.397 167.318 152.751 166.805 152.98 166.164C153.215 165.523 153.332 164.818 153.332 164.047C153.332 163.281 153.215 162.578 152.98 161.937C152.751 161.292 152.397 160.773 151.918 160.383C151.439 159.992 150.835 159.797 150.105 159.797C149.371 159.797 148.762 159.992 148.277 160.383C147.798 160.773 147.441 161.292 147.207 161.937C146.978 162.578 146.863 163.281 146.863 164.047C146.863 164.818 146.978 165.523 147.207 166.164C147.441 166.805 147.798 167.318 148.277 167.703C148.762 168.089 149.371 168.281 150.105 168.281ZM165.9 165.023V158H168.244V170H165.947V167.922H165.822C165.546 168.563 165.104 169.096 164.494 169.523C163.89 169.945 163.137 170.156 162.236 170.156C161.465 170.156 160.783 169.987 160.189 169.648C159.601 169.305 159.137 168.797 158.799 168.125C158.465 167.453 158.299 166.622 158.299 165.633V158H160.635V165.352C160.635 166.169 160.861 166.82 161.314 167.305C161.768 167.789 162.356 168.031 163.08 168.031C163.518 168.031 163.952 167.922 164.385 167.703C164.822 167.484 165.184 167.154 165.471 166.711C165.762 166.268 165.906 165.706 165.9 165.023ZM171.383 170V158H173.641V159.906H173.766C173.984 159.26 174.37 158.753 174.922 158.383C175.479 158.008 176.109 157.82 176.812 157.82C176.958 157.82 177.13 157.826 177.328 157.836C177.531 157.846 177.69 157.859 177.805 157.875V160.109C177.711 160.083 177.544 160.055 177.305 160.023C177.065 159.987 176.826 159.969 176.586 159.969C176.034 159.969 175.542 160.086 175.109 160.32C174.682 160.549 174.344 160.87 174.094 161.281C173.844 161.687 173.719 162.151 173.719 162.672V170H171.383ZM191.359 158V159.875H184.578V158H191.359ZM186.438 170V156.609C186.438 155.859 186.602 155.237 186.93 154.742C187.258 154.242 187.693 153.87 188.234 153.625C188.776 153.375 189.365 153.25 190 153.25C190.469 153.25 190.87 153.289 191.203 153.367C191.536 153.44 191.784 153.508 191.945 153.57L191.398 155.461C191.289 155.43 191.148 155.393 190.977 155.352C190.805 155.305 190.596 155.281 190.352 155.281C189.784 155.281 189.378 155.422 189.133 155.703C188.893 155.984 188.773 156.391 188.773 156.922V170H186.438ZM193.77 170V158H196.105V170H193.77ZM194.949 156.148C194.543 156.148 194.194 156.013 193.902 155.742C193.616 155.466 193.473 155.138 193.473 154.758C193.473 154.372 193.616 154.044 193.902 153.773C194.194 153.497 194.543 153.359 194.949 153.359C195.355 153.359 195.702 153.497 195.988 153.773C196.28 154.044 196.426 154.372 196.426 154.758C196.426 155.138 196.28 155.466 195.988 155.742C195.702 156.013 195.355 156.148 194.949 156.148ZM199.248 170V158H201.506V159.906H201.631C201.85 159.26 202.235 158.753 202.787 158.383C203.344 158.008 203.975 157.82 204.678 157.82C204.824 157.82 204.995 157.826 205.193 157.836C205.396 157.846 205.555 157.859 205.67 157.875V160.109C205.576 160.083 205.41 160.055 205.17 160.023C204.93 159.987 204.691 159.969 204.451 159.969C203.899 159.969 203.407 160.086 202.975 160.32C202.548 160.549 202.209 160.87 201.959 161.281C201.709 161.687 201.584 162.151 201.584 162.672V170H199.248ZM216.684 160.93L214.566 161.305C214.478 161.034 214.337 160.776 214.145 160.531C213.957 160.286 213.702 160.086 213.379 159.93C213.056 159.773 212.652 159.695 212.168 159.695C211.507 159.695 210.954 159.844 210.512 160.141C210.069 160.432 209.848 160.81 209.848 161.273C209.848 161.674 209.996 161.997 210.293 162.242C210.59 162.487 211.069 162.687 211.73 162.844L213.637 163.281C214.741 163.536 215.564 163.93 216.105 164.461C216.647 164.992 216.918 165.682 216.918 166.531C216.918 167.25 216.71 167.891 216.293 168.453C215.882 169.01 215.306 169.448 214.566 169.766C213.832 170.083 212.98 170.242 212.012 170.242C210.668 170.242 209.572 169.956 208.723 169.383C207.874 168.805 207.353 167.984 207.16 166.922L209.418 166.578C209.559 167.167 209.848 167.612 210.285 167.914C210.723 168.211 211.293 168.359 211.996 168.359C212.762 168.359 213.374 168.201 213.832 167.883C214.29 167.56 214.52 167.167 214.52 166.703C214.52 166.328 214.379 166.013 214.098 165.758C213.822 165.503 213.397 165.31 212.824 165.18L210.793 164.734C209.673 164.479 208.845 164.073 208.309 163.516C207.777 162.958 207.512 162.253 207.512 161.398C207.512 160.69 207.71 160.07 208.105 159.539C208.501 159.008 209.048 158.594 209.746 158.297C210.444 157.995 211.243 157.844 212.145 157.844C213.441 157.844 214.462 158.125 215.207 158.687C215.952 159.245 216.444 159.992 216.684 160.93ZM225.088 158V159.875H218.533V158H225.088ZM220.291 155.125H222.627V166.477C222.627 166.93 222.695 167.271 222.83 167.5C222.965 167.724 223.14 167.878 223.354 167.961C223.572 168.039 223.809 168.078 224.064 168.078C224.252 168.078 224.416 168.065 224.557 168.039C224.697 168.013 224.807 167.992 224.885 167.977L225.307 169.906C225.171 169.958 224.979 170.01 224.729 170.063C224.479 170.12 224.166 170.151 223.791 170.156C223.176 170.167 222.604 170.057 222.072 169.828C221.541 169.599 221.111 169.245 220.783 168.766C220.455 168.286 220.291 167.685 220.291 166.961V155.125ZM235.033 170H232.471L238.229 154H241.018L246.775 170H244.213L239.689 156.906H239.564L235.033 170ZM235.463 163.734H243.775V165.766H235.463V163.734ZM257.805 160.93L255.688 161.305C255.599 161.034 255.458 160.776 255.266 160.531C255.078 160.286 254.823 160.086 254.5 159.93C254.177 159.773 253.773 159.695 253.289 159.695C252.628 159.695 252.076 159.844 251.633 160.141C251.19 160.432 250.969 160.81 250.969 161.273C250.969 161.674 251.117 161.997 251.414 162.242C251.711 162.487 252.19 162.687 252.852 162.844L254.758 163.281C255.862 163.536 256.685 163.93 257.227 164.461C257.768 164.992 258.039 165.682 258.039 166.531C258.039 167.25 257.831 167.891 257.414 168.453C257.003 169.01 256.427 169.448 255.688 169.766C254.953 170.083 254.102 170.242 253.133 170.242C251.789 170.242 250.693 169.956 249.844 169.383C248.995 168.805 248.474 167.984 248.281 166.922L250.539 166.578C250.68 167.167 250.969 167.612 251.406 167.914C251.844 168.211 252.414 168.359 253.117 168.359C253.883 168.359 254.495 168.201 254.953 167.883C255.411 167.56 255.641 167.167 255.641 166.703C255.641 166.328 255.5 166.013 255.219 165.758C254.943 165.503 254.518 165.31 253.945 165.18L251.914 164.734C250.794 164.479 249.966 164.073 249.43 163.516C248.898 162.958 248.633 162.253 248.633 161.398C248.633 160.69 248.831 160.07 249.227 159.539C249.622 159.008 250.169 158.594 250.867 158.297C251.565 157.995 252.365 157.844 253.266 157.844C254.563 157.844 255.583 158.125 256.328 158.687C257.073 159.245 257.565 159.992 257.805 160.93ZM269.6 160.93L267.482 161.305C267.394 161.034 267.253 160.776 267.061 160.531C266.873 160.286 266.618 160.086 266.295 159.93C265.972 159.773 265.568 159.695 265.084 159.695C264.423 159.695 263.87 159.844 263.428 160.141C262.985 160.432 262.764 160.81 262.764 161.273C262.764 161.674 262.912 161.997 263.209 162.242C263.506 162.487 263.985 162.687 264.646 162.844L266.553 163.281C267.657 163.536 268.48 163.93 269.021 164.461C269.563 164.992 269.834 165.682 269.834 166.531C269.834 167.25 269.626 167.891 269.209 168.453C268.798 169.01 268.222 169.448 267.482 169.766C266.748 170.083 265.896 170.242 264.928 170.242C263.584 170.242 262.488 169.956 261.639 169.383C260.79 168.805 260.269 167.984 260.076 166.922L262.334 166.578C262.475 167.167 262.764 167.612 263.201 167.914C263.639 168.211 264.209 168.359 264.912 168.359C265.678 168.359 266.29 168.201 266.748 167.883C267.206 167.56 267.436 167.167 267.436 166.703C267.436 166.328 267.295 166.013 267.014 165.758C266.738 165.503 266.313 165.31 265.74 165.18L263.709 164.734C262.589 164.479 261.761 164.073 261.225 163.516C260.693 162.958 260.428 162.253 260.428 161.398C260.428 160.69 260.626 160.07 261.021 159.539C261.417 159.008 261.964 158.594 262.662 158.297C263.36 157.995 264.16 157.844 265.061 157.844C266.357 157.844 267.378 158.125 268.123 158.687C268.868 159.245 269.36 159.992 269.6 160.93ZM277.574 170.242C276.392 170.242 275.374 169.99 274.52 169.484C273.671 168.974 273.014 168.258 272.551 167.336C272.092 166.409 271.863 165.323 271.863 164.078C271.863 162.849 272.092 161.766 272.551 160.828C273.014 159.891 273.66 159.159 274.488 158.633C275.322 158.107 276.296 157.844 277.41 157.844C278.087 157.844 278.743 157.956 279.379 158.18C280.014 158.404 280.585 158.755 281.09 159.234C281.595 159.714 281.993 160.336 282.285 161.102C282.577 161.862 282.723 162.786 282.723 163.875V164.703H273.184V162.953H280.434C280.434 162.339 280.309 161.794 280.059 161.32C279.809 160.841 279.457 160.464 279.004 160.187C278.556 159.911 278.03 159.773 277.426 159.773C276.77 159.773 276.197 159.935 275.707 160.258C275.223 160.576 274.848 160.992 274.582 161.508C274.322 162.018 274.191 162.573 274.191 163.172V164.539C274.191 165.341 274.332 166.023 274.613 166.586C274.9 167.148 275.298 167.578 275.809 167.875C276.319 168.167 276.915 168.312 277.598 168.312C278.04 168.312 278.444 168.25 278.809 168.125C279.173 167.995 279.488 167.802 279.754 167.547C280.02 167.292 280.223 166.977 280.363 166.602L282.574 167C282.397 167.651 282.079 168.221 281.621 168.711C281.168 169.195 280.598 169.573 279.91 169.844C279.228 170.109 278.449 170.242 277.574 170.242ZM294.307 160.93L292.189 161.305C292.101 161.034 291.96 160.776 291.768 160.531C291.58 160.286 291.325 160.086 291.002 159.93C290.679 159.773 290.275 159.695 289.791 159.695C289.13 159.695 288.577 159.844 288.135 160.141C287.692 160.432 287.471 160.81 287.471 161.273C287.471 161.674 287.619 161.997 287.916 162.242C288.213 162.487 288.692 162.687 289.354 162.844L291.26 163.281C292.364 163.536 293.187 163.93 293.729 164.461C294.27 164.992 294.541 165.682 294.541 166.531C294.541 167.25 294.333 167.891 293.916 168.453C293.505 169.01 292.929 169.448 292.189 169.766C291.455 170.083 290.604 170.242 289.635 170.242C288.291 170.242 287.195 169.956 286.346 169.383C285.497 168.805 284.976 167.984 284.783 166.922L287.041 166.578C287.182 167.167 287.471 167.612 287.908 167.914C288.346 168.211 288.916 168.359 289.619 168.359C290.385 168.359 290.997 168.201 291.455 167.883C291.913 167.56 292.143 167.167 292.143 166.703C292.143 166.328 292.002 166.013 291.721 165.758C291.445 165.503 291.02 165.31 290.447 165.18L288.416 164.734C287.296 164.479 286.468 164.073 285.932 163.516C285.4 162.958 285.135 162.253 285.135 161.398C285.135 160.69 285.333 160.07 285.729 159.539C286.124 159.008 286.671 158.594 287.369 158.297C288.067 157.995 288.867 157.844 289.768 157.844C291.064 157.844 292.085 158.125 292.83 158.687C293.575 159.245 294.067 159.992 294.307 160.93ZM306.102 160.93L303.984 161.305C303.896 161.034 303.755 160.776 303.563 160.531C303.375 160.286 303.12 160.086 302.797 159.93C302.474 159.773 302.07 159.695 301.586 159.695C300.924 159.695 300.372 159.844 299.93 160.141C299.487 160.432 299.266 160.81 299.266 161.273C299.266 161.674 299.414 161.997 299.711 162.242C300.008 162.487 300.487 162.687 301.148 162.844L303.055 163.281C304.159 163.536 304.982 163.93 305.523 164.461C306.065 164.992 306.336 165.682 306.336 166.531C306.336 167.25 306.128 167.891 305.711 168.453C305.299 169.01 304.724 169.448 303.984 169.766C303.25 170.083 302.398 170.242 301.43 170.242C300.086 170.242 298.99 169.956 298.141 169.383C297.292 168.805 296.771 167.984 296.578 166.922L298.836 166.578C298.977 167.167 299.266 167.612 299.703 167.914C300.141 168.211 300.711 168.359 301.414 168.359C302.18 168.359 302.792 168.201 303.25 167.883C303.708 167.56 303.937 167.167 303.937 166.703C303.937 166.328 303.797 166.013 303.516 165.758C303.24 165.503 302.815 165.31 302.242 165.18L300.211 164.734C299.091 164.479 298.263 164.073 297.727 163.516C297.195 162.958 296.93 162.253 296.93 161.398C296.93 160.69 297.128 160.07 297.523 159.539C297.919 159.008 298.466 158.594 299.164 158.297C299.862 157.995 300.661 157.844 301.563 157.844C302.859 157.844 303.88 158.125 304.625 158.687C305.37 159.245 305.862 159.992 306.102 160.93ZM308.904 170V158H311.146V159.953H311.295C311.545 159.292 311.954 158.776 312.521 158.406C313.089 158.031 313.769 157.844 314.561 157.844C315.363 157.844 316.035 158.031 316.576 158.406C317.123 158.781 317.527 159.297 317.787 159.953H317.912C318.199 159.312 318.654 158.802 319.279 158.422C319.904 158.036 320.649 157.844 321.514 157.844C322.602 157.844 323.49 158.185 324.178 158.867C324.87 159.549 325.217 160.578 325.217 161.953V170H322.881V162.172C322.881 161.359 322.66 160.771 322.217 160.406C321.774 160.042 321.245 159.859 320.631 159.859C319.87 159.859 319.279 160.094 318.857 160.562C318.436 161.026 318.225 161.622 318.225 162.352V170H315.896V162.023C315.896 161.372 315.693 160.849 315.287 160.453C314.881 160.057 314.352 159.859 313.701 159.859C313.258 159.859 312.85 159.977 312.475 160.211C312.105 160.44 311.805 160.76 311.576 161.172C311.352 161.583 311.24 162.06 311.24 162.602V170H308.904ZM333.52 170.242C332.337 170.242 331.319 169.99 330.465 169.484C329.616 168.974 328.96 168.258 328.496 167.336C328.038 166.409 327.809 165.323 327.809 164.078C327.809 162.849 328.038 161.766 328.496 160.828C328.96 159.891 329.605 159.159 330.434 158.633C331.267 158.107 332.241 157.844 333.355 157.844C334.033 157.844 334.689 157.956 335.324 158.18C335.96 158.404 336.53 158.755 337.035 159.234C337.54 159.714 337.939 160.336 338.23 161.102C338.522 161.862 338.668 162.786 338.668 163.875V164.703H329.129V162.953H336.379C336.379 162.339 336.254 161.794 336.004 161.32C335.754 160.841 335.402 160.464 334.949 160.187C334.501 159.911 333.975 159.773 333.371 159.773C332.715 159.773 332.142 159.935 331.652 160.258C331.168 160.576 330.793 160.992 330.527 161.508C330.267 162.018 330.137 162.573 330.137 163.172V164.539C330.137 165.341 330.277 166.023 330.559 166.586C330.845 167.148 331.243 167.578 331.754 167.875C332.264 168.167 332.861 168.312 333.543 168.312C333.986 168.312 334.389 168.25 334.754 168.125C335.118 167.995 335.434 167.802 335.699 167.547C335.965 167.292 336.168 166.977 336.309 166.602L338.52 167C338.342 167.651 338.025 168.221 337.566 168.711C337.113 169.195 336.543 169.573 335.855 169.844C335.173 170.109 334.395 170.242 333.52 170.242ZM343.596 162.875V170H341.26V158H343.502V159.953H343.65C343.926 159.318 344.359 158.807 344.947 158.422C345.541 158.036 346.288 157.844 347.189 157.844C348.007 157.844 348.723 158.016 349.338 158.359C349.952 158.698 350.429 159.203 350.768 159.875C351.106 160.547 351.275 161.378 351.275 162.367V170H348.939V162.648C348.939 161.779 348.713 161.099 348.26 160.609C347.807 160.115 347.184 159.867 346.393 159.867C345.851 159.867 345.369 159.984 344.947 160.219C344.531 160.453 344.2 160.797 343.955 161.25C343.715 161.698 343.596 162.24 343.596 162.875ZM360.01 158V159.875H353.455V158H360.01ZM355.213 155.125H357.549V166.477C357.549 166.93 357.617 167.271 357.752 167.5C357.887 167.724 358.062 167.878 358.275 167.961C358.494 168.039 358.731 168.078 358.986 168.078C359.174 168.078 359.338 168.065 359.479 168.039C359.619 168.013 359.729 167.992 359.807 167.977L360.229 169.906C360.093 169.958 359.9 170.01 359.65 170.063C359.4 170.12 359.088 170.151 358.713 170.156C358.098 170.167 357.525 170.057 356.994 169.828C356.463 169.599 356.033 169.245 355.705 168.766C355.377 168.286 355.213 167.685 355.213 166.961V155.125Z" fill="black"/>
<path d="M12.1193 196H10.5341C10.4403 195.544 10.2763 195.143 10.0419 194.798C9.81179 194.453 9.53054 194.163 9.19815 193.929C8.87003 193.69 8.50568 193.511 8.10511 193.392C7.70455 193.273 7.28693 193.213 6.85227 193.213C6.05966 193.213 5.34162 193.413 4.69815 193.814C4.05895 194.214 3.54972 194.805 3.17045 195.585C2.79545 196.364 2.60795 197.321 2.60795 198.455C2.60795 199.588 2.79545 200.545 3.17045 201.325C3.54972 202.104 4.05895 202.695 4.69815 203.095C5.34162 203.496 6.05966 203.696 6.85227 203.696C7.28693 203.696 7.70455 203.636 8.10511 203.517C8.50568 203.398 8.87003 203.221 9.19815 202.987C9.53054 202.748 9.81179 202.456 10.0419 202.111C10.2763 201.761 10.4403 201.361 10.5341 200.909H12.1193C12 201.578 11.7827 202.177 11.4673 202.705C11.152 203.234 10.7599 203.683 10.2912 204.054C9.82244 204.42 9.29617 204.7 8.71236 204.891C8.13281 205.083 7.51278 205.179 6.85227 205.179C5.7358 205.179 4.7429 204.906 3.87358 204.361C3.00426 203.815 2.32031 203.04 1.82173 202.034C1.32315 201.028 1.07386 199.835 1.07386 198.455C1.07386 197.074 1.32315 195.881 1.82173 194.875C2.32031 193.869 3.00426 193.094 3.87358 192.548C4.7429 192.003 5.7358 191.73 6.85227 191.73C7.51278 191.73 8.13281 191.826 8.71236 192.018C9.29617 192.21 9.82244 192.491 10.2912 192.862C10.7599 193.228 11.152 193.675 11.4673 194.204C11.7827 194.728 12 195.327 12.1193 196ZM15.9849 191.909V205H14.4764V191.909H15.9849ZM18.7479 205V195.182H20.2564V205H18.7479ZM19.5149 193.545C19.2209 193.545 18.9673 193.445 18.7543 193.245C18.5455 193.045 18.4411 192.804 18.4411 192.523C18.4411 192.241 18.5455 192.001 18.7543 191.8C18.9673 191.6 19.2209 191.5 19.5149 191.5C19.8089 191.5 20.0604 191.6 20.2692 191.8C20.4822 192.001 20.5888 192.241 20.5888 192.523C20.5888 192.804 20.4822 193.045 20.2692 193.245C20.0604 193.445 19.8089 193.545 19.5149 193.545ZM27.008 205.205C26.0875 205.205 25.2949 204.987 24.6301 204.553C23.9654 204.118 23.454 203.519 23.0961 202.756C22.7381 201.994 22.5591 201.122 22.5591 200.142C22.5591 199.145 22.7424 198.265 23.1088 197.502C23.4796 196.735 23.9952 196.136 24.6557 195.706C25.3205 195.271 26.0961 195.054 26.9824 195.054C27.6728 195.054 28.2949 195.182 28.8489 195.438C29.4029 195.693 29.8567 196.051 30.2104 196.511C30.5641 196.972 30.7836 197.509 30.8688 198.122H29.3603C29.2452 197.675 28.9895 197.278 28.5932 196.933C28.2012 196.584 27.6728 196.409 27.008 196.409C26.4199 196.409 25.9043 196.562 25.4611 196.869C25.0222 197.172 24.6792 197.6 24.432 198.154C24.1891 198.704 24.0676 199.349 24.0676 200.091C24.0676 200.849 24.187 201.51 24.4256 202.072C24.6685 202.635 25.0094 203.072 25.4483 203.383C25.8915 203.694 26.4114 203.849 27.008 203.849C27.4 203.849 27.7559 203.781 28.0755 203.645C28.3951 203.509 28.6657 203.312 28.8873 203.057C29.1088 202.801 29.2665 202.494 29.3603 202.136H30.8688C30.7836 202.716 30.5726 203.238 30.236 203.702C29.9036 204.163 29.4625 204.529 28.9128 204.802C28.3674 205.07 27.7324 205.205 27.008 205.205ZM34.4803 201.42L34.4547 199.554H34.7615L39.057 195.182H40.9235L36.3468 199.81H36.2189L34.4803 201.42ZM33.074 205V191.909H34.5826V205H33.074ZM39.3127 205L35.4775 200.142L36.5513 199.094L41.2303 205H39.3127ZM92.0423 205V191.909H93.5508V196.741H93.6786C93.7894 196.571 93.9428 196.354 94.1388 196.089C94.3391 195.821 94.6246 195.582 94.9954 195.374C95.3704 195.161 95.8775 195.054 96.5167 195.054C97.3434 195.054 98.0721 195.261 98.7028 195.674C99.3335 196.087 99.8256 196.673 100.179 197.432C100.533 198.19 100.71 199.085 100.71 200.116C100.71 201.156 100.533 202.058 100.179 202.82C99.8256 203.579 99.3356 204.167 98.7092 204.585C98.0827 204.998 97.3604 205.205 96.5423 205.205C95.9116 205.205 95.4066 205.1 95.0273 204.891C94.6481 204.678 94.3562 204.437 94.1516 204.169C93.9471 203.896 93.7894 203.67 93.6786 203.491H93.4996V205H92.0423ZM93.5252 200.091C93.5252 200.832 93.6339 201.487 93.8512 202.053C94.0685 202.616 94.386 203.057 94.8036 203.376C95.2212 203.692 95.7326 203.849 96.3377 203.849C96.9684 203.849 97.4947 203.683 97.9165 203.351C98.3427 203.014 98.6623 202.562 98.8754 201.996C99.0927 201.425 99.2013 200.79 99.2013 200.091C99.2013 199.401 99.0948 198.778 98.8817 198.224C98.6729 197.666 98.3555 197.225 97.9293 196.901C97.5075 196.573 96.9769 196.409 96.3377 196.409C95.7241 196.409 95.2085 196.565 94.7908 196.876C94.3732 197.183 94.0579 197.613 93.8448 198.167C93.6317 198.717 93.5252 199.358 93.5252 200.091ZM109.205 200.986V195.182H110.713V205H109.205V203.338H109.103C108.873 203.837 108.515 204.261 108.029 204.61C107.543 204.955 106.929 205.128 106.188 205.128C105.574 205.128 105.029 204.994 104.551 204.725C104.074 204.452 103.699 204.043 103.426 203.498C103.154 202.948 103.017 202.256 103.017 201.42V195.182H104.526V201.318C104.526 202.034 104.726 202.605 105.127 203.031C105.532 203.457 106.047 203.67 106.674 203.67C107.049 203.67 107.43 203.575 107.818 203.383C108.21 203.191 108.538 202.897 108.802 202.501C109.071 202.104 109.205 201.599 109.205 200.986ZM117.746 195.182V196.46H112.658V195.182H117.746ZM114.141 192.83H115.65V202.188C115.65 202.614 115.711 202.933 115.835 203.146C115.963 203.355 116.125 203.496 116.321 203.568C116.521 203.636 116.732 203.67 116.954 203.67C117.12 203.67 117.256 203.662 117.363 203.645C117.469 203.624 117.555 203.607 117.618 203.594L117.925 204.949C117.823 204.987 117.68 205.026 117.497 205.064C117.314 205.107 117.081 205.128 116.8 205.128C116.374 205.128 115.956 205.036 115.547 204.853C115.143 204.67 114.806 204.391 114.537 204.016C114.273 203.641 114.141 203.168 114.141 202.597V192.83ZM124.285 195.182V196.46H119.197V195.182H124.285ZM120.68 192.83H122.189V202.188C122.189 202.614 122.251 202.933 122.374 203.146C122.502 203.355 122.664 203.496 122.86 203.568C123.06 203.636 123.271 203.67 123.493 203.67C123.659 203.67 123.795 203.662 123.902 203.645C124.008 203.624 124.094 203.607 124.157 203.594L124.464 204.949C124.362 204.987 124.219 205.026 124.036 205.064C123.853 205.107 123.621 205.128 123.339 205.128C122.913 205.128 122.496 205.036 122.086 204.853C121.682 204.67 121.345 204.391 121.077 204.016C120.812 203.641 120.68 203.168 120.68 202.597V192.83ZM130.438 205.205C129.551 205.205 128.774 204.994 128.105 204.572C127.44 204.15 126.92 203.56 126.545 202.801C126.174 202.043 125.989 201.156 125.989 200.142C125.989 199.119 126.174 198.227 126.545 197.464C126.92 196.701 127.44 196.109 128.105 195.687C128.774 195.265 129.551 195.054 130.438 195.054C131.324 195.054 132.1 195.265 132.764 195.687C133.433 196.109 133.953 196.701 134.324 197.464C134.699 198.227 134.887 199.119 134.887 200.142C134.887 201.156 134.699 202.043 134.324 202.801C133.953 203.56 133.433 204.15 132.764 204.572C132.1 204.994 131.324 205.205 130.438 205.205ZM130.438 203.849C131.111 203.849 131.665 203.677 132.1 203.332C132.534 202.987 132.856 202.533 133.065 201.97C133.274 201.408 133.378 200.798 133.378 200.142C133.378 199.486 133.274 198.874 133.065 198.308C132.856 197.741 132.534 197.283 132.1 196.933C131.665 196.584 131.111 196.409 130.438 196.409C129.764 196.409 129.21 196.584 128.776 196.933C128.341 197.283 128.019 197.741 127.811 198.308C127.602 198.874 127.497 199.486 127.497 200.142C127.497 200.798 127.602 201.408 127.811 201.97C128.019 202.533 128.341 202.987 128.776 203.332C129.21 203.677 129.764 203.849 130.438 203.849ZM138.698 199.094V205H137.189V195.182H138.647V196.716H138.775C139.005 196.217 139.354 195.817 139.823 195.514C140.292 195.207 140.897 195.054 141.638 195.054C142.303 195.054 142.885 195.19 143.383 195.463C143.882 195.732 144.27 196.141 144.547 196.69C144.824 197.236 144.962 197.926 144.962 198.761V205H143.453V198.864C143.453 198.092 143.253 197.491 142.853 197.061C142.452 196.626 141.902 196.409 141.203 196.409C140.722 196.409 140.292 196.513 139.912 196.722C139.537 196.931 139.241 197.236 139.024 197.636C138.806 198.037 138.698 198.523 138.698 199.094ZM157.051 195.182V196.46H151.963V195.182H157.051ZM153.446 192.83H154.954V202.188C154.954 202.614 155.016 202.933 155.14 203.146C155.268 203.355 155.43 203.496 155.626 203.568C155.826 203.636 156.037 203.67 156.258 203.67C156.425 203.67 156.561 203.662 156.667 203.645C156.774 203.624 156.859 203.607 156.923 203.594L157.23 204.949C157.128 204.987 156.985 205.026 156.802 205.064C156.618 205.107 156.386 205.128 156.105 205.128C155.679 205.128 155.261 205.036 154.852 204.853C154.447 204.67 154.111 204.391 153.842 204.016C153.578 203.641 153.446 203.168 153.446 202.597V192.83ZM163.203 205.205C162.317 205.205 161.539 204.994 160.87 204.572C160.205 204.15 159.686 203.56 159.311 202.801C158.94 202.043 158.754 201.156 158.754 200.142C158.754 199.119 158.94 198.227 159.311 197.464C159.686 196.701 160.205 196.109 160.87 195.687C161.539 195.265 162.317 195.054 163.203 195.054C164.09 195.054 164.865 195.265 165.53 195.687C166.199 196.109 166.719 196.701 167.09 197.464C167.465 198.227 167.652 199.119 167.652 200.142C167.652 201.156 167.465 202.043 167.09 202.801C166.719 203.56 166.199 204.15 165.53 204.572C164.865 204.994 164.09 205.205 163.203 205.205ZM163.203 203.849C163.877 203.849 164.431 203.677 164.865 203.332C165.3 202.987 165.622 202.533 165.83 201.97C166.039 201.408 166.144 200.798 166.144 200.142C166.144 199.486 166.039 198.874 165.83 198.308C165.622 197.741 165.3 197.283 164.865 196.933C164.431 196.584 163.877 196.409 163.203 196.409C162.53 196.409 161.976 196.584 161.541 196.933C161.107 197.283 160.785 197.741 160.576 198.308C160.367 198.874 160.263 199.486 160.263 200.142C160.263 200.798 160.367 201.408 160.576 201.97C160.785 202.533 161.107 202.987 161.541 203.332C161.976 203.677 162.53 203.849 163.203 203.849ZM179.006 205.205C178.086 205.205 177.293 204.987 176.628 204.553C175.963 204.118 175.452 203.519 175.094 202.756C174.736 201.994 174.557 201.122 174.557 200.142C174.557 199.145 174.74 198.265 175.107 197.502C175.478 196.735 175.993 196.136 176.654 195.706C177.319 195.271 178.094 195.054 178.98 195.054C179.671 195.054 180.293 195.182 180.847 195.438C181.401 195.693 181.855 196.051 182.208 196.511C182.562 196.972 182.782 197.509 182.867 198.122H181.358C181.243 197.675 180.988 197.278 180.591 196.933C180.199 196.584 179.671 196.409 179.006 196.409C178.418 196.409 177.902 196.562 177.459 196.869C177.02 197.172 176.677 197.6 176.43 198.154C176.187 198.704 176.066 199.349 176.066 200.091C176.066 200.849 176.185 201.51 176.424 202.072C176.667 202.635 177.007 203.072 177.446 203.383C177.89 203.694 178.409 203.849 179.006 203.849C179.398 203.849 179.754 203.781 180.074 203.645C180.393 203.509 180.664 203.312 180.885 203.057C181.107 202.801 181.265 202.494 181.358 202.136H182.867C182.782 202.716 182.571 203.238 182.234 203.702C181.902 204.163 181.461 204.529 180.911 204.802C180.365 205.07 179.73 205.205 179.006 205.205ZM185.072 205V195.182H186.529V196.665H186.632C186.811 196.179 187.135 195.785 187.603 195.482C188.072 195.18 188.6 195.028 189.189 195.028C189.299 195.028 189.438 195.031 189.604 195.035C189.77 195.039 189.896 195.045 189.981 195.054V196.588C189.93 196.575 189.813 196.556 189.63 196.531C189.451 196.501 189.261 196.486 189.061 196.486C188.583 196.486 188.157 196.586 187.782 196.786C187.412 196.982 187.118 197.255 186.9 197.604C186.687 197.95 186.581 198.344 186.581 198.787V205H185.072ZM195.587 205.205C194.641 205.205 193.825 204.996 193.139 204.578C192.457 204.156 191.931 203.568 191.56 202.814C191.194 202.055 191.01 201.173 191.01 200.168C191.01 199.162 191.194 198.276 191.56 197.509C191.931 196.737 192.446 196.136 193.107 195.706C193.772 195.271 194.547 195.054 195.434 195.054C195.945 195.054 196.45 195.139 196.949 195.31C197.447 195.48 197.901 195.757 198.31 196.141C198.719 196.52 199.045 197.023 199.288 197.649C199.531 198.276 199.652 199.047 199.652 199.963V200.602H192.084V199.298H198.118C198.118 198.744 198.007 198.25 197.786 197.815C197.569 197.381 197.257 197.038 196.853 196.786C196.452 196.535 195.979 196.409 195.434 196.409C194.833 196.409 194.313 196.558 193.874 196.857C193.439 197.151 193.105 197.534 192.87 198.007C192.636 198.48 192.519 198.987 192.519 199.528V200.398C192.519 201.139 192.647 201.768 192.902 202.283C193.162 202.795 193.522 203.185 193.983 203.453C194.443 203.717 194.978 203.849 195.587 203.849C195.983 203.849 196.341 203.794 196.661 203.683C196.985 203.568 197.264 203.398 197.498 203.172C197.733 202.942 197.914 202.656 198.042 202.315L199.499 202.724C199.346 203.219 199.088 203.653 198.725 204.028C198.363 204.399 197.916 204.689 197.383 204.898C196.85 205.102 196.252 205.205 195.587 205.205ZM204.836 205.23C204.214 205.23 203.65 205.113 203.142 204.879C202.635 204.64 202.233 204.297 201.934 203.849C201.636 203.398 201.487 202.852 201.487 202.213C201.487 201.651 201.598 201.195 201.819 200.845C202.041 200.491 202.337 200.214 202.708 200.014C203.078 199.814 203.488 199.665 203.935 199.567C204.387 199.464 204.841 199.384 205.297 199.324C205.893 199.247 206.377 199.19 206.748 199.151C207.123 199.109 207.395 199.038 207.566 198.94C207.74 198.842 207.828 198.672 207.828 198.429V198.378C207.828 197.747 207.655 197.257 207.31 196.908C206.969 196.558 206.451 196.384 205.757 196.384C205.037 196.384 204.472 196.541 204.063 196.857C203.654 197.172 203.366 197.509 203.2 197.866L201.768 197.355C202.024 196.759 202.365 196.294 202.791 195.962C203.221 195.625 203.69 195.391 204.197 195.259C204.708 195.122 205.211 195.054 205.706 195.054C206.021 195.054 206.383 195.092 206.792 195.169C207.206 195.241 207.604 195.393 207.988 195.623C208.375 195.853 208.697 196.2 208.953 196.665C209.208 197.129 209.336 197.751 209.336 198.531V205H207.828V203.67H207.751C207.649 203.884 207.478 204.112 207.24 204.354C207.001 204.597 206.684 204.804 206.287 204.974C205.891 205.145 205.407 205.23 204.836 205.23ZM205.066 203.875C205.663 203.875 206.166 203.758 206.575 203.523C206.988 203.289 207.299 202.987 207.508 202.616C207.721 202.245 207.828 201.855 207.828 201.446V200.065C207.764 200.142 207.623 200.212 207.406 200.276C207.193 200.336 206.946 200.389 206.664 200.436C206.387 200.479 206.117 200.517 205.853 200.551C205.593 200.581 205.382 200.607 205.22 200.628C204.828 200.679 204.461 200.762 204.12 200.877C203.784 200.988 203.511 201.156 203.302 201.382C203.098 201.604 202.995 201.906 202.995 202.29C202.995 202.814 203.189 203.21 203.577 203.479C203.969 203.743 204.466 203.875 205.066 203.875ZM216.36 195.182V196.46H211.271V195.182H216.36ZM212.754 192.83H214.263V202.188C214.263 202.614 214.325 202.933 214.448 203.146C214.576 203.355 214.738 203.496 214.934 203.568C215.134 203.636 215.345 203.67 215.567 203.67C215.733 203.67 215.869 203.662 215.976 203.645C216.083 203.624 216.168 203.607 216.232 203.594L216.539 204.949C216.436 204.987 216.294 205.026 216.11 205.064C215.927 205.107 215.695 205.128 215.414 205.128C214.987 205.128 214.57 205.036 214.161 204.853C213.756 204.67 213.419 204.391 213.151 204.016C212.887 203.641 212.754 203.168 212.754 202.597V192.83ZM222.64 205.205C221.694 205.205 220.878 204.996 220.192 204.578C219.51 204.156 218.983 203.568 218.613 202.814C218.246 202.055 218.063 201.173 218.063 200.168C218.063 199.162 218.246 198.276 218.613 197.509C218.983 196.737 219.499 196.136 220.16 195.706C220.824 195.271 221.6 195.054 222.486 195.054C222.998 195.054 223.503 195.139 224.001 195.31C224.5 195.48 224.954 195.757 225.363 196.141C225.772 196.52 226.098 197.023 226.341 197.649C226.584 198.276 226.705 199.047 226.705 199.963V200.602H219.137V199.298H225.171C225.171 198.744 225.06 198.25 224.839 197.815C224.621 197.381 224.31 197.038 223.905 196.786C223.505 196.535 223.032 196.409 222.486 196.409C221.885 196.409 221.366 196.558 220.927 196.857C220.492 197.151 220.157 197.534 219.923 198.007C219.689 198.48 219.572 198.987 219.572 199.528V200.398C219.572 201.139 219.699 201.768 219.955 202.283C220.215 202.795 220.575 203.185 221.035 203.453C221.496 203.717 222.03 203.849 222.64 203.849C223.036 203.849 223.394 203.794 223.714 203.683C224.037 203.568 224.317 203.398 224.551 203.172C224.785 202.942 224.966 202.656 225.094 202.315L226.552 202.724C226.398 203.219 226.14 203.653 225.778 204.028C225.416 204.399 224.969 204.689 224.436 204.898C223.903 205.102 223.305 205.205 222.64 205.205ZM235.034 208.682C234.778 208.682 234.55 208.661 234.35 208.618C234.15 208.58 234.011 208.541 233.934 208.503L234.318 207.173C234.684 207.267 235.008 207.301 235.29 207.276C235.571 207.25 235.82 207.124 236.037 206.898C236.259 206.677 236.461 206.317 236.645 205.818L236.926 205.051L233.295 195.182H234.932L237.642 203.006H237.744L240.454 195.182H242.091L237.923 206.432C237.736 206.939 237.503 207.359 237.226 207.691C236.949 208.028 236.628 208.277 236.261 208.439C235.899 208.601 235.49 208.682 235.034 208.682ZM247.719 205.205C246.833 205.205 246.055 204.994 245.386 204.572C244.721 204.15 244.201 203.56 243.826 202.801C243.455 202.043 243.27 201.156 243.27 200.142C243.27 199.119 243.455 198.227 243.826 197.464C244.201 196.701 244.721 196.109 245.386 195.687C246.055 195.265 246.833 195.054 247.719 195.054C248.605 195.054 249.381 195.265 250.046 195.687C250.715 196.109 251.235 196.701 251.605 197.464C251.98 198.227 252.168 199.119 252.168 200.142C252.168 201.156 251.98 202.043 251.605 202.801C251.235 203.56 250.715 204.15 250.046 204.572C249.381 204.994 248.605 205.205 247.719 205.205ZM247.719 203.849C248.392 203.849 248.946 203.677 249.381 203.332C249.816 202.987 250.137 202.533 250.346 201.97C250.555 201.408 250.659 200.798 250.659 200.142C250.659 199.486 250.555 198.874 250.346 198.308C250.137 197.741 249.816 197.283 249.381 196.933C248.946 196.584 248.392 196.409 247.719 196.409C247.046 196.409 246.492 196.584 246.057 196.933C245.622 197.283 245.301 197.741 245.092 198.308C244.883 198.874 244.779 199.486 244.779 200.142C244.779 200.798 244.883 201.408 245.092 201.97C245.301 202.533 245.622 202.987 246.057 203.332C246.492 203.677 247.046 203.849 247.719 203.849ZM260.658 200.986V195.182H262.167V205H260.658V203.338H260.556C260.326 203.837 259.968 204.261 259.482 204.61C258.996 204.955 258.382 205.128 257.641 205.128C257.027 205.128 256.482 204.994 256.005 204.725C255.527 204.452 255.152 204.043 254.88 203.498C254.607 202.948 254.471 202.256 254.471 201.42V195.182H255.979V201.318C255.979 202.034 256.179 202.605 256.58 203.031C256.985 203.457 257.5 203.67 258.127 203.67C258.502 203.67 258.883 203.575 259.271 203.383C259.663 203.191 259.991 202.897 260.255 202.501C260.524 202.104 260.658 201.599 260.658 200.986ZM264.93 205V195.182H266.387V196.665H266.489C266.668 196.179 266.992 195.785 267.461 195.482C267.93 195.18 268.458 195.028 269.046 195.028C269.157 195.028 269.295 195.031 269.461 195.035C269.628 195.039 269.753 195.045 269.839 195.054V196.588C269.787 196.575 269.67 196.556 269.487 196.531C269.308 196.501 269.118 196.486 268.918 196.486C268.441 196.486 268.015 196.586 267.64 196.786C267.269 196.982 266.975 197.255 266.758 197.604C266.545 197.95 266.438 198.344 266.438 198.787V205H264.93ZM281.061 195.182V196.46H275.769V195.182H281.061ZM277.354 205V193.827C277.354 193.264 277.486 192.795 277.75 192.42C278.015 192.045 278.358 191.764 278.779 191.577C279.201 191.389 279.647 191.295 280.115 191.295C280.486 191.295 280.789 191.325 281.023 191.385C281.257 191.445 281.432 191.5 281.547 191.551L281.113 192.855C281.036 192.83 280.929 192.798 280.793 192.759C280.661 192.721 280.486 192.702 280.269 192.702C279.77 192.702 279.41 192.827 279.189 193.079C278.971 193.33 278.863 193.699 278.863 194.185V205H277.354ZM283.176 205V195.182H284.684V205H283.176ZM283.943 193.545C283.649 193.545 283.395 193.445 283.182 193.245C282.973 193.045 282.869 192.804 282.869 192.523C282.869 192.241 282.973 192.001 283.182 191.8C283.395 191.6 283.649 191.5 283.943 191.5C284.237 191.5 284.488 191.6 284.697 191.8C284.91 192.001 285.017 192.241 285.017 192.523C285.017 192.804 284.91 193.045 284.697 193.245C284.488 193.445 284.237 193.545 283.943 193.545ZM287.447 205V195.182H288.904V196.665H289.007C289.186 196.179 289.51 195.785 289.978 195.482C290.447 195.18 290.975 195.028 291.564 195.028C291.674 195.028 291.813 195.031 291.979 195.035C292.145 195.039 292.271 195.045 292.356 195.054V196.588C292.305 196.575 292.188 196.556 292.005 196.531C291.826 196.501 291.636 196.486 291.436 196.486C290.958 196.486 290.532 196.586 290.157 196.786C289.787 196.982 289.493 197.255 289.275 197.604C289.062 197.95 288.956 198.344 288.956 198.787V205H287.447ZM301.099 197.381L299.744 197.764C299.659 197.538 299.533 197.319 299.367 197.106C299.205 196.888 298.983 196.71 298.702 196.569C298.421 196.428 298.061 196.358 297.622 196.358C297.021 196.358 296.52 196.496 296.119 196.773C295.723 197.046 295.525 197.393 295.525 197.815C295.525 198.19 295.661 198.487 295.934 198.704C296.207 198.921 296.633 199.102 297.213 199.247L298.67 199.605C299.548 199.818 300.202 200.144 300.632 200.583C301.063 201.018 301.278 201.578 301.278 202.264C301.278 202.827 301.116 203.33 300.792 203.773C300.472 204.216 300.025 204.565 299.45 204.821C298.874 205.077 298.205 205.205 297.443 205.205C296.441 205.205 295.612 204.987 294.956 204.553C294.3 204.118 293.884 203.483 293.71 202.648L295.142 202.29C295.278 202.818 295.536 203.214 295.915 203.479C296.298 203.743 296.799 203.875 297.417 203.875C298.12 203.875 298.678 203.726 299.092 203.428C299.509 203.125 299.718 202.763 299.718 202.341C299.718 202 299.599 201.714 299.36 201.484C299.122 201.25 298.755 201.075 298.261 200.96L296.624 200.577C295.725 200.364 295.065 200.033 294.643 199.586C294.225 199.134 294.017 198.57 294.017 197.892C294.017 197.338 294.172 196.848 294.483 196.422C294.798 195.996 295.227 195.661 295.768 195.418C296.313 195.175 296.931 195.054 297.622 195.054C298.593 195.054 299.356 195.267 299.91 195.693C300.468 196.119 300.865 196.682 301.099 197.381ZM307.819 195.182V196.46H302.73V195.182H307.819ZM304.213 192.83H305.722V202.188C305.722 202.614 305.784 202.933 305.907 203.146C306.035 203.355 306.197 203.496 306.393 203.568C306.593 203.636 306.804 203.67 307.026 203.67C307.192 203.67 307.328 203.662 307.435 203.645C307.542 203.624 307.627 203.607 307.691 203.594L307.998 204.949C307.895 204.987 307.752 205.026 307.569 205.064C307.386 205.107 307.154 205.128 306.873 205.128C306.446 205.128 306.029 205.036 305.62 204.853C305.215 204.67 304.878 204.391 304.61 204.016C304.346 203.641 304.213 203.168 304.213 202.597V192.83ZM318.039 205.23C317.417 205.23 316.853 205.113 316.346 204.879C315.838 204.64 315.436 204.297 315.137 203.849C314.839 203.398 314.69 202.852 314.69 202.213C314.69 201.651 314.801 201.195 315.022 200.845C315.244 200.491 315.54 200.214 315.911 200.014C316.282 199.814 316.691 199.665 317.138 199.567C317.59 199.464 318.044 199.384 318.5 199.324C319.096 199.247 319.58 199.19 319.951 199.151C320.326 199.109 320.598 199.038 320.769 198.94C320.944 198.842 321.031 198.672 321.031 198.429V198.378C321.031 197.747 320.858 197.257 320.513 196.908C320.172 196.558 319.654 196.384 318.96 196.384C318.24 196.384 317.675 196.541 317.266 196.857C316.857 197.172 316.569 197.509 316.403 197.866L314.971 197.355C315.227 196.759 315.568 196.294 315.994 195.962C316.424 195.625 316.893 195.391 317.4 195.259C317.912 195.122 318.414 195.054 318.909 195.054C319.224 195.054 319.586 195.092 319.995 195.169C320.409 195.241 320.807 195.393 321.191 195.623C321.578 195.853 321.9 196.2 322.156 196.665C322.412 197.129 322.539 197.751 322.539 198.531V205H321.031V203.67H320.954C320.852 203.884 320.681 204.112 320.443 204.354C320.204 204.597 319.887 204.804 319.49 204.974C319.094 205.145 318.61 205.23 318.039 205.23ZM318.27 203.875C318.866 203.875 319.369 203.758 319.778 203.523C320.191 203.289 320.502 202.987 320.711 202.616C320.924 202.245 321.031 201.855 321.031 201.446V200.065C320.967 200.142 320.826 200.212 320.609 200.276C320.396 200.336 320.149 200.389 319.868 200.436C319.591 200.479 319.32 200.517 319.056 200.551C318.796 200.581 318.585 200.607 318.423 200.628C318.031 200.679 317.664 200.762 317.324 200.877C316.987 200.988 316.714 201.156 316.505 201.382C316.301 201.604 316.199 201.906 316.199 202.29C316.199 202.814 316.392 203.21 316.78 203.479C317.172 203.743 317.669 203.875 318.27 203.875ZM332.247 197.381L330.892 197.764C330.807 197.538 330.681 197.319 330.515 197.106C330.353 196.888 330.132 196.71 329.85 196.569C329.569 196.428 329.209 196.358 328.77 196.358C328.169 196.358 327.669 196.496 327.268 196.773C326.872 197.046 326.673 197.393 326.673 197.815C326.673 198.19 326.81 198.487 327.083 198.704C327.355 198.921 327.781 199.102 328.361 199.247L329.818 199.605C330.696 199.818 331.35 200.144 331.781 200.583C332.211 201.018 332.426 201.578 332.426 202.264C332.426 202.827 332.264 203.33 331.941 203.773C331.621 204.216 331.173 204.565 330.598 204.821C330.023 205.077 329.354 205.205 328.591 205.205C327.59 205.205 326.761 204.987 326.105 204.553C325.448 204.118 325.033 203.483 324.858 202.648L326.29 202.29C326.426 202.818 326.684 203.214 327.063 203.479C327.447 203.743 327.948 203.875 328.566 203.875C329.269 203.875 329.827 203.726 330.24 203.428C330.658 203.125 330.867 202.763 330.867 202.341C330.867 202 330.747 201.714 330.509 201.484C330.27 201.25 329.904 201.075 329.409 200.96L327.773 200.577C326.874 200.364 326.213 200.033 325.791 199.586C325.374 199.134 325.165 198.57 325.165 197.892C325.165 197.338 325.32 196.848 325.632 196.422C325.947 195.996 326.375 195.661 326.916 195.418C327.462 195.175 328.08 195.054 328.77 195.054C329.742 195.054 330.504 195.267 331.058 195.693C331.617 196.119 332.013 196.682 332.247 197.381ZM341.652 197.381L340.297 197.764C340.211 197.538 340.086 197.319 339.919 197.106C339.757 196.888 339.536 196.71 339.255 196.569C338.973 196.428 338.613 196.358 338.174 196.358C337.574 196.358 337.073 196.496 336.672 196.773C336.276 197.046 336.078 197.393 336.078 197.815C336.078 198.19 336.214 198.487 336.487 198.704C336.76 198.921 337.186 199.102 337.765 199.247L339.223 199.605C340.1 199.818 340.755 200.144 341.185 200.583C341.615 201.018 341.831 201.578 341.831 202.264C341.831 202.827 341.669 203.33 341.345 203.773C341.025 204.216 340.578 204.565 340.002 204.821C339.427 205.077 338.758 205.205 337.995 205.205C336.994 205.205 336.165 204.987 335.509 204.553C334.853 204.118 334.437 203.483 334.262 202.648L335.694 202.29C335.831 202.818 336.088 203.214 336.468 203.479C336.851 203.743 337.352 203.875 337.97 203.875C338.673 203.875 339.231 203.726 339.645 203.428C340.062 203.125 340.271 202.763 340.271 202.341C340.271 202 340.152 201.714 339.913 201.484C339.674 201.25 339.308 201.075 338.814 200.96L337.177 200.577C336.278 200.364 335.618 200.033 335.196 199.586C334.778 199.134 334.569 198.57 334.569 197.892C334.569 197.338 334.725 196.848 335.036 196.422C335.351 195.996 335.779 195.661 336.321 195.418C336.866 195.175 337.484 195.054 338.174 195.054C339.146 195.054 339.909 195.267 340.463 195.693C341.021 196.119 341.417 196.682 341.652 197.381ZM348.218 205.205C347.272 205.205 346.456 204.996 345.77 204.578C345.088 204.156 344.562 203.568 344.191 202.814C343.824 202.055 343.641 201.173 343.641 200.168C343.641 199.162 343.824 198.276 344.191 197.509C344.562 196.737 345.077 196.136 345.738 195.706C346.403 195.271 347.178 195.054 348.064 195.054C348.576 195.054 349.081 195.139 349.579 195.31C350.078 195.48 350.532 195.757 350.941 196.141C351.35 196.52 351.676 197.023 351.919 197.649C352.162 198.276 352.283 199.047 352.283 199.963V200.602H344.715V199.298H350.749C350.749 198.744 350.638 198.25 350.417 197.815C350.199 197.381 349.888 197.038 349.483 196.786C349.083 196.535 348.61 196.409 348.064 196.409C347.464 196.409 346.944 196.558 346.505 196.857C346.07 197.151 345.736 197.534 345.501 198.007C345.267 198.48 345.15 198.987 345.15 199.528V200.398C345.15 201.139 345.278 201.768 345.533 202.283C345.793 202.795 346.153 203.185 346.613 203.453C347.074 203.717 347.608 203.849 348.218 203.849C348.614 203.849 348.972 203.794 349.292 203.683C349.616 203.568 349.895 203.398 350.129 203.172C350.363 202.942 350.545 202.656 350.672 202.315L352.13 202.724C351.976 203.219 351.719 203.653 351.356 204.028C350.994 204.399 350.547 204.689 350.014 204.898C349.481 205.102 348.883 205.205 348.218 205.205ZM361.532 197.381L360.177 197.764C360.092 197.538 359.966 197.319 359.8 197.106C359.638 196.888 359.417 196.71 359.135 196.569C358.854 196.428 358.494 196.358 358.055 196.358C357.454 196.358 356.954 196.496 356.553 196.773C356.157 197.046 355.959 197.393 355.959 197.815C355.959 198.19 356.095 198.487 356.368 198.704C356.64 198.921 357.067 199.102 357.646 199.247L359.104 199.605C359.981 199.818 360.635 200.144 361.066 200.583C361.496 201.018 361.711 201.578 361.711 202.264C361.711 202.827 361.55 203.33 361.226 203.773C360.906 204.216 360.459 204.565 359.883 204.821C359.308 205.077 358.639 205.205 357.876 205.205C356.875 205.205 356.046 204.987 355.39 204.553C354.733 204.118 354.318 203.483 354.143 202.648L355.575 202.29C355.711 202.818 355.969 203.214 356.349 203.479C356.732 203.743 357.233 203.875 357.851 203.875C358.554 203.875 359.112 203.726 359.525 203.428C359.943 203.125 360.152 202.763 360.152 202.341C360.152 202 360.032 201.714 359.794 201.484C359.555 201.25 359.189 201.075 358.694 200.96L357.058 200.577C356.159 200.364 355.498 200.033 355.077 199.586C354.659 199.134 354.45 198.57 354.45 197.892C354.45 197.338 354.606 196.848 354.917 196.422C355.232 195.996 355.66 195.661 356.202 195.418C356.747 195.175 357.365 195.054 358.055 195.054C359.027 195.054 359.79 195.267 360.344 195.693C360.902 196.119 361.298 196.682 361.532 197.381ZM370.937 197.381L369.582 197.764C369.496 197.538 369.371 197.319 369.205 197.106C369.043 196.888 368.821 196.71 368.54 196.569C368.259 196.428 367.898 196.358 367.46 196.358C366.859 196.358 366.358 196.496 365.957 196.773C365.561 197.046 365.363 197.393 365.363 197.815C365.363 198.19 365.499 198.487 365.772 198.704C366.045 198.921 366.471 199.102 367.05 199.247L368.508 199.605C369.386 199.818 370.04 200.144 370.47 200.583C370.901 201.018 371.116 201.578 371.116 202.264C371.116 202.827 370.954 203.33 370.63 203.773C370.31 204.216 369.863 204.565 369.288 204.821C368.712 205.077 368.043 205.205 367.281 205.205C366.279 205.205 365.45 204.987 364.794 204.553C364.138 204.118 363.722 203.483 363.548 202.648L364.979 202.29C365.116 202.818 365.374 203.214 365.753 203.479C366.136 203.743 366.637 203.875 367.255 203.875C367.958 203.875 368.516 203.726 368.93 203.428C369.347 203.125 369.556 202.763 369.556 202.341C369.556 202 369.437 201.714 369.198 201.484C368.96 201.25 368.593 201.075 368.099 200.96L366.462 200.577C365.563 200.364 364.903 200.033 364.481 199.586C364.063 199.134 363.854 198.57 363.854 197.892C363.854 197.338 364.01 196.848 364.321 196.422C364.636 195.996 365.065 195.661 365.606 195.418C366.151 195.175 366.769 195.054 367.46 195.054C368.431 195.054 369.194 195.267 369.748 195.693C370.306 196.119 370.702 196.682 370.937 197.381ZM373.387 205V195.182H374.844V196.716H374.972C375.176 196.192 375.507 195.785 375.963 195.495C376.419 195.201 376.966 195.054 377.605 195.054C378.253 195.054 378.792 195.201 379.222 195.495C379.657 195.785 379.996 196.192 380.239 196.716H380.341C380.593 196.209 380.97 195.806 381.472 195.508C381.975 195.205 382.578 195.054 383.281 195.054C384.159 195.054 384.877 195.329 385.436 195.879C385.994 196.424 386.273 197.274 386.273 198.429V205H384.764V198.429C384.764 197.705 384.566 197.187 384.17 196.876C383.774 196.565 383.307 196.409 382.77 196.409C382.08 196.409 381.545 196.618 381.166 197.036C380.786 197.449 380.597 197.973 380.597 198.608V205H379.063V198.276C379.063 197.717 378.882 197.268 378.519 196.927C378.157 196.582 377.691 196.409 377.119 196.409C376.727 196.409 376.361 196.513 376.02 196.722C375.683 196.931 375.411 197.221 375.202 197.592C374.997 197.958 374.895 198.382 374.895 198.864V205H373.387ZM393.148 205.205C392.202 205.205 391.385 204.996 390.699 204.578C390.018 204.156 389.491 203.568 389.121 202.814C388.754 202.055 388.571 201.173 388.571 200.168C388.571 199.162 388.754 198.276 389.121 197.509C389.491 196.737 390.007 196.136 390.667 195.706C391.332 195.271 392.108 195.054 392.994 195.054C393.506 195.054 394.01 195.139 394.509 195.31C395.008 195.48 395.461 195.757 395.871 196.141C396.28 196.52 396.606 197.023 396.849 197.649C397.091 198.276 397.213 199.047 397.213 199.963V200.602H389.645V199.298H395.679C395.679 198.744 395.568 198.25 395.346 197.815C395.129 197.381 394.818 197.038 394.413 196.786C394.013 196.535 393.54 196.409 392.994 196.409C392.393 196.409 391.873 196.558 391.434 196.857C391 197.151 390.665 197.534 390.431 198.007C390.197 198.48 390.079 198.987 390.079 199.528V200.398C390.079 201.139 390.207 201.768 390.463 202.283C390.723 202.795 391.083 203.185 391.543 203.453C392.003 203.717 392.538 203.849 393.148 203.849C393.544 203.849 393.902 203.794 394.221 203.683C394.545 203.568 394.824 203.398 395.059 203.172C395.293 202.942 395.474 202.656 395.602 202.315L397.059 202.724C396.906 203.219 396.648 203.653 396.286 204.028C395.924 204.399 395.476 204.689 394.944 204.898C394.411 205.102 393.812 205.205 393.148 205.205ZM401.016 199.094V205H399.508V195.182H400.965V196.716H401.093C401.323 196.217 401.672 195.817 402.141 195.514C402.61 195.207 403.215 195.054 403.956 195.054C404.621 195.054 405.203 195.19 405.702 195.463C406.2 195.732 406.588 196.141 406.865 196.69C407.142 197.236 407.28 197.926 407.28 198.761V205H405.772V198.864C405.772 198.092 405.572 197.491 405.171 197.061C404.77 196.626 404.221 196.409 403.522 196.409C403.04 196.409 402.61 196.513 402.231 196.722C401.856 196.931 401.559 197.236 401.342 197.636C401.125 198.037 401.016 198.523 401.016 199.094ZM414.307 195.182V196.46H409.219V195.182H414.307ZM410.702 192.83H412.21V202.188C412.21 202.614 412.272 202.933 412.396 203.146C412.523 203.355 412.685 203.496 412.881 203.568C413.082 203.636 413.293 203.67 413.514 203.67C413.68 203.67 413.817 203.662 413.923 203.645C414.03 203.624 414.115 203.607 414.179 203.594L414.486 204.949C414.384 204.987 414.241 205.026 414.058 205.064C413.874 205.107 413.642 205.128 413.361 205.128C412.935 205.128 412.517 205.036 412.108 204.853C411.703 204.67 411.366 204.391 411.098 204.016C410.834 203.641 410.702 203.168 410.702 202.597V192.83Z" fill="#686868"/>
<path d="M58.5511 191.909V205H56.7358L50.0817 195.399H49.9602V205H47.9851V191.909H49.8132L56.4737 201.523H56.5952V191.909H58.5511ZM65.5105 205.198C64.5431 205.198 63.71 204.991 63.0112 204.578C62.3166 204.161 61.7797 203.575 61.4004 202.82C61.0254 202.062 60.8379 201.173 60.8379 200.155C60.8379 199.149 61.0254 198.263 61.4004 197.496C61.7797 196.729 62.3081 196.13 62.9856 195.7C63.6674 195.269 64.4643 195.054 65.3762 195.054C65.9302 195.054 66.4672 195.146 66.987 195.329C67.5069 195.512 67.9735 195.8 68.3869 196.192C68.8002 196.584 69.1262 197.093 69.3649 197.719C69.6035 198.342 69.7228 199.098 69.7228 199.989V200.666H61.9181V199.234H67.85C67.85 198.732 67.7477 198.286 67.5431 197.898C67.3386 197.506 67.051 197.197 66.6802 196.972C66.3137 196.746 65.8833 196.633 65.389 196.633C64.8521 196.633 64.3833 196.765 63.9828 197.029C63.5865 197.289 63.2797 197.63 63.0623 198.052C62.8493 198.469 62.7427 198.923 62.7427 199.413V200.532C62.7427 201.188 62.8578 201.746 63.0879 202.207C63.3223 202.667 63.6483 203.018 64.0659 203.261C64.4835 203.5 64.9714 203.619 65.5297 203.619C65.8919 203.619 66.2221 203.568 66.5204 203.466C66.8187 203.359 67.0765 203.202 67.2939 202.993C67.5112 202.784 67.6774 202.526 67.7924 202.219L69.6014 202.545C69.4565 203.078 69.1966 203.545 68.8216 203.945C68.4508 204.342 67.9842 204.651 67.4217 204.872C66.8635 205.089 66.2264 205.198 65.5105 205.198ZM73.9544 205L71.0652 195.182H73.0403L74.9643 202.392H75.0602L76.9906 195.182H78.9657L80.8833 202.36H80.9792L82.8904 195.182H84.8656L81.9828 205H80.0332L78.0389 197.911H77.8919L75.8976 205H73.9544Z" fill="black"/>
<defs>
<linearGradient id="paint0_linear_600_4905" x1="208.001" y1="4.02783" x2="207" y2="213.5" gradientUnits="userSpaceOnUse">
<stop stop-color="#1221A2"/>
<stop offset="1" stop-color="#172BDC" stop-opacity="0"/>
</linearGradient>
</defs>
</svg>
