<svg width="63" height="63" viewBox="0 0 63 63" fill="none" xmlns="http://www.w3.org/2000/svg">
<g id="Frame">
<g id="Group">
<path id="Vector" d="M46.2572 5.69873V53.4833H11.4927V57.2824H50.0563V5.69873H46.2572Z" fill="#B9D7FF"/>
<path id="Vector_2" d="M17.4968 1.94739L7.74133 11.7028V53.531H46.305V1.94739H17.4968Z" fill="white"/>
<path id="Vector_3" d="M29.9632 49.5219C37.5915 49.5219 43.7754 43.3379 43.7754 35.7096C43.7754 28.0813 37.5915 21.8973 29.9632 21.8973C22.3348 21.8973 16.1509 28.0813 16.1509 35.7096C16.1509 43.3379 22.3348 49.5219 29.9632 49.5219Z" fill="#B9D7FF"/>
<path id="Vector_4" d="M36.9409 42.6969C33.0941 46.5437 26.8323 46.5437 22.9855 42.6969C19.1386 38.8501 19.1386 32.5883 22.9855 28.7414C26.8323 24.8946 33.0941 24.8946 36.9409 28.7414C40.7973 32.5787 40.7973 38.8405 36.9409 42.6969Z" fill="#DDEBFD"/>
<path id="Vector_5" d="M42.7636 46.2097L40.8068 44.2528C40.4727 44.6728 40.1195 45.0833 39.7281 45.4747C39.3368 45.866 38.9263 46.2192 38.5063 46.5533L40.4631 48.5101C40.2436 49.5028 40.5109 50.5719 41.2745 51.3451L50.085 60.1556C51.2781 61.3487 53.2159 61.3487 54.4091 60.1556C55.6022 58.9624 55.6022 57.0247 54.4091 55.8315L45.5986 47.021C44.8254 46.2574 43.7563 45.9901 42.7636 46.2097ZM17.4491 11.6551V1.89966L7.6936 11.6551H17.4491Z" fill="#7CB7FF"/>
<g id="Group_2">
<path id="Vector_6" d="M37.4373 28.2259C35.4423 26.2309 32.7791 25.1237 29.9441 25.1237C27.1091 25.1237 24.4459 26.2214 22.4509 28.2259C20.4559 30.2305 19.3486 32.8841 19.3486 35.7191C19.3486 38.5541 20.4464 41.2173 22.4509 43.2123C24.4459 45.2073 27.1091 46.3146 29.9441 46.3146C32.7791 46.3146 35.4423 45.2168 37.4373 43.2123C41.5609 39.0791 41.5609 32.3591 37.4373 28.2259ZM36.4254 42.2005C34.6977 43.9282 32.3973 44.8827 29.9441 44.8827C27.4909 44.8827 25.1905 43.9282 23.4627 42.2005C21.735 40.4727 20.7805 38.1723 20.7805 35.7191C20.7805 33.2659 21.735 30.9655 23.4627 29.2377C25.1905 27.51 27.4909 26.5555 29.9441 26.5555C32.3973 26.5555 34.6977 27.51 36.4254 29.2377C39.9955 32.8077 39.9955 38.6209 36.4254 42.2005Z" fill="#3340B1"/>
<path id="Vector_7" d="M54.9245 55.3637L46.1045 46.5341C45.7016 46.1329 45.2135 45.8276 44.6765 45.6409C44.1394 45.4541 43.5672 45.3908 43.0023 45.4555L41.7327 44.186C45.8182 38.5064 45.3218 30.536 40.2245 25.4291C34.5545 19.7591 25.3336 19.7591 19.6636 25.4291C13.9936 31.0991 13.9936 40.32 19.6636 45.99C22.4986 48.825 26.2214 50.2378 29.9441 50.2378C32.9223 50.2378 35.9004 49.3119 38.4205 47.4982L39.69 48.7678C39.5564 49.9132 39.9477 51.0491 40.7686 51.8605L49.5886 60.6901C50.2976 61.3986 51.259 61.7967 52.2614 61.7967C53.2637 61.7967 54.2251 61.3986 54.9341 60.6901C55.65 59.9741 56.0414 59.0291 56.0414 58.0173C56.0306 57.0207 55.6297 56.068 54.9245 55.3637ZM20.6659 44.9878C15.5591 39.881 15.5591 31.5573 20.6659 26.4505C23.2241 23.8923 26.5745 22.6132 29.9345 22.6132C33.2945 22.6132 36.645 23.8923 39.2032 26.4505C44.31 31.5573 44.31 39.881 39.2032 44.9878C34.0964 50.0946 25.7823 50.0946 20.6659 44.9878ZM53.9127 59.6878C52.9964 60.6041 51.5073 60.6041 50.6004 59.6878L41.7805 50.8678C41.5013 50.5872 41.298 50.2403 41.1894 49.8596C41.0809 49.479 41.0708 49.077 41.16 48.6914C41.1872 48.5745 41.1839 48.4525 41.1505 48.3372C41.1171 48.2219 41.0546 48.117 40.9691 48.0328L39.5659 46.6296C39.585 46.6105 39.5945 46.5914 39.6041 46.5723C39.8141 46.3814 40.0336 46.2096 40.2341 45.9996C40.4345 45.7991 40.6064 45.5891 40.7973 45.3791C40.8164 45.36 40.845 45.3505 40.8545 45.3314L42.2577 46.7346C42.4295 46.9064 42.6777 46.9828 42.9164 46.9255C43.7086 46.7441 44.52 46.9828 45.0927 47.546L53.9127 56.3755C54.1306 56.5928 54.3035 56.8509 54.4215 57.1351C54.5394 57.4193 54.6002 57.7239 54.6002 58.0316C54.6002 58.3393 54.5394 58.644 54.4215 58.9282C54.3035 59.2124 54.1306 59.4705 53.9127 59.6878Z" fill="#3340B1"/>
<path id="Vector_8" d="M34.0963 31.5573C33.9615 31.4241 33.7798 31.3495 33.5904 31.3495C33.4009 31.3495 33.2192 31.4241 33.0845 31.5573L29.944 34.6977L26.8035 31.5573C26.5267 31.2805 26.0685 31.2805 25.7917 31.5573C25.5149 31.8341 25.5149 32.2923 25.7917 32.5691L28.9322 35.7191L25.7917 38.8596C25.5149 39.1364 25.5149 39.5946 25.7917 39.8714C25.9349 40.0146 26.1163 40.0814 26.2976 40.0814C26.479 40.0814 26.6604 40.0146 26.8035 39.8714L29.944 36.7309L33.0845 39.8714C33.2276 40.0146 33.409 40.0814 33.5904 40.0814C33.7717 40.0814 33.9531 40.0146 34.0963 39.8714C34.3731 39.5946 34.3731 39.1364 34.0963 38.8596L30.9558 35.7191L34.0963 32.5691C34.3731 32.2923 34.3731 31.8436 34.0963 31.5573ZM22.8326 6.87274H40.9213C41.3126 6.87274 41.6372 6.54819 41.6372 6.15683C41.6372 5.76546 41.3126 5.44092 40.9213 5.44092H22.8326C22.4413 5.44092 22.1167 5.76546 22.1167 6.15683C22.1167 6.54819 22.4413 6.87274 22.8326 6.87274ZM40.9308 9.23046H22.8231C22.4317 9.23046 22.1072 9.55501 22.1072 9.94637C22.1072 10.3377 22.4317 10.6623 22.8231 10.6623H40.9308C41.3222 10.6623 41.6467 10.3377 41.6467 9.94637C41.6467 9.55501 41.3222 9.23046 40.9308 9.23046ZM40.9308 13.0582H31.4235C31.0322 13.0582 30.7076 13.3827 30.7076 13.7741C30.7076 14.1655 31.0322 14.49 31.4235 14.49H40.9308C41.3222 14.49 41.6467 14.1655 41.6467 13.7741C41.6467 13.3827 41.3222 13.0582 40.9308 13.0582ZM40.9308 16.8764H31.4235C31.0322 16.8764 30.7076 17.2009 30.7076 17.5923C30.7076 17.9836 31.0322 18.3082 31.4235 18.3082H40.9308C41.3222 18.3082 41.6467 17.9836 41.6467 17.5923C41.6467 17.2009 41.3222 16.8764 40.9308 16.8764Z" fill="#3340B1"/>
<path id="Vector_9" d="M43.2027 56.6428H12.2086V54.2755H39.4036C39.795 54.2755 40.1195 53.951 40.1195 53.5596C40.1195 53.1682 39.795 52.8437 39.4036 52.8437H8.39996V12.3901H17.449C17.8404 12.3901 18.165 12.0655 18.165 11.6741V2.62506H45.5795V44.0523C45.5795 44.4437 45.9041 44.7682 46.2954 44.7682C46.6868 44.7682 47.0113 44.4437 47.0113 44.0523V6.42415H49.3786V47.4982C49.3786 47.8896 49.7031 48.2141 50.0945 48.2141C50.4859 48.2141 50.8104 47.8896 50.8104 47.4982V5.70824C50.8104 5.31687 50.4859 4.99233 50.0945 4.99233H47.0113V1.90915C47.0113 1.51778 46.6868 1.19324 46.2954 1.19324H17.4586C17.2677 1.19324 17.0863 1.2696 16.9527 1.40324L7.17814 11.1682C7.04384 11.3024 6.96831 11.4843 6.96814 11.6741V53.5501C6.96814 53.9414 7.29269 54.266 7.68405 54.266H10.7672V57.3492C10.7672 57.7405 11.0918 58.0651 11.4831 58.0651H43.1931C43.5845 58.0651 43.9091 57.7405 43.9091 57.3492C43.9091 56.9578 43.5941 56.6428 43.2027 56.6428ZM16.7427 3.63687V10.9582H9.41178L16.7427 3.63687Z" fill="#3340B1"/>
</g>
</g>
</g>
</svg>
