<svg width="224" height="112" viewBox="0 0 224 112" fill="none" xmlns="http://www.w3.org/2000/svg">
<g id="Full Circle">
<path id="Ellipse" d="M224 112C224 173.856 173.856 224 112 224C50.1441 224 0 173.856 0 112C0 50.1441 50.1441 0 112 0C173.856 0 224 50.1441 224 112ZM22.4 112C22.4 161.485 62.5153 201.6 112 201.6C161.485 201.6 201.6 161.485 201.6 112C201.6 62.5153 161.485 22.4 112 22.4C62.5153 22.4 22.4 62.5153 22.4 112Z" fill="#F5F5F5"/>
<path id="Ellipse_2" d="M0 112C1.80574e-06 91.3447 5.71194 71.0917 16.5043 53.4801C27.2967 35.8686 42.7491 21.5846 61.1531 12.2073C79.5571 2.82995 100.196 -1.27534 120.787 0.345261C141.379 1.96586 161.121 9.24923 177.832 21.3901L164.666 39.5121C151.297 29.7994 135.503 23.9727 119.03 22.6762C102.557 21.3797 86.0457 24.664 71.3225 32.1658C56.5993 39.6677 44.2373 51.0949 35.6034 65.1841C26.9696 79.2734 22.4 95.4757 22.4 112H0Z" fill="url(#paint0_linear_1530_11218)"/>
</g>
<defs>
<linearGradient id="paint0_linear_1530_11218" x1="-3.7708e-07" y1="113.067" x2="224" y2="113.067" gradientUnits="userSpaceOnUse">
<stop stop-color="#A855F7"/>
<stop offset="0.526042" stop-color="#3B82F6"/>
<stop offset="1" stop-color="#14B8A6"/>
</linearGradient>
</defs>
</svg>
