<svg width="41" height="40" viewBox="0 0 41 40" fill="none" xmlns="http://www.w3.org/2000/svg">
<circle cx="20.0654" cy="20" r="20" fill="#BF83FF"/>
<path d="M22.8857 12.5H17.9011V9.5H22.8857V12.5ZM28.2263 12.5V29C28.2263 29.8284 27.5887 30.5 26.8021 30.5H13.9847C13.1982 30.5 12.5605 29.8284 12.5605 29V12.5C12.5605 11.6716 13.1982 11 13.9847 11H16.477V12.5C16.477 13.3284 17.1146 14 17.9011 14H22.8857C23.6722 14 24.3098 13.3284 24.3098 12.5V11H26.8021C27.5887 11 28.2263 11.6716 28.2263 12.5ZM15.4658 16.715C15.4293 16.8052 15.41 16.902 15.4089 17C15.4103 17.1988 15.4842 17.3895 15.6154 17.5325C15.6846 17.5987 15.7641 17.6519 15.8504 17.69C15.936 17.7284 16.0279 17.7488 16.1209 17.75C16.1613 17.7521 16.4396 17.7619 16.6494 17.528C16.8439 17.3112 16.8352 17.0459 16.833 17C16.8303 16.8015 16.7565 16.6113 16.6265 16.4675C16.5993 16.4421 16.3386 16.2073 15.9804 16.2875C15.6309 16.3658 15.4825 16.6783 15.4658 16.715ZM24.4864 21.002C24.2254 20.6922 23.7753 20.6639 23.4812 20.9388L23.481 20.939L19.148 24.989L17.3172 23.1995C17.0243 22.9232 16.574 22.9494 16.3117 23.258C16.0559 23.5589 16.0723 24.0191 16.3488 24.299L18.6531 26.549C18.9217 26.8112 19.3353 26.8161 19.6094 26.5602L24.4266 22.0602C24.7204 21.7853 24.7472 21.3117 24.4864 21.002ZM25.378 17C25.378 16.5858 25.0592 16.25 24.6659 16.25H18.2572C17.8639 16.25 17.5451 16.5858 17.5451 17C17.5451 17.4142 17.8639 17.75 18.2572 17.75H24.6659C25.0592 17.75 25.378 17.4142 25.378 17Z" fill="white"/>
</svg>
