<?xml version="1.0" encoding="UTF-8"?>
<svg viewBox="0 0 744.09447 1052.362179" xmlns="http://www.w3.org/2000/svg" xmlns:xlink="http://www.w3.org/1999/xlink">
 <defs>
  <filter id="r">
   <feGaussianBlur stdDeviation="2.98343"/>
  </filter>
  <filter id="q">
   <feGaussianBlur stdDeviation="4.25688"/>
  </filter>
  <filter id="s" x="-.08124" y="-.12333" width="1.1625" height="1.2467">
   <feGaussianBlur stdDeviation="4.26531"/>
  </filter>
  <filter id="p" x="-.19086" y="-.08493" width="1.3817" height="1.1699">
   <feGaussianBlur stdDeviation="11.01"/>
  </filter>
  <filter id="o" x="-.19791" y="-.10493" width="1.3958" height="1.2098">
   <feGaussianBlur stdDeviation="10.03128"/>
  </filter>
  <filter id="n" x="-.06561" y="-.18968" width="1.1312" height="1.3794">
   <feGaussianBlur stdDeviation="11.33197"/>
  </filter>
  <linearGradient id="a">
   <stop stop-color="#f5f5f5" offset="0"/>
   <stop stop-color="#fff" stop-opacity="0" offset="1"/>
  </linearGradient>
  <linearGradient id="b">
   <stop stop-color="#f2f2f2" offset="0"/>
   <stop stop-color="#b6b6b6" offset=".5"/>
   <stop stop-color="#e8e8e8" offset="1"/>
  </linearGradient>
  <linearGradient id="m" x1="643" x2="1169" gradientUnits="userSpaceOnUse">
   <stop offset="0"/>
   <stop offset=".12"/>
   <stop stop-color="#fff" offset=".17"/>
   <stop stop-color="#fff" offset=".61111"/>
   <stop stop-color="#fff" offset=".85"/>
   <stop offset=".91"/>
   <stop offset="1"/>
  </linearGradient>
  <linearGradient id="j" x1="550.22" x2="710.68" gradientUnits="userSpaceOnUse">
   <stop stop-color="#ddd" offset="0"/>
   <stop stop-color="#f2f2f2" offset="1"/>
  </linearGradient>
  <linearGradient id="g" x1="173.6" x2="576.36" gradientUnits="userSpaceOnUse">
   <stop stop-color="#d3d3d3" offset="0"/>
   <stop stop-color="#e2e2e2" offset=".5"/>
   <stop stop-color="#bbb" offset="1"/>
  </linearGradient>
  <linearGradient id="f" x1="226.11" x2="539.74" gradientUnits="userSpaceOnUse">
   <stop stop-color="#fff" stop-opacity="0" offset="0"/>
   <stop stop-color="#fff" stop-opacity=".30928" offset="1"/>
  </linearGradient>
  <linearGradient id="e" x1="177.4" x2="572.57" gradientUnits="userSpaceOnUse">
   <stop stop-color="#3d2f11" offset="0"/>
   <stop stop-color="#3d2f11" offset="1"/>
  </linearGradient>
  <linearGradient id="d" x1="182.73" x2="193.05" gradientUnits="userSpaceOnUse">
   <stop stop-color="#3d2e11" offset="0"/>
   <stop stop-color="#2e220b" offset="1"/>
  </linearGradient>
  <linearGradient id="l" x1="480.27" x2="355.89" y1="194.42" y2="174.62" gradientUnits="userSpaceOnUse" xlink:href="#a"/>
  <linearGradient id="k" x1="247.34" x2="358.87" gradientTransform="matrix(.99118 -.13256 .13256 .99118 -10.356 55.032)" gradientUnits="userSpaceOnUse" xlink:href="#a"/>
  <linearGradient id="i" x1="177.13" x2="572.84" gradientUnits="userSpaceOnUse" xlink:href="#b"/>
  <linearGradient id="h" x1="171.85" x2="578.01" gradientUnits="userSpaceOnUse" xlink:href="#b"/>
  <mask id="c">
   <path d="m643 282.36h526v265h-526z" fill="url(#m)"/>
  </mask>
 </defs>
 <g transform="translate(-40 77.657)">
  <path d="m374.98 311.98c109.46 0 197.59 31.987 197.59 71.721s-88.123 71.721-197.59 71.721-197.59-31.987-197.59-71.721 88.123-71.721 197.59-71.721z" fill="url(#i)"/>
  <path transform="matrix(.9809 0 0 1.0004 -520.47 -6.42)" d="m907.17 364.43c114.82 0 207.27 31.974 207.27 71.69s-92.44 71.69-207.27 71.69-207.27-31.974-207.27-71.69 92.44-71.69 207.27-71.69z" fill="#3d2e11" filter="url(#n)" mask="url(#c)"/>
  <path d="m374.98 364.33c109.46 0 197.59 31.987 197.59 71.721s-88.123 71.721-197.59 71.721-197.59-31.987-197.59-71.721 88.123-71.721 197.59-71.721z" fill="url(#e)"/>
  <path d="m172.57 383.69c0.32457 0.04223-0.03035 417.02-0.44686 416.02 0 39.704 90.432 71.686 202.79 71.686s202.81-31.983 202.81-71.686l-0.26812-416.02h-4.8857c2e-5 39.733-88.139 71.718-197.6 71.718s-197.57-31.984-197.57-71.718h-4.8261z" fill="url(#h)"/>
  <path d="m374.98 311.98c109.46 0 197.59 31.987 197.59 71.721s-88.123 71.721-197.59 71.721-197.59-31.987-197.59-71.721 88.123-71.721 197.59-71.721z" fill="none" stroke="url(#g)" stroke-width="9.741"/>
  <path d="m455.08 377.63c32.029 5.1662 65.981 17.069 73.184 23.86 13.333 10.82-57.33 10.35-84.163 4.2452m-21.785-4.3936c-8.5069-2.377-16.415-4.8927-24.085-7.2432-57.865-17.733-78.14-10.711-153.15-5.0542 55.847-16.046 126.87-20.467 187.44-14.105" fill="url(#f)" fill-rule="evenodd" opacity=".6898"/>
 </g>
 <g transform="translate(-40 77.657)" fill-rule="evenodd">
  <path d="m576.21 485.44c41.494-2.4875 106.68-17.69 102.92 116.21-2.7801 97.98-98.941 100.88-106.41 105.21-18.635 10.802-37.757 75.154-3.8147 55.297s140.52-24.507 141.76-161.38c1.5647-174-94.542-159.75-136.25-154.52-27.424 3.4419-28.605 41.008 1.7983 39.185z" fill="url(#j)"/>
  <path transform="matrix(.89914 0 0 1.0591 55.496 -26.169)" d="m571.5 447.61c113.47-22.945 150.74 46.04 154.5 119.75l-5.5 7.5c-3.7344-74.987-38.244-132.16-160.75-111.5l11.75-15.75z" fill="#fbfbfb" filter="url(#q)" opacity=".74286"/>
  <path transform="matrix(.89914 0 0 1.0591 55.496 -26.169)" d="m579 693.36-14 20.5c80.71-7.7626 147.36-53.708 134.5-120.5-6.6366 50.329-62.653 104.92-120.5 100z" filter="url(#s)" opacity=".0898"/>
  <path transform="matrix(.89914 0 0 1.1916 51.899 -94.083)" d="m604 478.86-28.5 4.2225c100.66-15.015 136.53 41.768 121 112.38 33.78-87.151-40.264-121.89-92.5-116.6z" filter="url(#r)" opacity=".07755"/>
 </g>
 <g transform="translate(-40 77.657)" fill-rule="evenodd" opacity=".75102">
  <path d="m398.57 349.98c-41.96-45.459-78.51-80.43 21.213-188.09 42.058-45.406 17.658-100.05-24.042-123.04 115.44 25.346 114.25 94.951 73.539 149.91-34.063 45.982-65.284 102.37-70.711 161.22z" fill="url(#l)" filter="url(#p)" opacity=".95918"/>
  <path d="m322.27 224.89c31.485-33.227 78.531-107.5-14.387-163.79-39.188-23.742-22.772-46.547 10.379-65.655-94.981 28.881-92.809 93.838-45.737 107.51 74.764 21.716 64.739 83.755 49.745 121.94z" fill="url(#k)" filter="url(#o)"/>
 </g>
 <path d="m196.75 507.5s-10.698 4.5076-10.781 7.9688c-0.71927 29.939-3.0016 158.72-2.9688 208.91-2.5 8.8973-6.5467 33.16 5 26.844 12.246-6.6981 8.9273-16.973 8-25.094-2.5873-22.659-4.95-157.24 3.625-197.44 11.832 13.883 6.1214 49.666 6.375 68.781-2.5 3.4447-6.5467 19.32 5 16.875 12.246-2.5933 8.5351-13.061 8-16.219-0.46662-2.7535-9.613-56.38 3.0766-71.232 0.88106-1.0312 12.445-8.7206 12.445-8.7206l-22.709-5.7972 0.0625-0.0625-15.125-4.8125z" fill="url(#d)" fill-rule="evenodd" opacity=".75918"/>
</svg>
