<svg width="35" height="35" viewBox="0 0 35 35" fill="none" xmlns="http://www.w3.org/2000/svg">
<circle cx="17.5" cy="17.5" r="17" stroke="#E2E2E2"/>
<path d="M12.1668 22.8337C11.9307 22.8337 11.7327 22.7537 11.5727 22.5937C11.4127 22.4337 11.3329 22.2359 11.3335 22.0003C11.3335 21.7642 11.4135 21.5662 11.5735 21.4062C11.7335 21.2462 11.9313 21.1664 12.1668 21.167H13.0002V15.3337C13.0002 14.1809 13.3474 13.1564 14.0418 12.2603C14.7363 11.3642 15.6391 10.7775 16.7502 10.5003V9.91699C16.7502 9.56977 16.8718 9.27449 17.1152 9.03116C17.3585 8.78783 17.6535 8.66644 18.0002 8.66699C18.3474 8.66699 18.6427 8.78866 18.886 9.03199C19.1293 9.27533 19.2507 9.57033 19.2502 9.91699V10.5003C20.3613 10.7781 21.2641 11.365 21.9585 12.2612C22.6529 13.1573 23.0002 14.1814 23.0002 15.3337V21.167H23.8335C24.0696 21.167 24.2677 21.247 24.4277 21.407C24.5877 21.567 24.6674 21.7648 24.6668 22.0003C24.6668 22.2364 24.5868 22.4345 24.4268 22.5945C24.2668 22.7545 24.0691 22.8342 23.8335 22.8337H12.1668ZM18.0002 25.3337C17.5418 25.3337 17.1493 25.1703 16.8227 24.8437C16.496 24.517 16.3329 24.1248 16.3335 23.667H19.6668C19.6668 24.1253 19.5035 24.5178 19.1768 24.8445C18.8502 25.1712 18.4579 25.3342 18.0002 25.3337ZM14.6668 21.167H21.3335V15.3337C21.3335 14.417 21.0071 13.6323 20.3543 12.9795C19.7016 12.3267 18.9168 12.0003 18.0002 12.0003C17.0835 12.0003 16.2988 12.3267 15.646 12.9795C14.9932 13.6323 14.6668 14.417 14.6668 15.3337V21.167Z" fill="black"/>
</svg>
