<svg width="35" height="35" viewBox="0 0 35 35" fill="none" xmlns="http://www.w3.org/2000/svg">
<circle cx="17.5" cy="17.5" r="17" stroke="#E2E2E2"/>
<path d="M12.1663 22.8337C11.9302 22.8337 11.7322 22.7537 11.5722 22.5937C11.4122 22.4337 11.3325 22.2359 11.333 22.0003C11.333 21.7642 11.413 21.5662 11.573 21.4062C11.733 21.2462 11.9308 21.1664 12.1663 21.167H12.9997V15.3337C12.9997 14.1809 13.3469 13.1564 14.0413 12.2603C14.7358 11.3642 15.6386 10.7775 16.7497 10.5003V9.91699C16.7497 9.56977 16.8713 9.27449 17.1147 9.03116C17.358 8.78783 17.653 8.66644 17.9997 8.66699C18.3469 8.66699 18.6422 8.78866 18.8855 9.03199C19.1288 9.27533 19.2502 9.57033 19.2497 9.91699V10.5003C20.3608 10.7781 21.2636 11.365 21.958 12.2612C22.6525 13.1573 22.9997 14.1814 22.9997 15.3337V21.167H23.833C24.0691 21.167 24.2672 21.247 24.4272 21.407C24.5872 21.567 24.6669 21.7648 24.6663 22.0003C24.6663 22.2364 24.5863 22.4345 24.4263 22.5945C24.2663 22.7545 24.0686 22.8342 23.833 22.8337H12.1663ZM17.9997 25.3337C17.5413 25.3337 17.1488 25.1703 16.8222 24.8437C16.4955 24.517 16.3325 24.1248 16.333 23.667H19.6663C19.6663 24.1253 19.503 24.5178 19.1763 24.8445C18.8497 25.1712 18.4575 25.3342 17.9997 25.3337ZM14.6663 21.167H21.333V15.3337C21.333 14.417 21.0066 13.6323 20.3538 12.9795C19.7011 12.3267 18.9163 12.0003 17.9997 12.0003C17.083 12.0003 16.2983 12.3267 15.6455 12.9795C14.9927 13.6323 14.6663 14.417 14.6663 15.3337V21.167Z" fill="black"/>
</svg>
