<svg width="24" height="24" viewBox="0 0 24 24" fill="none" xmlns="http://www.w3.org/2000/svg">
<rect width="24" height="24" rx="8" fill="#E5ECF6"/>
<path d="M6.75005 10.8337C6.58477 10.8337 6.44613 10.7753 6.33413 10.6587C6.22213 10.542 6.17605 10.4059 6.19588 10.2503C6.26394 9.60866 6.43174 8.99363 6.6993 8.40524C6.96685 7.81685 7.31919 7.28952 7.7563 6.82324C7.86324 6.7163 7.99935 6.66283 8.16463 6.66283C8.32991 6.66283 8.47088 6.72116 8.58755 6.83783C8.69449 6.94477 8.74797 7.07602 8.74797 7.23158C8.74797 7.38713 8.69449 7.5281 8.58755 7.65449C8.24727 8.02394 7.97252 8.42508 7.7633 8.85791C7.55408 9.29074 7.42049 9.75488 7.36255 10.2503C7.3431 10.4156 7.27738 10.5542 7.16538 10.6662C7.05338 10.7782 6.91494 10.834 6.75005 10.8337ZM17.25 10.8337C17.0945 10.8337 16.9584 10.7777 16.8417 10.6657C16.725 10.5537 16.657 10.4152 16.6375 10.2503C16.5792 9.75449 16.4456 9.29016 16.2368 8.85733C16.028 8.42449 15.7532 8.02355 15.4125 7.65449C15.3056 7.5281 15.2521 7.38713 15.2521 7.23158C15.2521 7.07602 15.3105 6.94477 15.4271 6.83783C15.5438 6.72116 15.6824 6.66283 15.843 6.66283C16.0037 6.66283 16.1372 6.7163 16.2438 6.82324C16.6813 7.28991 17.0338 7.81724 17.3014 8.40524C17.5689 8.99324 17.7365 9.60827 17.8042 10.2503C17.8237 10.4059 17.7776 10.542 17.666 10.6587C17.5544 10.7753 17.4157 10.8337 17.25 10.8337ZM7.91672 16.0837C7.75144 16.0837 7.6128 16.0277 7.5008 15.9157C7.3888 15.8037 7.33299 15.6652 7.33338 15.5003C7.33338 15.335 7.38938 15.1964 7.50138 15.0844C7.61338 14.9724 7.75183 14.9166 7.91672 14.917H8.50005V10.8337C8.50005 10.0267 8.7431 9.3096 9.22922 8.68233C9.71533 8.05505 10.3473 7.64438 11.125 7.45033V7.04199C11.125 6.79894 11.2102 6.59224 11.3805 6.42191C11.5509 6.25158 11.7574 6.1666 12 6.16699C12.2431 6.16699 12.4498 6.25216 12.6201 6.42249C12.7905 6.59283 12.8754 6.79933 12.875 7.04199V7.45033C13.6528 7.64477 14.2848 8.05563 14.7709 8.68291C15.257 9.31019 15.5 10.0271 15.5 10.8337V14.917H16.0834C16.2487 14.917 16.3873 14.973 16.4993 15.085C16.6113 15.197 16.6671 15.3354 16.6667 15.5003C16.6667 15.6656 16.6107 15.8042 16.4987 15.9162C16.3867 16.0282 16.2483 16.084 16.0834 16.0837H7.91672ZM12 17.8337C11.6792 17.8337 11.4045 17.7193 11.1758 17.4907C10.9471 17.262 10.833 16.9874 10.8334 16.667H13.1667C13.1667 16.9878 13.0524 17.2626 12.8237 17.4912C12.595 17.7199 12.3205 17.834 12 17.8337ZM9.66672 14.917H14.3334V10.8337C14.3334 10.192 14.1049 9.64269 13.648 9.18574C13.191 8.7288 12.6417 8.50033 12 8.50033C11.3584 8.50033 10.8091 8.7288 10.3521 9.18574C9.89519 9.64269 9.66672 10.192 9.66672 10.8337V14.917Z" fill="black"/>
</svg>
