<svg width="22" height="22" viewBox="0 0 22 22" fill="none" xmlns="http://www.w3.org/2000/svg">
<circle cx="11" cy="11" r="10.5" stroke="#C93131" stroke-opacity="0.3"/>
<path d="M15.6 8.57571C15.6 8.68324 15.5574 8.78703 15.4803 8.86738C15.4032 8.94774 15.2969 8.99908 15.1817 9.01166L15.1263 9.01473H14.726L14.1429 14.5113C14.1112 14.8096 13.9609 15.0862 13.7212 15.2875C13.4816 15.4887 13.1698 15.6001 12.8464 15.6001H9.3535C9.03014 15.6001 8.71833 15.4887 8.4787 15.2875C8.23908 15.0862 8.08878 14.8096 8.05703 14.5113L7.47392 9.01473H7.07366C6.94803 9.01473 6.82755 8.96848 6.73871 8.88614C6.64988 8.80381 6.59998 8.69214 6.59998 8.57571C6.59998 8.45927 6.64988 8.3476 6.73871 8.26527C6.82755 8.18294 6.94803 8.13668 7.07366 8.13668H9.44208C9.44208 7.9349 9.48496 7.73508 9.56828 7.54866C9.6516 7.36223 9.77372 7.19284 9.92767 7.05015C10.0816 6.90747 10.2644 6.79428 10.4655 6.71706C10.6667 6.63984 10.8823 6.6001 11.1 6.6001C11.3177 6.6001 11.5333 6.63984 11.7344 6.71706C11.9356 6.79428 12.1183 6.90747 12.2723 7.05015C12.4262 7.19284 12.5484 7.36223 12.6317 7.54866C12.715 7.73508 12.7579 7.9349 12.7579 8.13668H15.1263C15.2519 8.13668 15.3724 8.18294 15.4612 8.26527C15.5501 8.3476 15.6 8.45927 15.6 8.57571ZM12.1658 10.0025C12.0799 10.0025 11.997 10.0314 11.9323 10.0837C11.8676 10.136 11.8255 10.2082 11.8138 10.287L11.8105 10.3318V13.405L11.8138 13.4498C11.8255 13.5286 11.8676 13.6008 11.9323 13.6531C11.997 13.7053 12.0799 13.7341 12.1658 13.7341C12.2516 13.7341 12.3345 13.7053 12.3992 13.6531C12.4639 13.6008 12.506 13.5286 12.5177 13.4498L12.521 13.405V10.3318L12.5177 10.287C12.506 10.2082 12.464 10.136 12.3993 10.0837C12.3346 10.0314 12.2516 10.0025 12.1658 10.0025ZM10.0342 10.0025C9.94834 10.0025 9.86539 10.0314 9.80069 10.0837C9.73599 10.136 9.69391 10.2082 9.68224 10.287L9.67892 10.3318V13.405L9.68224 13.4498C9.69394 13.5286 9.73603 13.6008 9.80072 13.6531C9.86542 13.7053 9.94835 13.7341 10.0342 13.7341C10.12 13.7341 10.203 13.7053 10.2676 13.6531C10.3323 13.6008 10.3744 13.5286 10.3861 13.4498L10.3894 13.405V10.3318L10.3861 10.287C10.3745 10.2082 10.3324 10.136 10.2677 10.0837C10.203 10.0314 10.12 10.0025 10.0342 10.0025ZM11.1 7.47815C10.9115 7.47815 10.7308 7.54753 10.5976 7.67103C10.4643 7.79453 10.3894 7.96203 10.3894 8.13668H11.8105C11.8105 7.96203 11.7356 7.79453 11.6024 7.67103C11.4691 7.54753 11.2884 7.47815 11.1 7.47815Z" fill="#C93131"/>
</svg>
