<svg width="41" height="40" viewBox="0 0 41 40" fill="none" xmlns="http://www.w3.org/2000/svg">
<circle cx="20.0654" cy="20" r="20" fill="#3CD856"/>
<g clip-path="url(#clip0_600_4383)">
<path fill-rule="evenodd" clip-rule="evenodd" d="M20 9C13.9328 9 9 13.9328 9 20C9 26.0672 13.9328 31 20 31C26.0672 31 31 26.0672 31 20C31 13.9328 26.0672 9 20 9Z" fill="white"/>
<path fill-rule="evenodd" clip-rule="evenodd" d="M25.3193 16.2919C25.5857 16.5583 25.5857 16.9966 25.3193 17.263L18.874 23.7083C18.7408 23.8415 18.5646 23.9103 18.3885 23.9103C18.2123 23.9103 18.0361 23.8415 17.9029 23.7083L14.6803 20.4856C14.4139 20.2192 14.4139 19.781 14.6803 19.5146C14.9467 19.2481 15.385 19.2481 15.6514 19.5146L18.3885 22.2517L24.3482 16.2919C24.6146 16.0212 25.0529 16.0212 25.3193 16.2919Z" fill="#3CD856"/>
</g>
<defs>
<clipPath id="clip0_600_4383">
<rect width="22" height="22" fill="white" transform="translate(9 9)"/>
</clipPath>
</defs>
</svg>
