<svg width="35" height="35" viewBox="0 0 35 35" fill="none" xmlns="http://www.w3.org/2000/svg">
<circle cx="17.5" cy="17.5" r="17" stroke="#E2E2E2"/>
<path d="M17.9582 22.0003C18.2498 22.0003 18.4965 21.8995 18.6982 21.6978C18.8998 21.4962 19.0004 21.2498 18.9998 20.9587C18.9998 20.667 18.8993 20.4203 18.6982 20.2187C18.4971 20.017 18.2504 19.9164 17.9582 19.917C17.6665 19.917 17.4201 20.0178 17.219 20.2195C17.0179 20.4212 16.9171 20.6675 16.9165 20.9587C16.9165 21.2503 17.0173 21.497 17.219 21.6987C17.4207 21.9003 17.6671 22.0009 17.9582 22.0003ZM17.9998 25.3337C16.8471 25.3337 15.7637 25.1148 14.7498 24.677C13.7359 24.2392 12.854 23.6456 12.104 22.8962C11.354 22.1462 10.7604 21.2642 10.3232 20.2503C9.88595 19.2364 9.66706 18.1531 9.6665 17.0003C9.6665 15.8475 9.88539 14.7642 10.3232 13.7503C10.7609 12.7364 11.3546 11.8545 12.104 11.1045C12.854 10.3545 13.7359 9.76088 14.7498 9.32366C15.7637 8.88644 16.8471 8.66755 17.9998 8.66699C19.1526 8.66699 20.2359 8.88588 21.2498 9.32366C22.2637 9.76144 23.1457 10.355 23.8957 11.1045C24.6457 11.8545 25.2396 12.7364 25.6773 13.7503C26.1151 14.7642 26.3337 15.8475 26.3332 17.0003C26.3332 18.1531 26.1143 19.2364 25.6765 20.2503C25.2387 21.2642 24.6451 22.1462 23.8957 22.8962C23.1457 23.6462 22.2637 24.24 21.2498 24.6778C20.2359 25.1156 19.1526 25.3342 17.9998 25.3337ZM17.9998 23.667C19.8609 23.667 21.4373 23.0212 22.729 21.7295C24.0207 20.4378 24.6665 18.8614 24.6665 17.0003C24.6665 15.1392 24.0207 13.5628 22.729 12.2712C21.4373 10.9795 19.8609 10.3337 17.9998 10.3337C16.1387 10.3337 14.5623 10.9795 13.2707 12.2712C11.979 13.5628 11.3332 15.1392 11.3332 17.0003C11.3332 18.8614 11.979 20.4378 13.2707 21.7295C14.5623 23.0212 16.1387 23.667 17.9998 23.667ZM18.0832 13.417C18.4304 13.417 18.7326 13.5281 18.9898 13.7503C19.2471 13.9725 19.3754 14.2503 19.3748 14.5837C19.3748 14.8892 19.2812 15.16 19.094 15.3962C18.9068 15.6323 18.6948 15.8545 18.4582 16.0628C18.1387 16.3406 17.8576 16.6462 17.6148 16.9795C17.3721 17.3128 17.2504 17.6878 17.2498 18.1045C17.2498 18.2989 17.3229 18.4623 17.469 18.5945C17.6151 18.7267 17.7851 18.7925 17.979 18.792C18.1873 18.792 18.3646 18.7225 18.5107 18.5837C18.6568 18.4448 18.7504 18.2712 18.7915 18.0628C18.8471 17.7712 18.9721 17.5106 19.1665 17.2812C19.3609 17.0517 19.5693 16.8331 19.7915 16.6253C20.1109 16.3198 20.3854 15.9864 20.6148 15.6253C20.8443 15.2642 20.9587 14.8614 20.9582 14.417C20.9582 13.7087 20.6698 13.1289 20.0932 12.6778C19.5165 12.2267 18.8465 12.0009 18.0832 12.0003C17.5554 12.0003 17.0521 12.1114 16.5732 12.3337C16.0943 12.5559 15.7296 12.8962 15.479 13.3545C15.3818 13.5212 15.3504 13.6984 15.3848 13.8862C15.4193 14.0739 15.5132 14.2162 15.6665 14.3128C15.8609 14.4239 16.0623 14.4587 16.2707 14.417C16.479 14.3753 16.6526 14.2573 16.7915 14.0628C16.9443 13.8545 17.1354 13.6948 17.3648 13.5837C17.5943 13.4725 17.8337 13.417 18.0832 13.417Z" fill="black"/>
</svg>
