<svg width="35" height="35" viewBox="0 0 35 35" fill="none" xmlns="http://www.w3.org/2000/svg">
<circle cx="17.5" cy="17.5" r="17" stroke="#E2E2E2"/>
<path d="M17.9587 22.0003C18.2503 22.0003 18.497 21.8995 18.6987 21.6978C18.9003 21.4962 19.0009 21.2498 19.0003 20.9587C19.0003 20.667 18.8998 20.4203 18.6987 20.2187C18.4975 20.017 18.2509 19.9164 17.9587 19.917C17.667 19.917 17.4206 20.0178 17.2195 20.2195C17.0184 20.4212 16.9175 20.6675 16.917 20.9587C16.917 21.2503 17.0178 21.497 17.2195 21.6987C17.4212 21.9003 17.6675 22.0009 17.9587 22.0003ZM18.0003 25.3337C16.8475 25.3337 15.7642 25.1148 14.7503 24.677C13.7364 24.2392 12.8545 23.6456 12.1045 22.8962C11.3545 22.1462 10.7609 21.2642 10.3237 20.2503C9.88644 19.2364 9.66755 18.1531 9.66699 17.0003C9.66699 15.8475 9.88588 14.7642 10.3237 13.7503C10.7614 12.7364 11.355 11.8545 12.1045 11.1045C12.8545 10.3545 13.7364 9.76088 14.7503 9.32366C15.7642 8.88644 16.8475 8.66755 18.0003 8.66699C19.1531 8.66699 20.2364 8.88588 21.2503 9.32366C22.2642 9.76144 23.1462 10.355 23.8962 11.1045C24.6462 11.8545 25.24 12.7364 25.6778 13.7503C26.1156 14.7642 26.3342 15.8475 26.3337 17.0003C26.3337 18.1531 26.1148 19.2364 25.677 20.2503C25.2392 21.2642 24.6456 22.1462 23.8962 22.8962C23.1462 23.6462 22.2642 24.24 21.2503 24.6778C20.2364 25.1156 19.1531 25.3342 18.0003 25.3337ZM18.0003 23.667C19.8614 23.667 21.4378 23.0212 22.7295 21.7295C24.0212 20.4378 24.667 18.8614 24.667 17.0003C24.667 15.1392 24.0212 13.5628 22.7295 12.2712C21.4378 10.9795 19.8614 10.3337 18.0003 10.3337C16.1392 10.3337 14.5628 10.9795 13.2712 12.2712C11.9795 13.5628 11.3337 15.1392 11.3337 17.0003C11.3337 18.8614 11.9795 20.4378 13.2712 21.7295C14.5628 23.0212 16.1392 23.667 18.0003 23.667ZM18.0837 13.417C18.4309 13.417 18.7331 13.5281 18.9903 13.7503C19.2475 13.9725 19.3759 14.2503 19.3753 14.5837C19.3753 14.8892 19.2817 15.16 19.0945 15.3962C18.9073 15.6323 18.6953 15.8545 18.4587 16.0628C18.1392 16.3406 17.8581 16.6462 17.6153 16.9795C17.3725 17.3128 17.2509 17.6878 17.2503 18.1045C17.2503 18.2989 17.3234 18.4623 17.4695 18.5945C17.6156 18.7267 17.7856 18.7925 17.9795 18.792C18.1878 18.792 18.365 18.7225 18.5112 18.5837C18.6573 18.4448 18.7509 18.2712 18.792 18.0628C18.8475 17.7712 18.9725 17.5106 19.167 17.2812C19.3614 17.0517 19.5698 16.8331 19.792 16.6253C20.1114 16.3198 20.3859 15.9864 20.6153 15.6253C20.8448 15.2642 20.9592 14.8614 20.9587 14.417C20.9587 13.7087 20.6703 13.1289 20.0937 12.6778C19.517 12.2267 18.847 12.0009 18.0837 12.0003C17.5559 12.0003 17.0525 12.1114 16.5737 12.3337C16.0948 12.5559 15.73 12.8962 15.4795 13.3545C15.3823 13.5212 15.3509 13.6984 15.3853 13.8862C15.4198 14.0739 15.5137 14.2162 15.667 14.3128C15.8614 14.4239 16.0628 14.4587 16.2712 14.417C16.4795 14.3753 16.6531 14.2573 16.792 14.0628C16.9448 13.8545 17.1359 13.6948 17.3653 13.5837C17.5948 13.4725 17.8342 13.417 18.0837 13.417Z" fill="black"/>
</svg>
