<svg width="26" height="28" viewBox="0 0 26 28" fill="none" xmlns="http://www.w3.org/2000/svg">
<path d="M25.1875 9.45V25.25C25.1842 25.8292 24.9527 26.3836 24.5432 26.7932C24.1336 27.2027 23.5792 27.4342 23 27.4375H3C2.42085 27.4342 1.86636 27.2027 1.45683 26.7932C1.0473 26.3836 0.815781 25.8292 0.8125 25.25V2.75C0.815781 2.17085 1.0473 1.61636 1.45683 1.20683C1.86636 0.797303 2.42085 0.565781 3 0.5625H17.4125C17.7341 0.563226 18.0517 0.634059 18.3431 0.770064C18.6346 0.906069 18.8929 1.10398 19.1 1.35L24.675 8.05C25.0093 8.43946 25.1913 8.93675 25.1875 9.45Z" fill="#FDFEFF"/>
<path d="M25.1875 9.45V9.9375H19.25C18.6709 9.93422 18.1164 9.7027 17.7068 9.29317C17.2973 8.88364 17.0658 8.32915 17.0625 7.75V0.5625H17.4125C17.7341 0.563226 18.0517 0.634059 18.3431 0.770064C18.6346 0.906069 18.8929 1.10398 19.1 1.35L24.675 8.05C25.0093 8.43946 25.1913 8.93675 25.1875 9.45Z" fill="#3E96ED"/>
<path d="M20.5 11.8125H5.5C4.98223 11.8125 4.5625 12.2322 4.5625 12.75V22.75C4.5625 23.2678 4.98223 23.6875 5.5 23.6875H20.5C21.0178 23.6875 21.4375 23.2678 21.4375 22.75V12.75C21.4375 12.2322 21.0178 11.8125 20.5 11.8125Z" fill="#8DD1FF"/>
<path d="M10.5 6.1875H5.5C5.25136 6.1875 5.0129 6.08873 4.83709 5.91291C4.66127 5.7371 4.5625 5.49864 4.5625 5.25C4.5625 5.00136 4.66127 4.7629 4.83709 4.58709C5.0129 4.41127 5.25136 4.3125 5.5 4.3125H10.5C10.7486 4.3125 10.9871 4.41127 11.1629 4.58709C11.3387 4.7629 11.4375 5.00136 11.4375 5.25C11.4375 5.49864 11.3387 5.7371 11.1629 5.91291C10.9871 6.08873 10.7486 6.1875 10.5 6.1875ZM10.5 9.9375H5.5C5.25136 9.9375 5.0129 9.83873 4.83709 9.66291C4.66127 9.4871 4.5625 9.24864 4.5625 9C4.5625 8.75136 4.66127 8.5129 4.83709 8.33709C5.0129 8.16127 5.25136 8.0625 5.5 8.0625H10.5C10.7486 8.0625 10.9871 8.16127 11.1629 8.33709C11.3387 8.5129 11.4375 8.75136 11.4375 9C11.4375 9.24864 11.3387 9.4871 11.1629 9.66291C10.9871 9.83873 10.7486 9.9375 10.5 9.9375Z" fill="#3E96ED"/>
<path d="M20.5 23.6875H14.25C14.0014 23.6875 13.7629 23.5887 13.5871 23.4129C13.4113 23.2371 13.3125 22.9986 13.3125 22.75C13.3125 22.5014 13.4113 22.2629 13.5871 22.0871C13.7629 21.9113 14.0014 21.8125 14.25 21.8125H19.5625V13.6875H6.4375V21.8125H10.5C10.7486 21.8125 10.9871 21.9113 11.1629 22.0871C11.3387 22.2629 11.4375 22.5014 11.4375 22.75C11.4375 22.9986 11.3387 23.2371 11.1629 23.4129C10.9871 23.5887 10.7486 23.6875 10.5 23.6875H5.5C5.25237 23.6843 5.01579 23.5844 4.84067 23.4093C4.66555 23.2342 4.56574 22.9976 4.5625 22.75V12.75C4.56574 12.5024 4.66555 12.2658 4.84067 12.0907C5.01579 11.9155 5.25237 11.8157 5.5 11.8125H20.5C20.7476 11.8157 20.9842 11.9155 21.1593 12.0907C21.3345 12.2658 21.4343 12.5024 21.4375 12.75V22.75C21.4343 22.9976 21.3345 23.2342 21.1593 23.4093C20.9842 23.5844 20.7476 23.6843 20.5 23.6875Z" fill="#004FAC"/>
<path d="M20.5 18.6875H5.5C5.25136 18.6875 5.0129 18.5887 4.83709 18.4129C4.66127 18.2371 4.5625 17.9986 4.5625 17.75C4.5625 17.5014 4.66127 17.2629 4.83709 17.0871C5.0129 16.9113 5.25136 16.8125 5.5 16.8125H20.5C20.7486 16.8125 20.9871 16.9113 21.1629 17.0871C21.3387 17.2629 21.4375 17.5014 21.4375 17.75C21.4375 17.9986 21.3387 18.2371 21.1629 18.4129C20.9871 18.5887 20.7486 18.6875 20.5 18.6875Z" fill="#004FAC"/>
<path d="M10.5 23.6875C10.2524 23.6843 10.0158 23.5844 9.84067 23.4093C9.66555 23.2342 9.56574 22.9976 9.5625 22.75V12.75C9.5625 12.5014 9.66127 12.2629 9.83709 12.0871C10.0129 11.9113 10.2514 11.8125 10.5 11.8125C10.7486 11.8125 10.9871 11.9113 11.1629 12.0871C11.3387 12.2629 11.4375 12.5014 11.4375 12.75V22.75C11.4343 22.9976 11.3345 23.2342 11.1593 23.4093C10.9842 23.5844 10.7476 23.6843 10.5 23.6875Z" fill="#004FAC"/>
<path d="M23 27.4375H3C2.42085 27.4342 1.86636 27.2027 1.45683 26.7932C1.0473 26.3836 0.815781 25.8292 0.8125 25.25V2.75C0.815781 2.17085 1.0473 1.61636 1.45683 1.20683C1.86636 0.797303 2.42085 0.565781 3 0.5625H17.4125C17.7341 0.563226 18.0517 0.634059 18.3431 0.770064C18.6346 0.906069 18.8929 1.10398 19.1 1.35L24.675 8.05C25.0073 8.44061 25.1891 8.93714 25.1875 9.45V25.25C25.1842 25.8292 24.9527 26.3836 24.5432 26.7932C24.1336 27.2027 23.5791 27.4342 23 27.4375ZM3 2.4375C2.91712 2.4375 2.83763 2.47042 2.77903 2.52903C2.72042 2.58763 2.6875 2.66712 2.6875 2.75V25.25C2.6875 25.3329 2.72042 25.4124 2.77903 25.471C2.83763 25.5296 2.91712 25.5625 3 25.5625H23C23.0829 25.5625 23.1624 25.5296 23.221 25.471C23.2796 25.4124 23.3125 25.3329 23.3125 25.25V9.45C23.3118 9.37659 23.2852 9.30579 23.2375 9.25L17.65 2.55C17.6229 2.51292 17.587 2.48319 17.5456 2.46354C17.5041 2.44389 17.4583 2.43494 17.4125 2.4375H3Z" fill="#004FAC"/>
<path d="M24.1625 9.9374H19.25C18.6709 9.93412 18.1164 9.7026 17.7068 9.29307C17.2973 8.88354 17.0658 8.32905 17.0625 7.7499V1.6499C17.0625 1.40126 17.1613 1.16281 17.3371 0.98699C17.5129 0.811174 17.7514 0.712402 18 0.712402C18.2486 0.712402 18.4871 0.811174 18.6629 0.98699C18.8387 1.16281 18.9375 1.40126 18.9375 1.6499V7.7499C18.9375 7.83278 18.9704 7.91227 19.029 7.97087C19.0876 8.02948 19.1671 8.0624 19.25 8.0624H24.1625C24.4111 8.0624 24.6496 8.16117 24.8254 8.33699C25.0012 8.5128 25.1 8.75126 25.1 8.9999C25.1 9.24854 25.0012 9.487 24.8254 9.66281C24.6496 9.83863 24.4111 9.9374 24.1625 9.9374Z" fill="#004FAC"/>
</svg>
