<svg width="30" height="30" viewBox="0 0 30 30" fill="none" xmlns="http://www.w3.org/2000/svg">
<circle cx="15" cy="15" r="14.5" stroke="#E2E2E2"/>
<path d="M20.75 20.9167L16.0833 16.25C15.6667 16.5833 15.1875 16.8472 14.6458 17.0417C14.1042 17.2361 13.5278 17.3333 12.9167 17.3333C11.4028 17.3333 10.1217 16.8089 9.07333 15.76C8.025 14.7111 7.50056 13.43 7.5 11.9167C7.5 10.4028 8.02444 9.12167 9.07333 8.07333C10.1222 7.025 11.4033 6.50056 12.9167 6.5C14.4306 6.5 15.7117 7.02444 16.76 8.07333C17.8083 9.12222 18.3328 10.4033 18.3333 11.9167C18.3333 12.5278 18.2361 13.1042 18.0417 13.6458C17.8472 14.1875 17.5833 14.6667 17.25 15.0833L21.9375 19.7708C22.0903 19.9236 22.1667 20.1111 22.1667 20.3333C22.1667 20.5556 22.0833 20.75 21.9167 20.9167C21.7639 21.0694 21.5694 21.1458 21.3333 21.1458C21.0972 21.1458 20.9028 21.0694 20.75 20.9167ZM12.9167 15.6667C13.9583 15.6667 14.8439 15.3019 15.5733 14.5725C16.3028 13.8431 16.6672 12.9578 16.6667 11.9167C16.6667 10.875 16.3019 9.98944 15.5725 9.26C14.8431 8.53056 13.9578 8.16611 12.9167 8.16667C11.875 8.16667 10.9894 8.53139 10.26 9.26083C9.53056 9.99028 9.16611 10.8756 9.16667 11.9167C9.16667 12.9583 9.53139 13.8439 10.2608 14.5733C10.9903 15.3028 11.8756 15.6672 12.9167 15.6667Z" fill="black"/>
</svg>
