<svg width="36" height="36" viewBox="0 0 36 36" fill="none" xmlns="http://www.w3.org/2000/svg">
<circle cx="18" cy="18" r="17.5" stroke="#D6DEEF"/>
<circle cx="18" cy="18" r="14" fill="#D6DEEF"/>
<path d="M18.5142 24.1591C17.7339 24.1591 17.0369 24.0246 16.4233 23.7557C15.8134 23.4867 15.3305 23.1136 14.9744 22.6364C14.6222 22.1553 14.4328 21.5985 14.4062 20.9659H16.1903C16.2131 21.3106 16.3286 21.6098 16.5369 21.8636C16.7491 22.1136 17.0256 22.3068 17.3665 22.4432C17.7074 22.5795 18.0862 22.6477 18.5028 22.6477C18.9612 22.6477 19.3665 22.5682 19.7188 22.4091C20.0748 22.25 20.3532 22.0284 20.554 21.7443C20.7547 21.4564 20.8551 21.125 20.8551 20.75C20.8551 20.3598 20.7547 20.017 20.554 19.7216C20.357 19.4223 20.0672 19.1875 19.6847 19.017C19.3059 18.8466 18.8475 18.7614 18.3097 18.7614H17.3267V17.3295H18.3097C18.7415 17.3295 19.1203 17.2519 19.446 17.0966C19.7756 16.9413 20.0331 16.7254 20.2188 16.4489C20.4044 16.1686 20.4972 15.8409 20.4972 15.4659C20.4972 15.1061 20.4157 14.7936 20.2528 14.5284C20.0938 14.2595 19.8665 14.0492 19.571 13.8977C19.2794 13.7462 18.9347 13.6705 18.5369 13.6705C18.1581 13.6705 17.804 13.7405 17.4744 13.8807C17.1487 14.017 16.8835 14.214 16.679 14.4716C16.4744 14.7254 16.3646 15.0303 16.3494 15.3864H14.6506C14.6695 14.7576 14.8551 14.2045 15.2074 13.7273C15.5634 13.25 16.0331 12.8769 16.6165 12.608C17.1998 12.339 17.8475 12.2045 18.5597 12.2045C19.3059 12.2045 19.9498 12.3504 20.4915 12.642C21.0369 12.9299 21.4574 13.3144 21.7528 13.7955C22.0521 14.2765 22.1998 14.803 22.196 15.375C22.1998 16.0265 22.018 16.5795 21.6506 17.0341C21.2869 17.4886 20.8021 17.7936 20.196 17.9489V18.0398C20.9688 18.1572 21.5672 18.464 21.9915 18.9602C22.4195 19.4564 22.6316 20.072 22.6278 20.8068C22.6316 21.447 22.4536 22.0208 22.0938 22.5284C21.7377 23.036 21.2509 23.4356 20.6335 23.7273C20.0161 24.0152 19.3097 24.1591 18.5142 24.1591Z" fill="#3340B1"/>
</svg>
