<svg width="41" height="40" viewBox="0 0 41 40" fill="none" xmlns="http://www.w3.org/2000/svg">
<circle cx="20.0654" cy="20" r="20" fill="#FA5A7D"/>
<path fill-rule="evenodd" clip-rule="evenodd" d="M12.7979 14C12.7979 11.7909 14.4982 10 16.5956 10H22.2922V14C22.2922 16.2091 23.9925 18 26.09 18H27.9889V26C27.9889 28.2091 26.2886 30 24.1911 30H16.5956C14.4982 30 12.7979 28.2091 12.7979 26V14ZM16.5956 19C16.0712 19 15.6462 19.4477 15.6462 20C15.6462 20.5523 16.0712 21 16.5956 21H18.4945C19.0188 21 19.4439 20.5523 19.4439 20C19.4439 19.4477 19.0188 19 18.4945 19H16.5956ZM16.5956 23C16.0712 23 15.6462 23.4477 15.6462 24C15.6462 24.5523 16.0712 25 16.5956 25H20.3934C20.9177 25 21.3428 24.5523 21.3428 24C21.3428 23.4477 20.9177 23 20.3934 23H16.5956ZM24.8384 12.1988L24.7141 14.1629C24.6759 14.7666 25.1514 15.2674 25.7246 15.2272L27.5894 15.0962C28.4033 15.0391 28.7744 13.9989 28.1976 13.3913L26.4571 11.5582C25.8803 10.9507 24.8927 11.3415 24.8384 12.1988Z" fill="white"/>
</svg>
