<svg width="56" height="56" viewBox="0 0 56 56" fill="none" xmlns="http://www.w3.org/2000/svg">
<g clip-path="url(#clip0_754_1221)">
<path d="M43.6748 16.5616C41.7627 7.26938 32.6797 1.28661 23.3874 3.1987C15.4306 4.83606 9.70875 11.8234 9.67225 19.9467C9.67225 20.3337 9.68825 20.73 9.7226 21.1492C4.06203 21.7483 -0.0410762 26.8228 0.558102 32.4834C1.11348 37.7301 5.54134 41.7103 10.8174 41.7051H12.0198C11.9923 41.325 11.9626 40.9471 11.9626 40.5599C11.9626 32.3379 18.6278 25.6726 26.8499 25.6726C35.072 25.6726 41.7372 32.3379 41.7372 40.5599C41.7372 40.947 41.7074 41.3249 41.6799 41.7051H42.8824C49.8318 41.7241 55.4809 36.1059 55.4999 29.1563C55.5182 22.488 50.3312 16.9634 43.6748 16.5616Z" fill="#E9EFFF"/>
<path d="M26.8498 53.1567C33.8069 53.1567 39.4468 47.5169 39.4468 40.5598C39.4468 33.6027 33.8069 27.9629 26.8498 27.9629C19.8928 27.9629 14.2529 33.6027 14.2529 40.5598C14.2529 47.5169 19.8928 53.1567 26.8498 53.1567Z" fill="#4CAF50"/>
<path d="M26.8493 48.576C26.2169 48.576 25.7041 48.0633 25.7041 47.4308V33.6887C25.7041 33.0562 26.2169 32.5435 26.8493 32.5435C27.4818 32.5435 27.9945 33.0562 27.9945 33.6887V47.4308C27.9944 48.0633 27.4818 48.576 26.8493 48.576Z" fill="#FAFAFA"/>
<path d="M31.4302 39.4147C31.1263 39.4152 30.8346 39.295 30.6194 39.0803L26.8495 35.3081L23.0795 39.0803C22.6246 39.5197 21.8996 39.507 21.4602 39.0521C21.0315 38.6083 21.0315 37.9048 21.4602 37.461L26.0409 32.8802C26.4881 32.4332 27.213 32.4332 27.6603 32.8802L32.241 37.461C32.6875 37.9089 32.6864 38.634 32.2384 39.0805C32.0239 39.2945 31.7333 39.4146 31.4302 39.4147Z" fill="#FAFAFA"/>
</g>
<defs>
<clipPath id="clip0_754_1221">
<rect width="55" height="55" fill="white" transform="translate(0.5 0.5)"/>
</clipPath>
</defs>
</svg>
