<svg width="16" height="16" viewBox="0 0 16 16" fill="none" xmlns="http://www.w3.org/2000/svg">
<path d="M1.4 14.1V14.6H1.9H14.1H14.6V14.1V13C14.6 12.7295 14.4457 12.5182 14.3307 12.3909C14.2013 12.2475 14.0306 12.1118 13.8421 11.986C13.4624 11.7325 12.9426 11.4745 12.3437 11.2435C11.1456 10.7814 9.55913 10.4 8 10.4C6.44087 10.4 4.8544 10.7814 3.65632 11.2435C3.05741 11.4745 2.53759 11.7325 2.15785 11.986C1.96945 12.1118 1.79872 12.2475 1.66925 12.3909C1.55427 12.5182 1.4 12.7295 1.4 13V14.1ZM8 0.5C8.92826 0.5 9.8185 0.868749 10.4749 1.52513C11.1313 2.1815 11.5 3.07174 11.5 4C11.5 4.92826 11.1313 5.8185 10.4749 6.47487C9.8185 7.13125 8.92826 7.5 8 7.5C7.07174 7.5 6.1815 7.13125 5.52513 6.47487C4.86875 5.8185 4.5 4.92826 4.5 4C4.5 3.07174 4.86875 2.1815 5.52513 1.52513C6.1815 0.868749 7.07174 0.5 8 0.5ZM8 1.5C7.33696 1.5 6.70107 1.76339 6.23223 2.23223C5.76339 2.70107 5.5 3.33696 5.5 4C5.5 4.66304 5.76339 5.29893 6.23223 5.76777C6.70107 6.23661 7.33696 6.5 8 6.5C8.66304 6.5 9.29893 6.23661 9.76777 5.76777C10.2366 5.29893 10.5 4.66304 10.5 4C10.5 3.33696 10.2366 2.70107 9.76777 2.23223C9.29893 1.76339 8.66304 1.5 8 1.5ZM8 9.5C9.27297 9.5 11.2098 9.82094 12.8156 10.463C13.6181 10.7839 14.3065 11.1727 14.7862 11.6159C15.2623 12.0557 15.5 12.5156 15.5 13V15.5H0.5V13C0.5 12.5156 0.737691 12.0557 1.21382 11.6159C1.69353 11.1727 2.38188 10.7839 3.18439 10.463C4.79016 9.82094 6.72703 9.5 8 9.5Z" fill="white" stroke="white"/>
</svg>
